<?xml version="1.0" encoding="UTF-8"?>
<svg id="Layer_2" data-name="Layer 2" xmlns="http://www.w3.org/2000/svg" viewBox="0 0 690.08 920.5">
  <defs>
    <style>
      .cls-1 {
        fill: #fff;
      }

      .cls-2 {
        fill: #8c999f;
      }

      .cls-3 {
        fill: #f15a29;
      }

      .cls-4 {
        fill: #27aae1;
      }

      .cls-5 {
        fill: #e4e1d2;
      }

      .cls-6 {
        fill: #222b2f;
      }
    </style>
  </defs>
  <g id="Layer_2-2" data-name="Layer 2">
    <path class="cls-5" d="M688.33,615.96c-6.26,4.17-34.43-15.65-34.43-15.65,0,0,31.82,42.78,29.74,46.95-2.09,4.18-5.74,2.09-12.53-.52-6.67-2.57-21.44-16.25-21.9-16.67.48,1,16.66,34.98,14.6,38.06-2.09,3.13-5.22,6.79-14.09,2.61-8.87-4.17-26.08-38.61-26.08-38.61,0,0,1.56,27.13,0,33.92-1.57,6.78-4.18,8.87-10.44,4.17-6.26-4.69-21.91-54.78-21.91-54.78,0,0-10.44,26.61-27.13,19.82-16.7-6.78,9.91-63.65,9.91-63.65,0,0-2.09-4.17-22.43-42.26-20.35-38.09-70.08-52.19-74.09-37.04-4.7,17.74-2.09,73.04-2.09,73.04,0,0,13.05,17.74,15.65,46.44,2.49,27.37-23.51,83.23-31.8,132.26-.4,2.36-.76,4.71-1.07,7.04-1.02,7.61-1.27,14.58-.92,20.97.84,15.19,5.09,27.12,10.56,36.76,3.31,5.84,7.07,10.85,10.79,15.23,4.72,5.58,9.38,10.15,12.97,14.17,13.04,14.61,5.21,31.31-22.44,55.83-27.65,24.52-62.61,37.04-89.22,15.13-26.6-21.92,33.4-62.61,33.4-62.61,0,0-.05-.04-.14-.11-1.14-.87-9.34-7.14-20.03-16.41-13.04-11.3-29.79-27.07-41.99-42.92-4.32-5.63-8.08-11.27-10.89-16.73-5.06-9.82-8.96-24.57-11.92-40.14-6.36-33.38-8.43-70.47-8.43-70.47,0,0-54.78-1.05-74.6,45.39-1.29,3.01-2.4,6.02-3.37,9.02-1.94,6.02-3.27,12.01-4.09,17.91-2.85,20.24.16,39.37,4.34,54.83,1.52,5.64,3.2,10.8,4.81,15.34,1.94,5.46,3.76,10.04,5.09,13.51,6.78,17.74-7.83,30.26-30.26,41.21-22.44,10.96-89.22,34.44-106.96,3.13-16.39-28.93,45.67-53.41,55.15-56.96h0c.77-.28,1.19-.43,1.19-.43,0,0-5.94-6.32-13.61-17.68-8.28-12.24-18.57-30.34-25.63-52.66-5.01-15.83-8.38-33.8-8.24-53.31.04-5.94.62-11.83,1.63-17.63,11.43-65.22,78.92-119.59,78.92-119.59,0,0-3.85-36.52-3.85-66.04s14.08-98.83,14.08-98.83c0,0-34.95-32.34-77.74-70.43-42.78-38.09-70.43-103.31-70.43-103.31,0,0-21.39-12.52-28.7-21.91-7.3-9.39-7.3-25.04-6.78-36.52-8.35-1.04-28.7-12-30.78-20.35-2.09-8.35,16.69-6.26,27.13-3.13C7.46,104.66,2.24,93.7,5.38,89.53c3.13-4.18,19.3,2.6,27.65,5.21-4.7-4.17-14.09-34.95-5.22-38.61,8.87-3.65,36.52,29.74,36.52,29.74,0,0-6.26-32.34,9.39-32.87,15.66-.52,16.7,55.83,16.7,55.83,0,0,6.78-30.78,26.09-19.3,19.3,11.47-.53,26.6-2.09,60.52-1.36,29.32,100.68,102.34,131,121.89,4.75,3.07,7.74,4.82,8.3,4.89.41.05,1.12.05,2.07.01,1.08-.05,2.47-.15,4.06-.29-23.85-25.08-41.1-54.7-49.58-84.87l-14.18-2.26c-9.31-1.48-15.66-10.22-14.17-19.53l14.4-90.5c1.48-9.31,10.22-15.66,19.53-14.17l14.21,2.26c1.18.19,2.32.5,3.4.91,42.88-55.17,126.43-84.51,210.18-59.21,81.51,24.62,139.2,93.74,148.92,162.24.96.12,1.92.32,2.87.6l13.78,4.15c9.02,2.73,14.13,12.25,11.41,21.27l-26.46,87.74c-2.72,9.02-12.24,14.13-21.27,11.41l-13.77-4.16c-2.36-.71-4.46-1.89-6.21-3.41-17.9,18.78-40.67,33.9-66.44,43.77l-.22,2.6-.87,10.31s4.74,4.65,11.95,11.84c16.81,16.76,47,47.33,61.61,64.86,20.87,25.04,67.3,118.95,67.3,118.95,0,0,12,8.87,19.31,16.7,7.3,7.82,15.13,26.08,15.13,26.08,0,0,6.26,3.66,14.09,8.35,7.82,4.7,19.82,19.31,13.56,23.48Z"/>
    <path class="cls-3" d="M242.01,714.2c-1.94,6.02-3.27,12.01-4.09,17.91-2.66.26-4.85.6-6.57.79-4.69.52-17.28,8.28-52.24,6.19-34.95-2.09-38.93-10.5-42.45-10.3-.87.05-2.5,1.47-4.61,3.61-5.01-15.83-8.38-33.8-8.24-53.31.04-5.94.62-11.83,1.63-17.63,4.99.93,4.37,2.59,8.09,2.96,5.21.52,15.85.58,24.71,2.15,8.87,1.56,41.74,10.96,57.4,25.04,7.96,7.17,18.22,15.82,26.37,22.59Z"/>
    <path class="cls-4" d="M247.07,802.28c-7.43,4.63-19.64,9.54-38.41,10.05-12.17.33-25.8-3.68-38.56-9.16.77-.28,1.19-.43,1.19-.43,0,0-5.94-6.32-13.61-17.68,10.81,3.8,30.15,9.47,47.26,8.68,13.31-.61,27.15-3.85,37.32-6.8,1.52,5.64,3.2,10.8,4.81,15.34Z"/>
    <path class="cls-3" d="M458.24,751.09c-1.02,7.61-1.27,14.58-.92,20.97-.68.05-1.33.1-1.94.16-15.07,1.37-9.59,15.85-77.29,16.63-9.68.11-18.63-.53-26.87-1.72-4.32-5.63-8.08-11.27-10.89-16.73-5.06-9.82-8.96-24.57-11.92-40.14,12.09-2.74,26.31-4.39,42.64-3.82,61.24,2.15,63,13.69,81.19,16.63,2.14.34,4.52.67,7.07.98-.4,2.36-.76,4.71-1.07,7.04Z"/>
    <path class="cls-4" d="M478.67,824.05c-4.82,5.35-13.88,11.9-30.93,17.82-10.05,3.49-22.16,4.7-34.5,4.59-1.14-.87-9.34-7.14-20.03-16.41,14.85-.04,32.15-1.04,45.53-4.61,13.91-3.71,23.21-10.5,29.14-16.62,3.31,5.84,7.07,10.85,10.79,15.23Z"/>
    <path class="cls-4" d="M481.59,399.31c-5.48,23.09-4.69,55.17-4.69,55.17,0,0-16.44-1.95-26.61-47.74-8.23-37,.78-39.91-5.09-41.48-5.87-1.56-51.65,8.61-107.22-9-55.56-17.6-75.52-52.04-82.56-50.47-7.04,1.56-25.83,38.34-35.61,58.3,0,0,2.35-36.78,13.3-61.43,6.91-15.55,10.55-25.49,12.31-30.72,4.75,3.07,7.74,4.82,8.3,4.89.41.05,1.12.05,2.07.01,14.4,13.69,46.66,39.47,100.59,57.9,49.84,17.04,100.5,8.63,129.87.65l-.87,10.31s4.74,4.65,11.95,11.84c-6.45,14.52-13.18,31-15.74,41.77Z"/>
    <path class="cls-4" d="M201.08,497.97s-18.03,8.94-18.17,25.12,1.18,17.93,6.12,22.96,81.86,45.19,172.83,51.25c68.48,4.57,117.76-17.28,120.38-19.66s6.79-25.33,4.71-43.07-10.9-33.44-10.9-33.44c0,0-1.22,22.21-.58,28.75-2.09,6.39-46.96,22.43-132.52,15.65s-141.86-47.55-141.86-47.55Z"/>
    <path class="cls-2" d="M360.62,507.88l-106.77-32.05c-12.75-3.57-19.72-23.3-16.14-36.06l14.6-62.51c3.57-12.75,16.81-20.19,29.56-16.62l96.02,28.89c12.75,3.57,32.92,17.77,29.35,30.52l-17.07,71.21c-3.57,12.75-16.81,20.19-29.56,16.62Z"/>
    <path class="cls-1" d="M352.7,491.2l-84.09-25.17c-10.04-2.81-15.69-17.77-13-27.37l10.89-47.06c2.69-9.6,13.01-15.09,23.05-12.28l75.63,22.68c10.04,2.81,26,13.71,23.31,23.31l-12.75,53.61c-2.69,9.6-13.01,15.09-23.05,12.28Z"/>
    <path class="cls-3" d="M311.77,429.66c0-8.86-7.37-13.19-17.13-16.04-9.38-2.17-17.13,7.18-17.13,16.04s7.67,16.04,17.13,16.04c5.7-.91,17.13-7.18,17.13-16.04Z"/>
    <path class="cls-6" d="M360.29,445.7c0-8.86-8.9-17.54-17.76-17.54-13.93-2.25-16.04,7.18-16.04,16.04s9.69,16.04,18.55,16.04,15.25-5.69,15.25-14.55Z"/>
    <path class="cls-3" d="M66.42,203.26s6.65-19.17,21.52-29.34,27.48-17.64,27.48-17.64c0,0,7.94,4.72,11.46,10.59s6.85,16.63,6.85,16.63c0,0-15.85,6.65-29.93,17.41s-16.8,33.5-21.72,33.54c-2.15.01-8.91-11.89-10.96-16.91-1.79-4.38-4.69-14.29-4.69-14.29Z"/>
    <path class="cls-3" d="M560.69,546.32s14.03,3.64,27.14-3.79,25.46-26.72,25.46-26.72c0,0,5.65,6.56,8,11.46s4.95,14.09,4.95,14.09c0,0-3.39,10.57-19.63,21.72s-33.67,6.37-33.67,6.37c0,0-7.02-10.67-8.2-13.21s-4.05-9.9-4.05-9.9Z"/>
    <path class="cls-6" d="M225.29,134.4c18.72-52.26,97.83-108.78,199.57-72s142.17,126.22,126,184.7-91.91,115.04-204.04,76.7c-112.13-38.35-140.3-136.96-121.52-189.39Z"/>
    <path class="cls-1" d="M402.94,108.57c.31-7.86,7.04-12.52,17.22-12.52s19.57,3.13,19.57,12.52-6.26,13.3-18.39,13.3-18.59-8.22-18.39-13.3Z"/>
    <path class="cls-1" d="M439.72,138.7c.41-5.68,18-20.74,20.35-20.35s49.7,33.65,57.13,86.09-23.87,92.74-23.87,92.74c0,0,18.78-69.26-2.74-107.61s-51.26-45.39-50.87-50.87Z"/>
  </g>
</svg>