<svg width="209" height="726" viewBox="0 0 209 726" fill="none" xmlns="http://www.w3.org/2000/svg">
<path d="M208.912 72.1104L195.624 104.553L195.722 719.649L207.044 719.429L208.912 72.1104Z" fill="#D4520C"/>
<path d="M208.694 69.6931L195.358 101.084L8.56635 29.8896L8.56635 0L208.694 69.6931Z" fill="#D4520C"/>
<path d="M194.658 98.4424L12.3076 44.4842L13.353 596.633L194.768 719.67L194.658 98.4424Z" fill="url(#paint0_linear_198_6)" fill-opacity="0.7"/>
<path d="M15.11 34.1282L8.42355 28.2265L10.4621 587.534L16.126 593.64L15.11 34.1282Z" fill="#F9732B"/>
<path d="M11.7023 28.9291L8.36493 28.9931L9.43971 587.878L11.8069 593.724L11.7023 28.9291Z" fill="#D5520C"/>
<path d="M107.798 92.4271L102.062 98.3986L103.088 648.42L108.821 654.027L107.798 92.4271Z" fill="#D5520C"/>
<path d="M188.957 109.221L186.097 109.277V672.457L189.006 698.367L188.957 109.221Z" fill="#D5520C"/>
<path d="M189.731 123.428L192.724 105.81L14.0118 52.8652L14.0118 69.6931L189.731 123.428Z" fill="#D5520C"/>
<path d="M191.403 425.654L193.896 407.051L15.0232 293.247L15.5504 314.085L191.403 425.654Z" fill="#D5520C"/>
<path d="M194.691 98.3212L188.928 93.9184L189.036 714.093L194.768 719.668L194.691 98.3212Z" fill="#F9732B"/>
<path d="M110.659 92.4707L103.97 98.4271L104.996 648.385L111.681 653.973L110.659 92.4707Z" fill="#F9732B"/>
<path d="M191.419 117.502L194.539 98.5477L14.2114 32.1234L14.0989 54.8931L191.419 117.502Z" fill="#F9732B"/>
<path d="M191.371 420.56L193.886 401.972L12.4939 286.564L13.0415 307.416L191.371 420.56Z" fill="#F9732B"/>
<path d="M202.67 726L202.567 671.605L6.63203 579.25L5.60116 623.107L202.67 726Z" fill="#F9732B"/>
<path d="M8.31638 624.427L9.89817 581.094L6.63288 579.888L5 624.492L8.31638 624.427Z" fill="#D5520C"/>
<g filter="url(#filter0_g_198_6)">
<rect y="255" width="9" height="61" rx="3" fill="#FCAB6F"/>
</g>
<ellipse cx="4.5" cy="276" rx="4.5" ry="1" fill="#914F20"/>
<ellipse cx="4.5" cy="307" rx="4.5" ry="1" fill="#914F20"/>
<path d="M4.5 254.5C5.67403 254.5 6.71249 254.765 7.43945 255.169C8.18331 255.582 8.5 256.074 8.5 256.5C8.5 256.926 8.18331 257.418 7.43945 257.831C6.71249 258.235 5.67403 258.5 4.5 258.5C3.32597 258.5 2.28751 258.235 1.56055 257.831C0.816694 257.418 0.5 256.926 0.5 256.5C0.5 256.074 0.816694 255.582 1.56055 255.169C2.28751 254.765 3.32597 254.5 4.5 254.5Z" fill="#B1520E" stroke="#FCAB6F"/>
<rect y="15" width="9" height="23" rx="3" fill="#FCAB6F"/>
<path d="M4.5 14.5C5.67403 14.5 6.71249 14.7651 7.43945 15.1689C8.18331 15.5822 8.5 16.0737 8.5 16.5C8.5 16.9263 8.18331 17.4178 7.43945 17.8311C6.71249 18.2349 5.67403 18.5 4.5 18.5C3.32597 18.5 2.28751 18.2349 1.56055 17.8311C0.816694 17.4178 0.5 16.9263 0.5 16.5C0.5 16.0737 0.816694 15.5822 1.56055 15.1689C2.28751 14.7651 3.32597 14.5 4.5 14.5Z" fill="#914F20" stroke="#FCAB6F"/>
<rect y="591" width="9" height="23" rx="3" fill="#FCAB6F"/>
<path d="M4.5 590.5C5.67403 590.5 6.71249 590.765 7.43945 591.169C8.18331 591.582 8.5 592.074 8.5 592.5C8.5 592.926 8.18331 593.418 7.43945 593.831C6.71249 594.235 5.67403 594.5 4.5 594.5C3.32597 594.5 2.28751 594.235 1.56055 593.831C0.816694 593.418 0.5 592.926 0.5 592.5C0.5 592.074 0.816694 591.582 1.56055 591.169C2.28751 590.765 3.32597 590.5 4.5 590.5Z" fill="#914F20" stroke="#FCAB6F"/>
<defs>
<filter id="filter0_g_198_6" x="0" y="255" width="9" height="61" filterUnits="userSpaceOnUse" color-interpolation-filters="sRGB">
<feFlood flood-opacity="0" result="BackgroundImageFix"/>
<feBlend mode="normal" in="SourceGraphic" in2="BackgroundImageFix" result="shape"/>
<feTurbulence type="fractalNoise" baseFrequency="0.29411762952804565 0.29411762952804565" numOctaves="3" seed="7094" />
<feDisplacementMap in="shape" scale="0" xChannelSelector="R" yChannelSelector="G" result="displacedImage" width="100%" height="100%" />
<feMerge result="effect1_texture_198_6">
<feMergeNode in="displacedImage"/>
</feMerge>
</filter>
<linearGradient id="paint0_linear_198_6" x1="106.956" y1="0" x2="106.956" y2="726" gradientUnits="userSpaceOnUse">
<stop offset="0.5625" stop-color="#9EC9F3"/>
<stop offset="1" stop-color="#516ED4"/>
</linearGradient>
</defs>
</svg>
