<svg width="235" height="323" viewBox="0 0 235 323" fill="none" xmlns="http://www.w3.org/2000/svg">
<rect width="235" height="120" rx="5" fill="white"/>
<path d="M84.4537 190.735C84.4537 197.815 78.1333 203.555 70.3367 203.555C62.5401 203.555 56.2196 197.815 56.2196 190.735C56.2196 183.656 62.5401 177.916 70.3367 177.916C78.1333 177.916 84.4537 183.656 84.4537 190.735Z" fill="white"/>
<path d="M45.7274 213.135C50.7488 199.899 94.5392 199.694 98.0027 213.135C101.466 226.575 102.677 262.256 102.677 262.256L40.3553 270.396C40.3553 270.396 40.706 226.37 45.7274 213.135Z" fill="white"/>
<path d="M36.7271 264.332C42.7504 260.74 43.738 236.737 49.9672 229.614C56.4861 222.16 76.7693 217.508 76.7693 217.508L55.7742 205.577C55.7742 205.577 43.9966 209.384 37.6024 216.463C31.0994 223.663 24.5332 244.506 23.3678 254.974C22.1851 265.597 30.7038 267.924 36.7271 264.332Z" fill="white"/>
<path d="M61.4328 315.973C65.4098 308.99 61.8668 299.862 61.9038 288.887C61.9426 277.401 72.151 253.4 72.151 253.4L41.5933 260.134C41.5933 260.134 38.9712 277.425 37.6025 289.158C36.2927 300.387 34.6777 313.599 39.9498 319.056C45.3003 324.593 57.4559 322.956 61.4328 315.973Z" fill="white"/>
<path d="M82.8914 315.973C78.9145 308.99 82.4575 299.861 82.4205 288.886C82.3816 277.401 73.504 252.786 73.504 252.786L102.731 260.134C102.731 260.134 105.353 277.424 106.722 289.158C108.032 300.387 109.647 313.599 104.375 319.055C99.024 324.593 86.8684 322.956 82.8914 315.973Z" fill="white"/>
<path d="M108.851 163.587C102.269 168.693 104.905 181.286 100.314 191.438C95.5093 202.063 80.5243 214.72 80.5243 214.72L99.6437 222.097C99.6437 222.097 113.867 209.737 118.697 199.537C123.609 189.164 127.358 177.994 124.74 171.136C122.084 164.175 115.434 158.48 108.851 163.587Z" fill="white"/>
<rect x="106.859" y="120" width="15" height="50" fill="#C1C1C1"/>
</svg>
