<svg width="235" height="323" viewBox="0 0 235 323" fill="none" xmlns="http://www.w3.org/2000/svg">
<rect width="235" height="120" rx="5" fill="white"/>
<path d="M84.4537 190.735C84.4537 197.815 78.1333 203.555 70.3367 203.555C62.5401 203.555 56.2196 197.815 56.2196 190.735C56.2196 183.656 62.5401 177.916 70.3367 177.916C78.1333 177.916 84.4537 183.656 84.4537 190.735Z" fill="white"/>
<path d="M45.7274 213.135C50.7488 199.899 94.5392 199.694 98.0027 213.135C101.466 226.575 102.677 262.256 102.677 262.256L40.3553 270.396C40.3553 270.396 40.706 226.37 45.7274 213.135Z" fill="white"/>
<path d="M36.7271 264.332C42.7504 260.74 43.738 236.737 49.9672 229.614C56.4861 222.16 76.7693 217.508 76.7693 217.508L55.7742 205.577C55.7742 205.577 43.9966 209.384 37.6024 216.463C31.0994 223.663 24.5332 244.506 23.3678 254.974C22.1851 265.597 30.7038 267.924 36.7271 264.332Z" fill="white"/>
<path d="M61.4328 315.973C65.4098 308.99 61.8668 299.862 61.9038 288.887C61.9426 277.401 72.151 253.4 72.151 253.4L41.5933 260.134C41.5933 260.134 38.9712 277.425 37.6025 289.158C36.2927 300.387 34.6777 313.599 39.9498 319.056C45.3003 324.593 57.4559 322.956 61.4328 315.973Z" fill="white"/>
<path d="M82.8914 315.973C78.9145 308.99 82.4575 299.861 82.4205 288.886C82.3816 277.401 73.504 252.786 73.504 252.786L102.731 260.134C102.731 260.134 105.353 277.424 106.722 289.158C108.032 300.387 109.647 313.599 104.375 319.055C99.024 324.593 86.8684 322.956 82.8914 315.973Z" fill="white"/>
<path d="M108.851 163.587C102.269 168.693 104.905 181.286 100.314 191.438C95.5093 202.063 80.5243 214.72 80.5243 214.72L99.6437 222.097C99.6437 222.097 113.867 209.737 118.697 199.537C123.609 189.164 127.358 177.994 124.74 171.136C122.084 164.175 115.434 158.48 108.851 163.587Z" fill="white"/>
<rect x="106.859" y="120" width="15" height="50" fill="#C1C1C1"/>
<path d="M85.6484 38C85.9512 36.8818 86.2856 35.7466 86.6519 34.5942C87.0181 33.4419 87.4722 32.0649 88.0142 30.4634C88.561 28.8569 88.9346 27.7461 89.1348 27.1309C89.1934 27.0332 89.2324 26.9746 89.252 26.9551H90.4824C90.7705 26.9551 91.1953 26.9502 91.7568 26.9404C92.3184 26.9307 92.7432 26.9258 93.0312 26.9258H94.2617C94.335 26.9258 94.396 26.9282 94.4448 26.9331C94.4937 26.9331 94.5522 26.938 94.6206 26.9478C94.689 26.9575 94.7427 26.9722 94.7817 26.9917C94.8257 27.0112 94.8623 27.0405 94.8916 27.0796C94.9209 27.1187 94.9355 27.165 94.9355 27.2188L98.312 37.9194C98.312 38.0171 98.2754 38.083 98.2021 38.1172C98.1338 38.1562 98.002 38.1758 97.8066 38.1758H97.1328C96.9375 38.1758 96.647 38.1782 96.2612 38.1831C95.8755 38.188 95.585 38.1904 95.3896 38.1904C95.3311 38.1904 95.2114 38.1929 95.0308 38.1978C94.855 38.2075 94.7061 38.21 94.584 38.2051C94.4619 38.2051 94.3252 38.1978 94.1738 38.1831C94.0273 38.1733 93.9077 38.1465 93.8149 38.1025C93.7271 38.0635 93.6709 38.0098 93.6465 37.9414V37.458C93.5977 37.2139 93.5122 36.9893 93.3901 36.7842C93.2681 36.5791 93.1387 36.4766 93.002 36.4766H90.4824L90.1016 38.0293C90.0479 38.1465 89.7744 38.2051 89.2812 38.2051H88.6953C88.4854 38.2051 88.1729 38.2124 87.7578 38.2271C87.3428 38.2417 87.0303 38.249 86.8203 38.249H86.6152C86.5371 38.249 86.4126 38.2515 86.2417 38.2563C86.0757 38.2612 85.9463 38.2637 85.8535 38.2637C85.8145 38.2246 85.7461 38.1367 85.6484 38ZM90.7314 33.5542L90.9365 33.8984H91.4199C91.8105 33.8984 92.167 33.8765 92.4893 33.8325C92.8164 33.7837 92.98 33.708 92.98 33.6055L92.0352 29.3867C91.9473 29.3867 91.8276 29.5527 91.6763 29.8848C91.5298 30.2168 91.4102 30.5928 91.3174 31.0127L90.7314 33.5542ZM98.9053 37.707L98.7515 32.8291C98.7515 32.4922 98.7563 32.1113 98.7661 31.6865C98.7759 31.2617 98.7881 30.8784 98.8027 30.5366C98.8174 30.1948 98.8296 29.8066 98.8394 29.3721C98.854 28.9375 98.8613 28.542 98.8613 28.1855C98.8613 28.0879 98.8931 28.0269 98.9565 28.0024C99.0249 27.9731 99.1079 27.9634 99.2056 27.9731C99.3081 27.9829 99.4229 27.9756 99.5498 27.9512H104.794C105.092 27.9512 105.39 27.9902 105.688 28.0684C105.985 28.1416 106.276 28.2637 106.559 28.4346C106.847 28.6006 107.099 28.8057 107.313 29.0498C107.533 29.2891 107.709 29.5894 107.841 29.9507C107.978 30.312 108.046 30.71 108.046 31.1445C108.046 31.7207 107.924 32.2334 107.68 32.6826C107.436 33.127 107.069 33.5469 106.581 33.9424C105.98 34.2549 105.258 34.4355 104.413 34.4844H104.179C103.983 34.5234 103.788 34.543 103.593 34.543H103.007C102.978 34.543 102.953 34.5479 102.934 34.5576C102.934 35.8369 102.953 36.8037 102.992 37.458C102.968 37.5557 102.914 37.6216 102.831 37.6558C102.753 37.6899 102.616 37.707 102.421 37.707H98.9053ZM102.567 32.1113V32.2432C102.572 32.248 102.604 32.2651 102.663 32.2944C102.726 32.3188 102.758 32.3359 102.758 32.3457V32.3604C102.748 32.3604 102.743 32.3506 102.743 32.3311C102.753 32.3408 102.782 32.3457 102.831 32.3457C103.266 32.3457 103.632 32.248 103.93 32.0527C104.232 31.8574 104.384 31.5547 104.384 31.1445C104.384 30.959 104.352 30.8003 104.289 30.6685C104.225 30.5366 104.147 30.4365 104.054 30.3682C103.966 30.2949 103.844 30.2412 103.688 30.207C103.537 30.168 103.397 30.1436 103.271 30.1338C103.144 30.124 102.982 30.1191 102.787 30.1191C102.782 30.124 102.763 30.1411 102.729 30.1704C102.694 30.1997 102.67 30.2217 102.655 30.2363V30.998C102.597 31.4668 102.567 31.8379 102.567 32.1113ZM108.822 27.9219H110.185C110.604 27.9219 111.276 27.9121 112.199 27.8926C113.122 27.873 113.812 27.8633 114.271 27.8633C114.667 27.8633 115.036 27.8853 115.377 27.9292C115.724 27.9731 116.063 28.0537 116.396 28.1709C116.732 28.2881 117.018 28.437 117.252 28.6177C117.492 28.7983 117.685 29.0376 117.831 29.3354C117.978 29.6284 118.051 29.9678 118.051 30.3535C118.051 30.8857 117.926 31.3398 117.677 31.7158C117.428 32.0918 117.045 32.4092 116.527 32.668C116.732 32.7559 116.911 32.8706 117.062 33.0122C117.213 33.1538 117.328 33.2759 117.406 33.3784C117.489 33.481 117.567 33.6543 117.641 33.8984C117.719 34.1377 117.765 34.2964 117.78 34.3745C117.794 34.4478 117.826 34.6333 117.875 34.9312C117.89 34.9995 117.899 35.0508 117.904 35.085C117.924 35.2803 118.007 35.6392 118.153 36.1616C118.3 36.6792 118.373 37.0771 118.373 37.3555C118.373 37.5312 118.319 37.6191 118.212 37.6191C117.919 37.6191 117.475 37.6216 116.879 37.6265C116.288 37.6313 115.849 37.6338 115.561 37.6338C115.443 37.624 115.268 37.6191 115.033 37.6191H114.535C114.438 37.5898 114.342 37.4385 114.25 37.165C114.157 36.8916 114.091 36.584 114.052 36.2422L113.891 34.9385C113.861 34.8311 113.837 34.7554 113.817 34.7114C113.803 34.6626 113.773 34.6064 113.729 34.543C113.686 34.4746 113.625 34.4282 113.546 34.4038C113.473 34.3794 113.378 34.3672 113.261 34.3672H112.924V37.2969C112.924 37.3115 112.924 37.3359 112.924 37.3701C112.924 37.3994 112.924 37.4214 112.924 37.436C112.924 37.4458 112.924 37.4629 112.924 37.4873C112.924 37.5117 112.921 37.5312 112.917 37.5459C112.912 37.5557 112.907 37.5703 112.902 37.5898C112.897 37.6094 112.89 37.624 112.88 37.6338C112.875 37.6387 112.865 37.6484 112.851 37.6631C112.841 37.6729 112.826 37.6802 112.807 37.6851C112.792 37.6899 112.772 37.6948 112.748 37.6997C112.729 37.7046 112.704 37.707 112.675 37.707H108.822V27.9219ZM112.968 31.7891C112.978 31.7988 112.992 31.8208 113.012 31.855C113.031 31.8843 113.051 31.9087 113.07 31.9282C113.09 31.9478 113.109 31.96 113.129 31.9648C113.275 31.9648 113.422 31.9502 113.568 31.9209C113.715 31.8867 113.864 31.833 114.015 31.7598C114.171 31.6865 114.296 31.5742 114.389 31.4229C114.486 31.2715 114.535 31.0908 114.535 30.8809C114.535 30.373 114.047 30.1191 113.07 30.1191C112.973 30.1436 112.924 30.1826 112.924 30.2363V30.5146C112.924 30.6562 112.931 30.8687 112.946 31.1519C112.96 31.4351 112.968 31.6475 112.968 31.7891ZM118.944 37.7217V28.0977C118.949 28.0586 118.988 28.0244 119.062 27.9951C119.135 27.9609 119.179 27.9365 119.193 27.9219H123.134V37.458C123.109 37.5605 123.085 37.6313 123.061 37.6704C123.041 37.7046 123.007 37.7217 122.958 37.7217H118.944ZM124.643 37.707C124.628 37.6875 124.604 37.6655 124.569 37.6411C124.54 37.6167 124.506 37.5703 124.467 37.502V34.3379C124.467 33.9229 124.484 33.2856 124.518 32.4263C124.552 31.5669 124.569 30.915 124.569 30.4707C124.569 30.373 124.56 30.1655 124.54 29.8481C124.521 29.5308 124.511 29.2793 124.511 29.0938C124.511 28.4053 124.594 27.9854 124.76 27.834C125.775 27.8535 126.532 27.8633 127.03 27.8633H127.733C127.899 27.8633 128.026 27.8682 128.114 27.8779C128.124 27.8682 128.148 27.8633 128.188 27.8633C128.197 27.8633 128.239 27.8682 128.312 27.8779C128.39 27.8877 128.451 27.8926 128.495 27.8926C128.617 27.9072 128.72 28.0098 128.803 28.2002V28.3027C128.803 28.3564 128.8 28.4346 128.795 28.5371C128.791 28.6396 128.788 28.7178 128.788 28.7715V29.0938C128.783 29.1182 128.751 29.1621 128.693 29.2256C128.639 29.2842 128.612 29.333 128.612 29.3721V34.7188H131.718C131.796 34.7188 131.854 34.7212 131.894 34.7261C131.933 34.731 131.972 34.7529 132.011 34.792C132.05 34.8311 132.069 34.8896 132.069 34.9678V37.4141C132.03 37.6094 131.796 37.707 131.366 37.707H124.643ZM136.566 36.1836V33.9863C136.566 33.8594 136.586 33.7178 136.625 33.5615C136.659 33.4053 136.696 33.271 136.735 33.1587C136.774 33.0464 136.84 32.8999 136.933 32.7192C137.025 32.5337 137.091 32.4043 137.13 32.3311C137.174 32.2578 137.255 32.1235 137.372 31.9282C137.489 31.728 137.553 31.6182 137.562 31.5986C137.841 31.1543 138.29 30.4146 138.91 29.3794C139.535 28.3442 140.014 27.5654 140.346 27.043H145.854V27.5117C145.854 27.9658 145.844 28.6421 145.824 29.5405C145.805 30.439 145.795 31.1152 145.795 31.5693V31.9062C145.795 32.0625 145.8 32.1797 145.81 32.2578V32.3164C145.81 32.4238 145.805 32.502 145.795 32.5508V32.8145C145.795 33.1758 145.902 33.3564 146.117 33.3564C146.181 33.3564 146.283 33.354 146.425 33.3491C146.566 33.3442 146.669 33.3418 146.732 33.3418C146.894 33.3418 146.996 33.3687 147.04 33.4224C147.089 33.4712 147.113 33.5908 147.113 33.7812C147.113 33.8008 147.104 33.8105 147.084 33.8105C147.084 33.835 147.086 33.9399 147.091 34.1255C147.101 34.3062 147.108 34.5308 147.113 34.7993C147.123 35.063 147.128 35.3096 147.128 35.5391C147.128 35.8857 147.111 36.125 147.077 36.2568C147.047 36.3838 146.981 36.4473 146.879 36.4473H145.854C145.873 37.0527 145.883 37.4922 145.883 37.7656C145.883 37.873 145.878 37.9512 145.868 38C145.863 38.0439 145.839 38.0854 145.795 38.1245C145.751 38.1685 145.683 38.1953 145.59 38.2051H144.169C142.997 38.2051 142.206 38.2197 141.796 38.249L141.547 37.9414V36.3447H137.035C137.006 36.3447 136.967 36.3472 136.918 36.3521C136.874 36.3569 136.84 36.3594 136.815 36.3594C136.791 36.3545 136.762 36.3496 136.728 36.3447C136.693 36.335 136.664 36.3179 136.64 36.2935C136.615 36.2642 136.591 36.2275 136.566 36.1836ZM139.599 33.4004V33.5908C139.604 33.6201 139.63 33.6567 139.679 33.7007C139.733 33.7446 139.765 33.7715 139.774 33.7812C139.994 33.7812 140.341 33.7739 140.814 33.7593C141.293 33.7446 141.64 33.7373 141.854 33.7373C141.957 33.6934 142.03 33.6055 142.074 33.4736V33.1953C142.064 33.1465 142.06 33.0586 142.06 32.9316V32.7559C142.064 32.6436 142.067 32.4922 142.067 32.3018C142.072 32.1113 142.074 31.9258 142.074 31.7451C142.074 30.3486 141.977 29.6504 141.781 29.6504V29.7676C141.566 30.1436 141.208 30.7368 140.705 31.5474C140.202 32.3579 139.833 32.9756 139.599 33.4004ZM147.025 30.5879V27.9512H155.551C155.629 27.9658 155.678 27.9976 155.697 28.0464C155.717 28.0903 155.727 28.1562 155.727 28.2441V30.5879C155.717 30.7051 155.648 30.7637 155.521 30.7637H153.441V37.502C153.441 37.5068 153.439 37.519 153.434 37.5386C153.429 37.5581 153.427 37.5703 153.427 37.5752C153.427 37.5801 153.424 37.5898 153.419 37.6045C153.415 37.6191 153.41 37.6289 153.405 37.6338C153.4 37.6387 153.395 37.6484 153.39 37.6631C153.385 37.6729 153.378 37.6802 153.368 37.6851C153.363 37.6851 153.354 37.6899 153.339 37.6997C153.329 37.7046 153.317 37.7095 153.302 37.7144C153.292 37.7192 153.278 37.7241 153.258 37.729C153.244 37.729 153.227 37.7314 153.207 37.7363H152.738C152.113 37.7363 151.801 37.7168 151.801 37.6777C151.762 37.6777 151.703 37.6802 151.625 37.6851C151.547 37.6899 151.488 37.6924 151.449 37.6924H150.863C150.751 37.6924 150.59 37.6948 150.38 37.6997C150.175 37.7046 150.014 37.707 149.896 37.707H149.486L149.193 37.502V35.9199C149.198 35.6367 149.218 35.0312 149.252 34.1035C149.291 33.1758 149.311 32.4434 149.311 31.9062V31.7158C149.311 31.6768 149.313 31.6157 149.318 31.5327C149.323 31.4497 149.325 31.3887 149.325 31.3496C149.325 31.3057 149.323 31.2178 149.318 31.0859C149.313 30.9492 149.311 30.8613 149.311 30.8223H147.479C147.372 30.8223 147.27 30.8052 147.172 30.771C147.074 30.7319 147.025 30.6709 147.025 30.5879ZM165.775 28.2295V37.2383C165.775 37.3408 165.771 37.4238 165.761 37.4873C165.756 37.5459 165.736 37.6021 165.702 37.6558C165.668 37.7095 165.619 37.7363 165.556 37.7363H161.82V37.5752C161.811 37.5654 161.771 37.5435 161.703 37.5093C161.64 37.4751 161.601 37.4434 161.586 37.4141V34.4551C161.586 34.3477 161.576 34.2866 161.557 34.272C161.542 34.2573 161.474 34.25 161.352 34.25H160.854C160.736 34.25 160.6 34.2598 160.443 34.2793V37.4434C160.424 37.5312 160.385 37.5874 160.326 37.6118C160.272 37.6362 160.189 37.6484 160.077 37.6484H159.74C159.511 37.6484 159.149 37.6533 158.656 37.6631C158.168 37.6729 157.797 37.6777 157.543 37.6777H156.576C156.366 37.6777 156.261 37.5605 156.261 37.3262L156.305 28.0977C156.305 28.0732 156.312 28.0537 156.327 28.0391C156.342 28.0195 156.371 27.9951 156.415 27.9658C156.459 27.9316 156.483 27.9121 156.488 27.9072H160.429V31.0566H161.703V27.834H165.438C165.556 27.834 165.641 27.8608 165.695 27.9146C165.749 27.9683 165.775 28.0732 165.775 28.2295Z" fill="#516ED4"/>
<path d="M90.5996 62.1582C90.6143 62.2412 90.6289 62.3047 90.6436 62.3486C90.6582 62.3877 90.6826 62.4316 90.7168 62.4805C90.7559 62.5293 90.8071 62.5635 90.8706 62.583C90.939 62.6025 91.0244 62.6123 91.127 62.6123C91.2588 62.6123 91.376 62.5879 91.4785 62.5391C91.5811 62.4902 91.6665 62.4341 91.7349 62.3706C91.8032 62.3022 91.8618 62.207 91.9106 62.085C91.9644 61.958 92.0034 61.8506 92.0278 61.7627C92.0571 61.6748 92.0815 61.5503 92.1011 61.3892C92.1255 61.228 92.1401 61.1108 92.145 61.0376C92.1499 60.9644 92.1572 60.8496 92.167 60.6934C91.6445 61.0059 91.0342 61.1621 90.3359 61.1621C89.9355 61.1621 89.5474 61.123 89.1714 61.0449C88.7954 60.9668 88.4316 60.8398 88.0801 60.6641C87.7334 60.4883 87.4282 60.2734 87.1646 60.0195C86.9058 59.7656 86.6982 59.4482 86.542 59.0674C86.3857 58.6816 86.3076 58.2568 86.3076 57.793C86.3076 57.2266 86.4028 56.7114 86.5933 56.2476C86.7886 55.7837 87.0474 55.3979 87.3696 55.0903C87.6919 54.7827 88.0679 54.5239 88.4976 54.314C88.9272 54.104 89.3691 53.9526 89.8232 53.8599C90.2773 53.7671 90.7412 53.7207 91.2148 53.7207C92.0059 53.7207 92.7236 53.8574 93.3682 54.1309C94.0127 54.4043 94.5474 54.7876 94.9722 55.2808C95.4019 55.769 95.7314 56.355 95.9609 57.0386C96.1953 57.7173 96.3125 58.4619 96.3125 59.2725C96.3125 61.1084 95.9365 62.5488 95.1846 63.5938C94.9258 63.9795 94.5986 64.3066 94.2031 64.5752C93.8125 64.8389 93.3901 65.0342 92.936 65.1611C92.4868 65.2881 92.0669 65.376 91.6763 65.4248C91.2905 65.4736 90.8926 65.498 90.4824 65.498C89.3789 65.498 88.4902 65.2051 87.8164 64.6191C87.46 64.3506 87.1938 63.9941 87.0181 63.5498C86.8472 63.1055 86.7617 62.6367 86.7617 62.1436L87.0254 61.8213H90.3359C90.4189 61.8213 90.4824 61.8555 90.5264 61.9238C90.5752 61.9922 90.5996 62.0703 90.5996 62.1582ZM89.8086 57.7637C89.8477 58.2178 89.9648 58.5669 90.1602 58.811C90.3604 59.0503 90.6631 59.1699 91.0684 59.1699C91.8496 59.1699 92.2402 58.6816 92.2402 57.7051C92.2402 57.4854 92.2231 57.29 92.189 57.1191C92.1597 56.9482 92.1035 56.7847 92.0205 56.6284C91.9424 56.4673 91.8228 56.3428 91.6616 56.2549C91.5005 56.167 91.3027 56.123 91.0684 56.123C90.8389 56.123 90.6387 56.1719 90.4678 56.2695C90.2969 56.3623 90.165 56.4917 90.0723 56.6577C89.9795 56.8188 89.9111 56.9922 89.8672 57.1777C89.8281 57.3584 89.8086 57.5537 89.8086 57.7637ZM100.707 63.1836C100.673 63.2959 100.639 63.4448 100.604 63.6304C100.575 63.811 100.546 63.9551 100.517 64.0625C100.492 64.165 100.448 64.2749 100.385 64.3921C100.321 64.5044 100.224 64.5874 100.092 64.6411C99.9648 64.6948 99.7988 64.7217 99.5938 64.7217H96.4297V64.4727C96.6885 63.6963 97.0645 62.5049 97.5576 60.8984C98.0557 59.292 98.4414 58.0762 98.7148 57.251V57.2656C98.8809 56.792 99.125 56.0498 99.4473 55.0391C99.4521 55.0293 99.4595 55.0171 99.4692 55.0024C99.5132 54.9292 99.5547 54.873 99.5938 54.834L103.549 54.8633C104.223 54.8633 104.594 54.9219 104.662 55.0391V55.2295C104.672 55.2734 104.726 55.3857 104.823 55.5664C105.297 57.0166 105.644 58.0713 105.863 58.7305V58.8184C105.883 58.96 105.927 59.1211 105.995 59.3018C106.063 59.4824 106.144 59.6777 106.237 59.8877C106.334 60.0928 106.403 60.2539 106.442 60.3711L106.735 61.4258C106.906 61.9922 107.157 62.749 107.489 63.6963V63.6816V63.8281C107.504 63.8965 107.541 63.9893 107.599 64.1064C107.658 64.2236 107.694 64.3066 107.709 64.3555C107.709 64.4922 107.68 64.5801 107.621 64.6191C107.567 64.6582 107.46 64.6777 107.299 64.6777H103.9C103.817 64.668 103.764 64.6606 103.739 64.6558C103.715 64.6509 103.676 64.6411 103.622 64.6265C103.573 64.6118 103.537 64.5923 103.512 64.5679C103.493 64.5435 103.48 64.5117 103.476 64.4727L103.197 63.3594C103.178 63.2666 103.158 63.2153 103.139 63.2056C103.119 63.1909 103.061 63.1836 102.963 63.1836H100.707ZM101.059 60.5762V60.6055V60.5762ZM102.67 59.6973C102.641 59.5605 102.597 59.3408 102.538 59.0381C102.484 58.7305 102.431 58.4644 102.377 58.2397C102.323 58.0103 102.265 57.7979 102.201 57.6025V57.251C102.162 57.1484 102.094 57.0752 101.996 57.0312V57.0459C101.879 57.0703 101.762 57.3975 101.645 58.0273V58.3789C101.635 58.4131 101.613 58.4448 101.579 58.4741C101.544 58.5034 101.527 58.5205 101.527 58.5254C101.366 59.2383 101.234 59.8145 101.132 60.2539C101.132 60.3027 101.12 60.3882 101.095 60.5103C101.071 60.6323 101.059 60.7031 101.059 60.7227H102.875C102.875 60.5957 102.831 60.3662 102.743 60.0342V59.873C102.738 59.8584 102.724 59.8315 102.699 59.7925C102.68 59.7485 102.67 59.7168 102.67 59.6973ZM113.524 54.9512C113.559 54.9414 113.612 54.9341 113.686 54.9292C113.764 54.9194 113.812 54.9121 113.832 54.9072L114.704 59.3677L115.846 54.8926H120.995C121.132 54.8926 121.2 55.1807 121.2 55.7568V64.3848C121.19 64.4629 121.168 64.5264 121.134 64.5752C121.1 64.624 121.049 64.6582 120.98 64.6777C120.917 64.6924 120.866 64.7021 120.827 64.707C120.792 64.707 120.731 64.707 120.644 64.707C120.336 64.707 119.867 64.7119 119.237 64.7217C118.612 64.7314 118.144 64.7363 117.831 64.7363C117.587 64.585 117.465 64.0234 117.465 63.0518C117.465 62.8076 117.47 62.4902 117.479 62.0996C117.489 61.7041 117.494 61.4111 117.494 61.2207V60.5762C117.494 60.542 117.492 60.4883 117.487 60.415C117.482 60.3369 117.479 60.2783 117.479 60.2393C117.479 60.0732 117.489 59.8047 117.509 59.4336V59.9902C117.44 60.2783 117.309 60.7178 117.113 61.3086C116.918 61.8994 116.786 62.3389 116.718 62.627L116.278 64.502C116.2 64.6387 115.956 64.707 115.546 64.707C115.346 64.707 115.084 64.7021 114.762 64.6924C114.445 64.6826 114.203 64.6777 114.037 64.6777C113.988 64.6777 113.905 64.6802 113.788 64.6851C113.671 64.6899 113.598 64.6924 113.568 64.6924C113.412 64.6924 113.3 64.6729 113.231 64.6338C113.163 64.5947 113.114 64.5166 113.085 64.3994C112.626 62.3633 112.309 60.9229 112.133 60.0781L111.869 58.8184C111.801 60.2393 111.767 61.7432 111.767 63.3301V64.6191H108.31C108.31 64.5898 108.317 64.5264 108.332 64.4287C108.346 64.3311 108.354 64.2773 108.354 64.2676C108.314 63.3301 108.295 62.1729 108.295 60.7959C108.295 60.3809 108.292 59.8291 108.288 59.1406C108.283 58.4473 108.28 57.9688 108.28 57.7051V55.1123C108.28 55.0488 108.29 55.0024 108.31 54.9731C108.329 54.939 108.378 54.8926 108.456 54.834H109.13C109.374 54.834 109.55 54.8291 109.657 54.8193C110.15 54.8193 110.749 54.8413 111.452 54.8853C112.16 54.9292 112.602 54.9512 112.777 54.9512H113.524ZM117.509 59.3896V59.375V59.3896ZM126.737 62.3633V60.2979C126.737 59.7998 126.815 59.5508 126.972 59.5508C128.817 59.5508 130.214 59.5459 131.161 59.5361C131.396 59.5361 131.571 59.541 131.688 59.5508H132.187C132.323 59.5752 132.392 59.9023 132.392 60.5322V62.0996C132.372 62.2754 132.304 62.3633 132.187 62.3633C131.596 62.3633 130.724 62.3877 129.572 62.4365C128.424 62.4854 127.567 62.5098 127.001 62.5098V62.3633H126.737ZM137.768 62.0703C137.768 61.9629 137.841 61.8921 137.987 61.8579C138.139 61.8237 138.358 61.8066 138.646 61.8066H139.848C140.062 61.8066 140.38 61.814 140.8 61.8286C141.22 61.8433 141.547 61.8506 141.781 61.8506C141.864 61.8604 141.925 61.9067 141.964 61.9897C142.008 62.0728 142.038 62.1606 142.052 62.2534C142.067 62.3462 142.106 62.4316 142.169 62.5098C142.233 62.5879 142.328 62.627 142.455 62.627C142.943 62.627 143.188 62.2168 143.188 61.3965C143.188 61.2207 143.18 61.0693 143.166 60.9424C143.151 60.8105 143.122 60.6738 143.078 60.5322C143.034 60.3906 142.96 60.2832 142.858 60.21C142.76 60.1318 142.636 60.0928 142.484 60.0928C142.309 60.0928 142.179 60.1367 142.096 60.2246C142.018 60.3125 141.977 60.4102 141.972 60.5176C141.967 60.625 141.94 60.7227 141.891 60.8105C141.842 60.8984 141.757 60.9424 141.635 60.9424H138.383C138.236 60.7324 138.163 60.4346 138.163 60.0488V54.585C138.163 54.4629 138.166 54.3726 138.17 54.314C138.175 54.2505 138.19 54.1772 138.214 54.0942C138.244 54.0112 138.285 53.9404 138.339 53.8818H146.396C146.498 53.8818 146.593 53.9038 146.681 53.9478C146.774 53.9917 146.83 54.0527 146.85 54.1309V55.5518C146.85 55.5859 146.85 55.6348 146.85 55.6982C146.85 56.2305 146.835 56.5503 146.806 56.6577C146.781 56.7603 146.693 56.8115 146.542 56.8115C145.487 56.8115 143.944 56.8213 141.913 56.8408C141.898 56.9873 141.881 57.2095 141.862 57.5073C141.842 57.8052 141.825 58.0273 141.811 58.1738C142.055 57.998 142.367 57.8613 142.748 57.7637C143.129 57.666 143.505 57.6172 143.876 57.6172C144.96 57.6172 145.829 57.9492 146.483 58.6133C147.138 59.2725 147.465 60.1221 147.465 61.1621C147.465 61.7773 147.367 62.3315 147.172 62.8247C146.981 63.3179 146.728 63.7231 146.41 64.0405C146.093 64.3579 145.717 64.624 145.282 64.8389C144.853 65.0488 144.411 65.1978 143.957 65.2856C143.502 65.3784 143.031 65.4248 142.543 65.4248C142.216 65.4248 141.908 65.4126 141.62 65.3882C141.337 65.3638 141.039 65.3198 140.727 65.2563C140.414 65.1929 140.128 65.1074 139.87 65C139.611 64.8975 139.357 64.7607 139.108 64.5898C138.864 64.4141 138.651 64.2139 138.471 63.9893C138.295 63.7598 138.144 63.4814 138.017 63.1543C137.89 62.8271 137.807 62.4658 137.768 62.0703ZM148.783 64.707L148.629 59.8291C148.629 59.4922 148.634 59.1113 148.644 58.6865C148.654 58.2617 148.666 57.8784 148.681 57.5366C148.695 57.1948 148.708 56.8066 148.717 56.3721C148.732 55.9375 148.739 55.542 148.739 55.1855C148.739 55.0879 148.771 55.0269 148.834 55.0024C148.903 54.9731 148.986 54.9634 149.083 54.9731C149.186 54.9829 149.301 54.9756 149.428 54.9512H154.672C154.97 54.9512 155.268 54.9902 155.565 55.0684C155.863 55.1416 156.154 55.2637 156.437 55.4346C156.725 55.6006 156.977 55.8057 157.191 56.0498C157.411 56.2891 157.587 56.5894 157.719 56.9507C157.855 57.312 157.924 57.71 157.924 58.1445C157.924 58.7207 157.802 59.2334 157.558 59.6826C157.313 60.127 156.947 60.5469 156.459 60.9424C155.858 61.2549 155.136 61.4355 154.291 61.4844H154.057C153.861 61.5234 153.666 61.543 153.471 61.543H152.885C152.855 61.543 152.831 61.5479 152.812 61.5576C152.812 62.8369 152.831 63.8037 152.87 64.458C152.846 64.5557 152.792 64.6216 152.709 64.6558C152.631 64.6899 152.494 64.707 152.299 64.707H148.783ZM152.445 59.1113V59.2432C152.45 59.248 152.482 59.2651 152.541 59.2944C152.604 59.3188 152.636 59.3359 152.636 59.3457V59.3604C152.626 59.3604 152.621 59.3506 152.621 59.3311C152.631 59.3408 152.66 59.3457 152.709 59.3457C153.144 59.3457 153.51 59.248 153.808 59.0527C154.11 58.8574 154.262 58.5547 154.262 58.1445C154.262 57.959 154.23 57.8003 154.167 57.6685C154.103 57.5366 154.025 57.4365 153.932 57.3682C153.844 57.2949 153.722 57.2412 153.566 57.207C153.415 57.168 153.275 57.1436 153.148 57.1338C153.021 57.124 152.86 57.1191 152.665 57.1191C152.66 57.124 152.641 57.1411 152.606 57.1704C152.572 57.1997 152.548 57.2217 152.533 57.2363V57.998C152.475 58.4668 152.445 58.8379 152.445 59.1113ZM164.032 54.9512C164.066 54.9414 164.12 54.9341 164.193 54.9292C164.271 54.9194 164.32 54.9121 164.34 54.9072L165.211 59.3677L166.354 54.8926H171.503C171.64 54.8926 171.708 55.1807 171.708 55.7568V64.3848C171.698 64.4629 171.676 64.5264 171.642 64.5752C171.608 64.624 171.557 64.6582 171.488 64.6777C171.425 64.6924 171.374 64.7021 171.334 64.707C171.3 64.707 171.239 64.707 171.151 64.707C170.844 64.707 170.375 64.7119 169.745 64.7217C169.12 64.7314 168.651 64.7363 168.339 64.7363C168.095 64.585 167.973 64.0234 167.973 63.0518C167.973 62.8076 167.978 62.4902 167.987 62.0996C167.997 61.7041 168.002 61.4111 168.002 61.2207V60.5762C168.002 60.542 168 60.4883 167.995 60.415C167.99 60.3369 167.987 60.2783 167.987 60.2393C167.987 60.0732 167.997 59.8047 168.017 59.4336V59.9902C167.948 60.2783 167.816 60.7178 167.621 61.3086C167.426 61.8994 167.294 62.3389 167.226 62.627L166.786 64.502C166.708 64.6387 166.464 64.707 166.054 64.707C165.854 64.707 165.592 64.7021 165.27 64.6924C164.953 64.6826 164.711 64.6777 164.545 64.6777C164.496 64.6777 164.413 64.6802 164.296 64.6851C164.179 64.6899 164.105 64.6924 164.076 64.6924C163.92 64.6924 163.808 64.6729 163.739 64.6338C163.671 64.5947 163.622 64.5166 163.593 64.3994C163.134 62.3633 162.816 60.9229 162.641 60.0781L162.377 58.8184C162.309 60.2393 162.274 61.7432 162.274 63.3301V64.6191H158.817C158.817 64.5898 158.825 64.5264 158.839 64.4287C158.854 64.3311 158.861 64.2773 158.861 64.2676C158.822 63.3301 158.803 62.1729 158.803 60.7959C158.803 60.3809 158.8 59.8291 158.795 59.1406C158.791 58.4473 158.788 57.9688 158.788 57.7051V55.1123C158.788 55.0488 158.798 55.0024 158.817 54.9731C158.837 54.939 158.886 54.8926 158.964 54.834H159.638C159.882 54.834 160.058 54.8291 160.165 54.8193C160.658 54.8193 161.256 54.8413 161.959 54.8853C162.667 54.9292 163.109 54.9512 163.285 54.9512H164.032ZM168.017 59.3896V59.375V59.3896Z" fill="#516ED4"/>
<path d="M91.332 93.4395C90.7559 93.415 90.2383 93.3638 89.7793 93.2856C89.3203 93.2124 88.876 93.0928 88.4463 92.9268C88.0215 92.7559 87.6626 92.5435 87.3696 92.2896C87.0815 92.0308 86.8398 91.7012 86.6445 91.3008C86.4541 90.9004 86.3369 90.4365 86.293 89.9092C86.293 89.8164 86.3418 89.7627 86.4395 89.748C86.4688 89.7578 86.5176 89.7627 86.5859 89.7627C86.9912 89.7627 87.6064 89.7529 88.4316 89.7334C89.2568 89.7139 89.8721 89.7041 90.2773 89.7041C90.3799 89.7041 90.4604 89.7383 90.519 89.8066C90.5776 89.8701 90.624 89.9507 90.6582 90.0483C90.6973 90.1411 90.7412 90.2363 90.79 90.334C90.8438 90.4268 90.9316 90.5073 91.0537 90.5757C91.1807 90.6392 91.3418 90.6709 91.5371 90.6709C91.7764 90.6709 91.9863 90.605 92.167 90.4731C92.3525 90.3364 92.4453 90.1533 92.4453 89.9238C92.4453 89.7725 92.3672 89.6333 92.2109 89.5063C92.0547 89.3794 91.8472 89.2769 91.5884 89.1987C91.3345 89.1157 91.0903 89.0474 90.856 88.9937C90.6265 88.9351 90.3896 88.8862 90.1455 88.8472C89.9014 88.8032 89.7598 88.7764 89.7207 88.7666C88.5342 88.4443 87.6797 88.0439 87.1572 87.5654C86.6396 87.0869 86.3809 86.4326 86.3809 85.6025C86.3809 85.0166 86.4883 84.4917 86.7031 84.0278C86.918 83.5591 87.1987 83.1782 87.5454 82.8853C87.8921 82.5874 88.3022 82.3408 88.7759 82.1455C89.2495 81.9453 89.728 81.8062 90.2114 81.728C90.6948 81.645 91.1953 81.6035 91.7129 81.6035C93.085 81.6035 94.1787 81.8574 94.9941 82.3652C95.292 82.6631 95.5093 82.8901 95.646 83.0464C95.7876 83.1978 95.9219 83.376 96.0488 83.5811C96.1807 83.7861 96.271 83.9888 96.3198 84.189C96.3735 84.3843 96.4102 84.626 96.4297 84.9141L96.166 85.1777C95.165 85.2168 94.042 85.2363 92.7969 85.2363C92.6406 85.2363 92.5137 85.2192 92.416 85.1851C92.3232 85.1509 92.2598 85.1069 92.2256 85.0532C92.1963 84.9995 92.1646 84.9434 92.1304 84.8848C92.1011 84.8262 92.0718 84.77 92.0425 84.7163C92.0181 84.6626 91.9619 84.6187 91.874 84.5845C91.791 84.5503 91.6787 84.5332 91.5371 84.5332C91.498 84.5332 91.4346 84.5405 91.3467 84.5552C91.2637 84.5698 91.1636 84.5942 91.0464 84.6284C90.9341 84.6577 90.8364 84.7065 90.7534 84.7749C90.6704 84.8384 90.6289 84.9141 90.6289 85.002C90.6289 85.1094 90.6826 85.207 90.79 85.2949C90.9023 85.3828 91.0195 85.4463 91.1416 85.4854C91.2637 85.5244 91.415 85.5684 91.5957 85.6172C91.7764 85.6611 91.8887 85.6904 91.9326 85.7051C92.9971 85.9736 93.6318 86.1396 93.8369 86.2031C94.9062 86.54 95.6631 86.9819 96.1074 87.5288C96.5176 88.0366 96.7227 88.6738 96.7227 89.4404C96.7227 89.9043 96.6616 90.3267 96.5396 90.7075C96.4224 91.0884 96.2661 91.4106 96.0708 91.6743C95.8755 91.938 95.6313 92.1724 95.3384 92.3774C95.0454 92.5825 94.7476 92.7461 94.4448 92.8682C94.147 92.9902 93.8076 93.0928 93.4268 93.1758C93.0459 93.2588 92.6943 93.3174 92.3721 93.3516C92.0547 93.3906 91.708 93.4199 91.332 93.4395ZM108.061 89.0742C107.978 89.8066 107.785 90.4561 107.482 91.0225C107.179 91.584 106.791 92.043 106.317 92.3994C105.844 92.751 105.304 93.0171 104.699 93.1978C104.098 93.3784 103.441 93.4688 102.729 93.4688C102.064 93.4688 101.459 93.3955 100.912 93.249C100.365 93.1074 99.9038 92.917 99.5278 92.6777C99.1519 92.4385 98.8198 92.1479 98.5317 91.8062C98.2437 91.4595 98.0142 91.1055 97.8433 90.7441C97.6724 90.3779 97.5332 89.98 97.4258 89.5503C97.3232 89.1157 97.2524 88.7129 97.2134 88.3418C97.1792 87.9658 97.1621 87.5752 97.1621 87.1699V86.5254C97.2109 85.8125 97.377 85.1729 97.6602 84.6064C97.9434 84.0352 98.2876 83.5762 98.6929 83.2295C99.0981 82.8779 99.562 82.5874 100.084 82.3579C100.607 82.1235 101.115 81.9624 101.608 81.8745C102.101 81.7817 102.592 81.7354 103.08 81.7354C103.866 81.7354 104.56 81.8306 105.16 82.021C105.766 82.2065 106.259 82.4702 106.64 82.812C107.021 83.1538 107.318 83.5469 107.533 83.9912C107.748 84.4307 107.885 84.9238 107.943 85.4707V86.1738C107.943 86.3301 107.406 86.4082 106.332 86.4082C106.078 86.4082 105.724 86.4033 105.27 86.3936C104.821 86.3838 104.525 86.3789 104.384 86.3789C104.359 86.3789 104.323 86.3813 104.274 86.3862C104.225 86.3911 104.188 86.3936 104.164 86.3936C104.037 86.3936 103.939 86.3423 103.871 86.2397C103.808 86.1323 103.764 86.0029 103.739 85.8516C103.72 85.7002 103.693 85.5488 103.659 85.3975C103.629 85.2461 103.563 85.1191 103.461 85.0166C103.363 84.9092 103.227 84.8555 103.051 84.8555C102.875 84.8555 102.721 84.8848 102.589 84.9434C102.458 85.002 102.353 85.0947 102.274 85.2217C102.196 85.3438 102.13 85.4683 102.077 85.5952C102.028 85.7222 101.991 85.8882 101.967 86.0933C101.947 86.2935 101.933 86.4644 101.923 86.606C101.918 86.7427 101.913 86.9282 101.908 87.1626C101.903 87.3921 101.898 87.5605 101.894 87.668C101.894 87.7266 101.889 87.834 101.879 87.9902C101.869 88.1465 101.864 88.2734 101.864 88.3711C101.864 89.5869 102.187 90.2119 102.831 90.2461C103.007 90.2461 103.151 90.1826 103.263 90.0557C103.375 89.9287 103.451 89.7871 103.49 89.6309C103.534 89.4746 103.583 89.311 103.637 89.1401C103.69 88.9644 103.749 88.8447 103.812 88.7812H107.797C107.958 88.7959 108.046 88.8936 108.061 89.0742ZM108.866 93.1904C108.886 91.7695 108.92 90.7295 108.969 90.0703C108.969 88.0195 108.998 85.9395 109.057 83.8301C109.037 83.4199 109.027 83.1172 109.027 82.9219V82.7021C109.008 82.4873 108.998 82.3115 108.998 82.1748C108.998 82.082 109.042 81.999 109.13 81.9258C109.931 81.9844 111.151 82.0137 112.792 82.0137C113.183 82.0137 113.451 82.0039 113.598 81.9844V93.1904H108.866ZM120.38 85.9688C120.38 85.915 120.38 85.8345 120.38 85.7271C120.38 84.9312 120.402 84.4478 120.446 84.2769C120.49 84.1108 120.595 83.9741 120.761 83.8667C120.81 83.8374 120.9 83.791 121.032 83.7275L121.405 83.5225C121.615 83.4346 121.835 83.3345 122.064 83.2222C122.299 83.1099 122.592 82.9316 122.943 82.6875C123.3 82.4434 123.549 82.209 123.69 81.9844C124.862 82.0039 125.741 82.0137 126.327 82.0137C126.581 82.0137 126.771 82.0039 126.898 81.9844C126.938 81.9893 126.967 82.0015 126.986 82.021C127.011 82.0405 127.028 82.0771 127.038 82.1309C127.047 82.1846 127.052 82.2358 127.052 82.2847C127.057 82.3335 127.06 82.4141 127.06 82.5264V86.4375C127.06 87.165 127.074 88.2539 127.104 89.7041C127.133 91.1494 127.147 92.2383 127.147 92.9707C127.123 93.1465 126.771 93.2344 126.093 93.2344C125.995 93.2344 125.863 93.2319 125.697 93.2271C125.531 93.2222 125.419 93.2197 125.36 93.2197C125.224 93.2197 125.031 93.2222 124.782 93.2271C124.533 93.2319 124.35 93.2344 124.232 93.2344C123.93 93.2344 123.476 93.2246 122.87 93.2051L122.68 92.9561C122.631 92.9072 122.606 92.8047 122.606 92.6484C122.606 91.9062 122.616 90.832 122.636 89.4258V86.2324C121.918 86.7061 121.249 87.0381 120.629 87.2285C120.546 87.2285 120.485 87.2139 120.446 87.1846C120.407 87.1553 120.385 87.1016 120.38 87.0234V85.9688ZM131.322 92.8975V92.6777C131.322 92.6045 131.325 92.4897 131.33 92.3335C131.334 92.1724 131.337 92.043 131.337 91.9453V91.5645C131.337 90.373 131.415 89.7773 131.571 89.7773H134.574C135.043 89.7773 135.277 89.8457 135.277 89.9824C135.297 90.9199 135.307 91.6377 135.307 92.1357V92.3848C135.307 92.4189 135.309 92.4727 135.314 92.5459C135.319 92.6143 135.321 92.668 135.321 92.707C135.321 92.9805 135.268 93.1172 135.16 93.1172H131.557L131.322 92.8975ZM146.425 85.1191C146.425 85.5342 146.364 85.9199 146.242 86.2764C146.125 86.6328 145.973 86.9355 145.788 87.1846C145.607 87.4336 145.377 87.6875 145.099 87.9463C144.826 88.2051 144.56 88.4297 144.301 88.6201C144.042 88.8057 143.747 89.0303 143.415 89.2939C143.087 89.5576 142.807 89.8066 142.572 90.041C142.904 90.041 143.412 90.0312 144.096 90.0117C144.784 89.9922 145.307 89.9824 145.663 89.9824C146 89.9824 146.227 90.0972 146.344 90.3267C146.466 90.5513 146.527 90.876 146.527 91.3008C146.527 91.4326 146.52 91.6572 146.505 91.9746C146.491 92.2871 146.483 92.5264 146.483 92.6924V92.8242C146.483 92.8975 146.479 92.9536 146.469 92.9927C146.459 93.0317 146.432 93.0684 146.388 93.1025C146.344 93.1367 146.278 93.1611 146.19 93.1758H145.663C145.292 93.166 144.501 93.1465 143.29 93.1172C141.337 93.1172 139.203 93.1562 136.889 93.2344V93.0879C136.815 93.0439 136.754 92.9561 136.706 92.8242C136.662 92.6924 136.64 92.5459 136.64 92.3848V90.2461C136.64 90.1338 136.806 89.9678 137.138 89.748C138.48 88.8398 139.442 88.1807 140.023 87.7705L140.478 87.4189C141.532 86.5986 142.06 85.8662 142.06 85.2217C142.06 85.0166 141.999 84.8555 141.876 84.7383C141.759 84.6211 141.601 84.5625 141.4 84.5625C141.229 84.5625 141.093 84.6016 140.99 84.6797C140.893 84.7529 140.824 84.8457 140.785 84.958C140.751 85.0654 140.722 85.1753 140.697 85.2876C140.678 85.3999 140.646 85.5024 140.602 85.5952C140.563 85.688 140.502 85.7441 140.419 85.7637H137.021C136.747 85.7637 136.61 85.6904 136.61 85.5439C136.684 84.8408 136.852 84.2378 137.116 83.7349C137.379 83.2271 137.731 82.8267 138.17 82.5337C138.61 82.2407 139.105 82.0283 139.657 81.8965C140.209 81.7598 140.839 81.6914 141.547 81.6914C142.06 81.6914 142.548 81.7329 143.012 81.8159C143.476 81.894 143.917 82.0234 144.337 82.2041C144.757 82.3799 145.119 82.5996 145.421 82.8633C145.729 83.1221 145.973 83.4443 146.154 83.8301C146.334 84.2158 146.425 84.6455 146.425 85.1191ZM148.285 85.9688C148.285 85.915 148.285 85.8345 148.285 85.7271C148.285 84.9312 148.307 84.4478 148.351 84.2769C148.395 84.1108 148.5 83.9741 148.666 83.8667C148.715 83.8374 148.805 83.791 148.937 83.7275L149.311 83.5225C149.521 83.4346 149.74 83.3345 149.97 83.2222C150.204 83.1099 150.497 82.9316 150.849 82.6875C151.205 82.4434 151.454 82.209 151.596 81.9844C152.768 82.0039 153.646 82.0137 154.232 82.0137C154.486 82.0137 154.677 82.0039 154.804 81.9844C154.843 81.9893 154.872 82.0015 154.892 82.021C154.916 82.0405 154.933 82.0771 154.943 82.1309C154.953 82.1846 154.958 82.2358 154.958 82.2847C154.962 82.3335 154.965 82.4141 154.965 82.5264V86.4375C154.965 87.165 154.979 88.2539 155.009 89.7041C155.038 91.1494 155.053 92.2383 155.053 92.9707C155.028 93.1465 154.677 93.2344 153.998 93.2344C153.9 93.2344 153.769 93.2319 153.603 93.2271C153.437 93.2222 153.324 93.2197 153.266 93.2197C153.129 93.2197 152.936 93.2222 152.687 93.2271C152.438 93.2319 152.255 93.2344 152.138 93.2344C151.835 93.2344 151.381 93.2246 150.775 93.2051L150.585 92.9561C150.536 92.9072 150.512 92.8047 150.512 92.6484C150.512 91.9062 150.521 90.832 150.541 89.4258V86.2324C149.823 86.7061 149.154 87.0381 148.534 87.2285C148.451 87.2285 148.39 87.2139 148.351 87.1846C148.312 87.1553 148.29 87.1016 148.285 87.0234V85.9688ZM163.593 93.4102C163.041 93.4102 162.538 93.3564 162.084 93.249C161.635 93.1465 161.244 93.0049 160.912 92.8242C160.58 92.6436 160.285 92.4141 160.026 92.1357C159.772 91.8574 159.56 91.562 159.389 91.2495C159.223 90.9321 159.081 90.5708 158.964 90.1655C158.847 89.7554 158.756 89.3501 158.693 88.9497C158.634 88.5493 158.588 88.1025 158.554 87.6094C158.554 83.9033 160.263 81.916 163.681 81.6475C164.271 81.6475 164.811 81.7158 165.299 81.8525C165.792 81.9844 166.212 82.1626 166.559 82.3872C166.906 82.6118 167.213 82.8877 167.482 83.2148C167.75 83.5371 167.965 83.874 168.126 84.2256C168.288 84.5771 168.419 84.9604 168.522 85.3755C168.625 85.7856 168.695 86.1787 168.734 86.5547C168.773 86.9307 168.793 87.3213 168.793 87.7266C168.793 88.6543 168.659 89.4819 168.39 90.2095C168.126 90.937 167.758 91.5327 167.284 91.9966C166.815 92.4604 166.269 92.812 165.644 93.0513C165.019 93.2905 164.335 93.4102 163.593 93.4102ZM162.479 87.9023C162.479 88.0928 162.482 88.2612 162.487 88.4077C162.492 88.5542 162.501 88.7349 162.516 88.9497C162.536 89.1597 162.56 89.3452 162.589 89.5063C162.619 89.6626 162.66 89.8262 162.714 89.9971C162.772 90.168 162.841 90.3096 162.919 90.4219C162.997 90.5342 163.095 90.627 163.212 90.7002C163.334 90.7686 163.471 90.8027 163.622 90.8027C163.793 90.8027 163.944 90.7661 164.076 90.6929C164.213 90.6196 164.323 90.5317 164.406 90.4292C164.494 90.3267 164.567 90.1851 164.625 90.0044C164.684 89.8237 164.728 89.665 164.757 89.5283C164.787 89.3867 164.809 89.2036 164.823 88.979C164.838 88.7495 164.845 88.5762 164.845 88.459C164.85 88.3418 164.853 88.1782 164.853 87.9683C164.853 87.9243 164.853 87.8926 164.853 87.873C164.872 87.707 164.882 87.4482 164.882 87.0967C164.882 87.0723 164.882 86.9746 164.882 86.8037C164.887 86.6328 164.889 86.4961 164.889 86.3936C164.889 86.2861 164.882 86.1348 164.867 85.9395C164.853 85.7441 164.833 85.583 164.809 85.4561C164.784 85.3291 164.743 85.1851 164.684 85.0239C164.63 84.8628 164.564 84.7358 164.486 84.6431C164.408 84.5454 164.308 84.4648 164.186 84.4014C164.064 84.333 163.925 84.2988 163.769 84.2988C163.642 84.2988 163.524 84.3159 163.417 84.3501C163.31 84.3843 163.214 84.4429 163.131 84.5259C163.053 84.604 162.982 84.6846 162.919 84.7676C162.855 84.8506 162.802 84.9629 162.758 85.1045C162.714 85.2461 162.675 85.373 162.641 85.4854C162.606 85.5928 162.58 85.7393 162.56 85.9248C162.541 86.1055 162.523 86.2544 162.509 86.3716C162.499 86.4839 162.492 86.645 162.487 86.855C162.482 87.0601 162.479 87.2114 162.479 87.3091C162.479 87.4067 162.479 87.5581 162.479 87.7632C162.479 87.8267 162.479 87.873 162.479 87.9023Z" fill="#516ED4"/>
<g filter="url(#filter0_d_166_4)">
<path d="M59.2617 53.2555C64.0105 53.2749 67.8465 56.5552 67.8298 60.5821C67.8131 64.6091 63.9498 67.8571 59.201 67.8372C54.4522 67.8177 50.6162 64.5375 50.6329 60.5105C50.6496 56.4841 54.5129 53.2355 59.2617 53.2555ZM59.2494 56.1715C59.0216 56.1711 58.8025 56.2468 58.6403 56.3829C58.4787 56.519 58.3872 56.7037 58.3866 56.8975L58.3714 60.5427C58.3709 60.736 58.4606 60.922 58.6212 61.0591L61.1915 63.2574C61.3535 63.3909 61.5704 63.4654 61.7957 63.4646C62.021 63.4637 62.2369 63.3881 62.3974 63.2535C62.5573 63.1187 62.648 62.9365 62.6509 62.745C62.6538 62.5541 62.5681 62.3695 62.4118 62.2313L60.0922 60.248L60.1061 56.9042C60.1071 56.711 60.0174 56.525 59.8568 56.3879C59.6957 56.2503 59.4776 56.1725 59.2494 56.1715Z" fill="#516ED4"/>
<path d="M55.3222 23.6704C55.3228 23.5205 55.2533 23.3765 55.1286 23.27C55.004 23.1635 54.8347 23.1033 54.6582 23.1026C54.4811 23.1018 54.3114 23.1606 54.1864 23.2661C54.0609 23.3716 53.9899 23.515 53.9893 23.6648L53.9844 24.8552C52.7045 24.9366 51.8648 25.1455 51.2462 25.6666C50.6265 26.1869 50.3729 26.8978 50.2654 27.9816L67.8954 28.0548C67.7968 26.9694 67.5488 26.2571 66.9336 25.7317C66.319 25.2055 65.4806 24.9896 64.2023 24.8969L64.2071 23.7073C64.2077 23.5574 64.1382 23.4134 64.0136 23.3069C63.8894 23.2004 63.7202 23.1402 63.5431 23.1395C63.3666 23.1387 63.1968 23.1976 63.0713 23.303C62.9458 23.4084 62.8748 23.5518 62.8742 23.7017L62.8699 24.8417C62.2791 24.8294 61.6158 24.8266 60.8705 24.8236L57.3167 24.8088C56.5709 24.8057 55.9081 24.8029 55.3174 24.8103L55.3222 23.6704Z" fill="#516ED4"/>
<path fill-rule="evenodd" clip-rule="evenodd" d="M50.183 30.8066C50.1857 30.1745 50.188 29.6125 50.2016 29.1115L67.9485 29.1852C67.9581 29.6862 67.9559 30.2483 67.9533 30.8804L67.9469 32.3872C67.9352 35.2283 67.9295 36.6493 66.8842 37.5274C65.8393 38.4051 64.1642 38.3989 60.8142 38.3849L57.2599 38.3703C53.9093 38.3562 52.2337 38.3494 51.1968 37.4618C50.16 36.5748 50.165 35.1546 50.1768 32.3134L50.183 30.8066ZM63.5042 32.3687C63.7403 32.3698 63.9664 32.2913 64.1338 32.1507C64.3006 32.0101 64.3955 31.8189 64.3961 31.6191C64.3967 31.4192 64.304 31.2272 64.1381 31.0852C63.9723 30.9433 63.7461 30.8629 63.5105 30.8619C63.275 30.861 63.0488 30.9395 62.8815 31.08C62.7141 31.2206 62.6198 31.4119 62.6192 31.6117C62.6181 31.8115 62.7113 32.0035 62.8771 32.1455C63.043 32.2875 63.2687 32.3678 63.5042 32.3687ZM63.4921 35.3824C63.7277 35.3834 63.9538 35.305 64.1212 35.1644C64.2885 35.0238 64.3828 34.8325 64.3834 34.6327C64.3846 34.4329 64.2914 34.2408 64.1255 34.0989C63.9596 33.9569 63.734 33.8766 63.4984 33.8756C63.2623 33.8746 63.0362 33.953 62.8688 34.0937C62.702 34.2343 62.6072 34.4255 62.6066 34.6253C62.6059 34.8252 62.6986 35.0172 62.8645 35.1591C63.0304 35.3011 63.2565 35.3815 63.4921 35.3824ZM59.9534 31.6006C59.9527 31.8004 59.8584 31.9917 59.6911 32.1323C59.5237 32.2729 59.2976 32.3513 59.062 32.3503C58.8265 32.3494 58.6008 32.2691 58.4344 32.127C58.2685 31.9851 58.1759 31.7931 58.1765 31.5932C58.1771 31.3934 58.2719 31.2022 58.4388 31.0616C58.6061 30.921 58.8323 30.8425 59.0683 30.8435C59.3039 30.8445 59.5295 30.9248 59.6954 31.0668C59.8613 31.2087 59.9545 31.4008 59.9534 31.6006ZM59.9412 34.6143C59.9401 34.8141 59.8458 35.0053 59.6784 35.1459C59.5116 35.2866 59.2849 35.3649 59.0494 35.364C58.8138 35.363 58.5882 35.2827 58.4218 35.1407C58.2559 34.9987 58.1632 34.8067 58.1638 34.6069C58.165 34.4071 58.2593 34.2158 58.4266 34.0753C58.5935 33.9346 58.8201 33.8562 59.0557 33.8572C59.2913 33.8582 59.5169 33.9385 59.6828 34.0804C59.8492 34.2224 59.9419 34.4144 59.9412 34.6143ZM54.6193 32.3319C54.8549 32.3329 55.0815 32.2545 55.2484 32.1138C55.4157 31.9733 55.51 31.782 55.5112 31.5822C55.5118 31.3823 55.4191 31.1903 55.2532 31.0484C55.0868 30.9064 54.8612 30.8261 54.6256 30.8251C54.3901 30.8241 54.1634 30.9025 53.9966 31.0432C53.8292 31.1837 53.7349 31.375 53.7338 31.5748C53.7331 31.7746 53.8258 31.9666 53.9922 32.1086C54.1581 32.2506 54.3837 32.3309 54.6193 32.3319ZM54.6067 35.3455C54.8427 35.3465 55.0689 35.2681 55.2362 35.1275C55.4031 34.9868 55.4979 34.7957 55.4985 34.5958C55.4991 34.396 55.4065 34.204 55.2406 34.062C55.0742 33.92 54.8485 33.8397 54.613 33.8387C54.3774 33.8377 54.1513 33.9162 53.9839 34.0567C53.8166 34.1974 53.7223 34.3886 53.7216 34.5884C53.7205 34.7882 53.8137 34.9803 53.9796 35.1223C54.1455 35.2642 54.3711 35.3445 54.6067 35.3455Z" fill="#516ED4"/>
<path d="M59.4359 81.7356C58.8336 81.7335 58.2367 81.8144 57.6796 81.9748C57.1224 82.1357 56.6163 82.372 56.1888 82.6709C55.7618 82.9699 55.4224 83.3256 55.1905 83.7176C54.9585 84.1097 54.838 84.5302 54.8367 84.9554C54.8331 85.7404 55.234 86.5005 55.9637 87.094C56.6935 87.6875 57.7027 88.0741 58.8042 88.1826L58.7617 98.3916C58.7613 98.5049 58.8246 98.6135 58.9378 98.6943C59.0506 98.7746 59.2046 98.8206 59.365 98.8213C59.5253 98.8219 59.6794 98.7775 59.7928 98.698C59.9068 98.618 59.9709 98.5098 59.9713 98.3964L60.0139 88.1875C61.1159 88.0885 62.1286 87.7101 62.8634 87.1226C63.5981 86.5352 64.0048 85.7785 64.0084 84.9935C64.0102 84.5683 63.8931 84.1469 63.6643 83.7529C63.4356 83.3589 63.0991 83.0006 62.6748 82.6979C62.2503 82.3957 61.7453 82.1545 61.19 81.9895C60.6341 81.8245 60.0381 81.7383 59.4359 81.7356ZM58.2608 83.1917C58.4499 83.1923 58.6367 83.2192 58.811 83.271C58.9853 83.3228 59.1435 83.3984 59.2767 83.4934C59.4099 83.5884 59.5157 83.7009 59.5873 83.8244C59.659 83.948 59.6958 84.0804 59.6953 84.2136C59.6949 84.3468 59.657 84.4792 59.584 84.6021C59.5115 84.7251 59.4046 84.8367 59.271 84.9303C59.1368 85.0238 58.978 85.0981 58.8033 85.1487C58.6282 85.1987 58.4411 85.2245 58.252 85.2235C57.8707 85.2221 57.5054 85.1136 57.2361 84.9218C56.9673 84.73 56.8168 84.4712 56.8174 84.2016C56.8186 83.9321 56.9716 83.6744 57.2423 83.485C57.5126 83.2955 57.879 83.1898 58.2608 83.1917Z" fill="#516ED4"/>
<path d="M59.406 88.9295C62.2552 88.9414 64.5726 87.1393 64.5819 84.9044C64.5911 82.6696 62.2888 80.8483 59.4396 80.8365C56.5903 80.8247 54.273 82.6268 54.2637 84.8616C54.2544 87.0964 56.5567 88.9177 59.406 88.9295Z" fill="#516ED4"/>
</g>
<defs>
<filter id="filter0_d_166_4" x="47.5761" y="22.5829" width="22.9778" height="80.9154" filterUnits="userSpaceOnUse" color-interpolation-filters="sRGB">
<feFlood flood-opacity="0" result="BackgroundImageFix"/>
<feColorMatrix in="SourceAlpha" type="matrix" values="0 0 0 0 0 0 0 0 0 0 0 0 0 0 0 0 0 0 127 0" result="hardAlpha"/>
<feOffset dy="2.07868"/>
<feGaussianBlur stdDeviation="1.29917"/>
<feComposite in2="hardAlpha" operator="out"/>
<feColorMatrix type="matrix" values="0 0 0 0 0 0 0 0 0 0 0 0 0 0 0 0 0 0 0.09 0"/>
<feBlend mode="normal" in2="BackgroundImageFix" result="effect1_dropShadow_166_4"/>
<feBlend mode="normal" in="SourceGraphic" in2="effect1_dropShadow_166_4" result="shape"/>
</filter>
</defs>
</svg>
