<svg width="81" height="95" viewBox="0 0 81 95" fill="none" xmlns="http://www.w3.org/2000/svg">
<g clip-path="url(#clip0_1_366)">
<g clip-path="url(#clip1_1_366)">
<path d="M46.0908 5.30493C50.5192 5.92731 54.7814 7.42061 58.6334 9.69974C62.4856 11.979 65.8532 14.9997 68.5425 18.5892C71.2317 22.1785 73.1902 26.2666 74.307 30.6198C75.4239 34.9732 75.6763 39.5072 75.0503 43.9615C73.1226 57.6762 63.0727 68.7758 54.1254 76.2079C50.2537 79.4097 46.1631 82.3342 41.8848 84.9606C39.4188 86.4605 36.891 87.8545 34.3092 89.1423C32.1837 87.172 30.1247 85.1719 28.1803 83.0365L28.1794 83.0364C25.0021 79.5624 22.0559 75.8849 19.3608 72.0222L18.8248 71.2467C12.273 61.6324 5.67055 48.1965 7.59791 34.4817C8.22392 30.0274 9.71631 25.7386 11.9898 21.8617C14.2632 17.9849 17.2737 14.5952 20.8481 11.8862C24.4225 9.1771 28.4916 7.20143 32.8226 6.07227C37.1538 4.94315 41.6622 4.68256 46.0908 5.30493ZM43.1401 26.2998C39.7305 25.8206 36.2694 26.7236 33.5186 28.8084C30.7682 30.8932 28.9534 33.9894 28.4719 37.4154C27.9905 40.8414 28.8814 44.3179 30.9507 47.08C33.0203 49.8422 36.0985 51.6632 39.5082 52.1425C42.9178 52.6217 46.3787 51.7195 49.1295 49.6348C51.8801 47.5501 53.6957 44.454 54.1773 41.028C54.6588 37.602 53.7668 34.1254 51.6974 31.3632C49.6278 28.601 46.5499 26.779 43.1401 26.2998Z" fill="white" stroke="#516ED4"/>
</g>
</g>
<defs>
<clipPath id="clip0_1_366">
<rect width="69.12" height="85.77" fill="white" transform="translate(11.9369) rotate(8)"/>
</clipPath>
<clipPath id="clip1_1_366">
<rect width="69.1156" height="85.77" fill="white" transform="translate(11.939 0.000305176) rotate(8)"/>
</clipPath>
</defs>
</svg>
