<svg width="458" height="97" viewBox="0 0 458 97" fill="none" xmlns="http://www.w3.org/2000/svg">
<mask id="path-1-outside-1_1020_59" maskUnits="userSpaceOnUse" x="-0.654297" y="0" width="459" height="97" fill="black">
<rect fill="white" x="-0.654297" width="459" height="97"/>
<path d="M33.4735 94H1.24698V3.09091H33.7399C42.8841 3.09091 50.7557 4.91086 57.3549 8.55078C63.9541 12.1611 69.0293 17.3546 72.5804 24.1314C76.1612 30.9081 77.9515 39.0166 77.9515 48.4567C77.9515 57.9264 76.1612 66.0644 72.5804 72.8707C69.0293 79.6771 63.9245 84.9002 57.2662 88.5401C50.6374 92.18 42.7065 94 33.4735 94ZM20.4675 77.5316H32.6745C38.3564 77.5316 43.1356 76.5254 47.0123 74.5131C50.9185 72.4712 53.8482 69.3196 55.8013 65.0582C57.784 60.7673 58.7754 55.2334 58.7754 48.4567C58.7754 41.7391 57.784 36.2496 55.8013 31.9883C53.8482 27.7269 50.9333 24.5901 47.0566 22.5778C43.18 20.5655 38.4007 19.5593 32.7189 19.5593H20.4675V77.5316ZM92.1894 94V3.09091H153.446V18.9379H111.41V40.5998H150.295V56.4467H111.41V78.1531H153.624V94H92.1894ZM218.044 29.2361C217.689 25.6554 216.165 22.8737 213.472 20.891C210.779 18.9083 207.124 17.9169 202.508 17.9169C199.371 17.9169 196.722 18.3608 194.562 19.2486C192.402 20.1068 190.744 21.3053 189.59 22.8441C188.466 24.3829 187.904 26.1289 187.904 28.082C187.844 29.7096 188.185 31.1301 188.925 32.3434C189.694 33.5567 190.744 34.6072 192.076 35.495C193.408 36.3532 194.947 37.1078 196.693 37.7589C198.439 38.3803 200.303 38.913 202.286 39.3569L210.453 41.31C214.419 42.1978 218.059 43.3815 221.373 44.8611C224.687 46.3408 227.558 48.1607 229.985 50.321C232.411 52.4813 234.29 55.0263 235.622 57.956C236.983 60.8857 237.679 64.2444 237.708 68.0323C237.679 73.5958 236.258 78.4194 233.447 82.5032C230.665 86.5574 226.641 89.709 221.373 91.9581C216.135 94.1776 209.817 95.2873 202.419 95.2873C195.08 95.2873 188.688 94.1628 183.243 91.9137C177.827 89.6647 173.595 86.3355 170.547 81.9261C167.529 77.4872 165.946 71.9978 165.798 65.4577H184.397C184.604 68.5058 185.477 71.0508 187.016 73.0927C188.584 75.105 190.671 76.629 193.275 77.6648C195.908 78.6709 198.883 79.174 202.197 79.174C205.452 79.174 208.278 78.7005 210.675 77.7536C213.102 76.8066 214.981 75.4897 216.313 73.8029C217.644 72.1161 218.31 70.1778 218.31 67.9879C218.31 65.946 217.704 64.2296 216.49 62.8388C215.307 61.4479 213.561 60.2642 211.252 59.2876C208.974 58.3111 206.177 57.4233 202.863 56.6243L192.964 54.1385C185.299 52.2741 179.248 49.3593 174.809 45.3938C170.37 41.4284 168.165 36.0869 168.195 29.3693C168.165 23.8651 169.63 19.0562 172.589 14.9428C175.578 10.8294 179.677 7.61861 184.885 5.31037C190.093 3.00213 196.012 1.84801 202.641 1.84801C209.388 1.84801 215.277 3.00213 220.308 5.31037C225.368 7.61861 229.304 10.8294 232.115 14.9428C234.927 19.0562 236.377 23.8207 236.465 29.2361H218.044ZM269.857 3.09091V94H250.637V3.09091H269.857ZM345.951 32.4766C345.33 30.3163 344.457 28.4075 343.332 26.7504C342.208 25.0636 340.832 23.6431 339.204 22.489C337.606 21.3053 335.771 20.4027 333.7 19.7812C331.658 19.1598 329.394 18.8491 326.908 18.8491C322.262 18.8491 318.179 20.0032 314.657 22.3114C311.165 24.6197 308.442 27.9785 306.489 32.3878C304.536 36.7675 303.56 42.1238 303.56 48.4567C303.56 54.7895 304.521 60.1754 306.445 64.6143C308.368 69.0533 311.091 72.4416 314.613 74.7795C318.134 77.0877 322.292 78.2418 327.086 78.2418C331.436 78.2418 335.15 77.4724 338.228 75.9336C341.335 74.3652 343.702 72.1605 345.33 69.3196C346.987 66.4787 347.816 63.1199 347.816 59.2433L351.722 59.8203H328.284V45.3494H366.326V56.8018C366.326 64.7919 364.639 71.6574 361.266 77.3984C357.892 83.1098 353.246 87.5192 347.327 90.6264C341.409 93.7041 334.632 95.2429 326.997 95.2429C318.474 95.2429 310.987 93.3638 304.536 89.6055C298.085 85.8176 293.054 80.4465 289.444 73.4922C285.863 66.5083 284.073 58.2223 284.073 48.6342C284.073 41.2656 285.138 34.696 287.269 28.9254C289.429 23.1252 292.448 18.2128 296.324 14.1882C300.201 10.1636 304.714 7.10073 309.863 4.99964C315.012 2.89855 320.59 1.84801 326.598 1.84801C331.747 1.84801 336.541 2.60263 340.98 4.11186C345.419 5.5915 349.355 7.69259 352.787 10.4151C356.25 13.1377 359.076 16.3781 361.266 20.1364C363.455 23.8651 364.861 27.9785 365.483 32.4766H345.951ZM456.802 3.09091V94H440.201L400.65 36.7823H399.984V94H380.764V3.09091H397.631L436.872 60.2642H437.671V3.09091H456.802Z"/>
</mask>
<path d="M33.4735 94H1.24698V3.09091H33.7399C42.8841 3.09091 50.7557 4.91086 57.3549 8.55078C63.9541 12.1611 69.0293 17.3546 72.5804 24.1314C76.1612 30.9081 77.9515 39.0166 77.9515 48.4567C77.9515 57.9264 76.1612 66.0644 72.5804 72.8707C69.0293 79.6771 63.9245 84.9002 57.2662 88.5401C50.6374 92.18 42.7065 94 33.4735 94ZM20.4675 77.5316H32.6745C38.3564 77.5316 43.1356 76.5254 47.0123 74.5131C50.9185 72.4712 53.8482 69.3196 55.8013 65.0582C57.784 60.7673 58.7754 55.2334 58.7754 48.4567C58.7754 41.7391 57.784 36.2496 55.8013 31.9883C53.8482 27.7269 50.9333 24.5901 47.0566 22.5778C43.18 20.5655 38.4007 19.5593 32.7189 19.5593H20.4675V77.5316ZM92.1894 94V3.09091H153.446V18.9379H111.41V40.5998H150.295V56.4467H111.41V78.1531H153.624V94H92.1894ZM218.044 29.2361C217.689 25.6554 216.165 22.8737 213.472 20.891C210.779 18.9083 207.124 17.9169 202.508 17.9169C199.371 17.9169 196.722 18.3608 194.562 19.2486C192.402 20.1068 190.744 21.3053 189.59 22.8441C188.466 24.3829 187.904 26.1289 187.904 28.082C187.844 29.7096 188.185 31.1301 188.925 32.3434C189.694 33.5567 190.744 34.6072 192.076 35.495C193.408 36.3532 194.947 37.1078 196.693 37.7589C198.439 38.3803 200.303 38.913 202.286 39.3569L210.453 41.31C214.419 42.1978 218.059 43.3815 221.373 44.8611C224.687 46.3408 227.558 48.1607 229.985 50.321C232.411 52.4813 234.29 55.0263 235.622 57.956C236.983 60.8857 237.679 64.2444 237.708 68.0323C237.679 73.5958 236.258 78.4194 233.447 82.5032C230.665 86.5574 226.641 89.709 221.373 91.9581C216.135 94.1776 209.817 95.2873 202.419 95.2873C195.08 95.2873 188.688 94.1628 183.243 91.9137C177.827 89.6647 173.595 86.3355 170.547 81.9261C167.529 77.4872 165.946 71.9978 165.798 65.4577H184.397C184.604 68.5058 185.477 71.0508 187.016 73.0927C188.584 75.105 190.671 76.629 193.275 77.6648C195.908 78.6709 198.883 79.174 202.197 79.174C205.452 79.174 208.278 78.7005 210.675 77.7536C213.102 76.8066 214.981 75.4897 216.313 73.8029C217.644 72.1161 218.31 70.1778 218.31 67.9879C218.31 65.946 217.704 64.2296 216.49 62.8388C215.307 61.4479 213.561 60.2642 211.252 59.2876C208.974 58.3111 206.177 57.4233 202.863 56.6243L192.964 54.1385C185.299 52.2741 179.248 49.3593 174.809 45.3938C170.37 41.4284 168.165 36.0869 168.195 29.3693C168.165 23.8651 169.63 19.0562 172.589 14.9428C175.578 10.8294 179.677 7.61861 184.885 5.31037C190.093 3.00213 196.012 1.84801 202.641 1.84801C209.388 1.84801 215.277 3.00213 220.308 5.31037C225.368 7.61861 229.304 10.8294 232.115 14.9428C234.927 19.0562 236.377 23.8207 236.465 29.2361H218.044ZM269.857 3.09091V94H250.637V3.09091H269.857ZM345.951 32.4766C345.33 30.3163 344.457 28.4075 343.332 26.7504C342.208 25.0636 340.832 23.6431 339.204 22.489C337.606 21.3053 335.771 20.4027 333.7 19.7812C331.658 19.1598 329.394 18.8491 326.908 18.8491C322.262 18.8491 318.179 20.0032 314.657 22.3114C311.165 24.6197 308.442 27.9785 306.489 32.3878C304.536 36.7675 303.56 42.1238 303.56 48.4567C303.56 54.7895 304.521 60.1754 306.445 64.6143C308.368 69.0533 311.091 72.4416 314.613 74.7795C318.134 77.0877 322.292 78.2418 327.086 78.2418C331.436 78.2418 335.15 77.4724 338.228 75.9336C341.335 74.3652 343.702 72.1605 345.33 69.3196C346.987 66.4787 347.816 63.1199 347.816 59.2433L351.722 59.8203H328.284V45.3494H366.326V56.8018C366.326 64.7919 364.639 71.6574 361.266 77.3984C357.892 83.1098 353.246 87.5192 347.327 90.6264C341.409 93.7041 334.632 95.2429 326.997 95.2429C318.474 95.2429 310.987 93.3638 304.536 89.6055C298.085 85.8176 293.054 80.4465 289.444 73.4922C285.863 66.5083 284.073 58.2223 284.073 48.6342C284.073 41.2656 285.138 34.696 287.269 28.9254C289.429 23.1252 292.448 18.2128 296.324 14.1882C300.201 10.1636 304.714 7.10073 309.863 4.99964C315.012 2.89855 320.59 1.84801 326.598 1.84801C331.747 1.84801 336.541 2.60263 340.98 4.11186C345.419 5.5915 349.355 7.69259 352.787 10.4151C356.25 13.1377 359.076 16.3781 361.266 20.1364C363.455 23.8651 364.861 27.9785 365.483 32.4766H345.951ZM456.802 3.09091V94H440.201L400.65 36.7823H399.984V94H380.764V3.09091H397.631L436.872 60.2642H437.671V3.09091H456.802Z" fill="#3A5E9E"/>
<path d="M1.24698 94H0.246982V95H1.24698V94ZM1.24698 3.09091V2.09091H0.246982V3.09091H1.24698ZM57.3549 8.55078L56.872 9.42642L56.875 9.42807L57.3549 8.55078ZM72.5804 24.1314L71.6947 24.5955L71.6963 24.5986L72.5804 24.1314ZM72.5804 72.8707L71.6954 72.4052L71.6939 72.4082L72.5804 72.8707ZM57.2662 88.5401L56.7865 87.6627L56.7848 87.6636L57.2662 88.5401ZM20.4675 77.5316H19.4675V78.5316H20.4675V77.5316ZM47.0123 74.5131L47.473 75.4007L47.4755 75.3994L47.0123 74.5131ZM55.8013 65.0582L54.8935 64.6388L54.8923 64.6416L55.8013 65.0582ZM55.8013 31.9883L54.8922 32.4049L54.8946 32.4101L55.8013 31.9883ZM47.0566 22.5778L47.5174 21.6902L47.0566 22.5778ZM20.4675 19.5593V18.5593H19.4675V19.5593H20.4675ZM33.4735 93H1.24698V95H33.4735V93ZM2.24698 94V3.09091H0.246982V94H2.24698ZM1.24698 4.09091H33.7399V2.09091H1.24698V4.09091ZM33.7399 4.09091C42.7509 4.09091 50.4491 5.88378 56.872 9.42641L57.8379 7.67515C51.0623 3.93795 43.0172 2.09091 33.7399 2.09091V4.09091ZM56.875 9.42807C63.298 12.942 68.2334 17.9903 71.6947 24.5955L73.4662 23.6672C69.8252 16.7189 64.6103 11.3802 57.8349 7.67349L56.875 9.42807ZM71.6963 24.5986C75.1853 31.2017 76.9515 39.1422 76.9515 48.4567H78.9515C78.9515 38.8909 77.1371 30.6146 73.4646 23.6642L71.6963 24.5986ZM76.9515 48.4567C76.9515 57.8011 75.1851 65.7719 71.6954 72.4052L73.4654 73.3363C77.1372 66.3569 78.9515 58.0516 78.9515 48.4567H76.9515ZM71.6939 72.4082C68.2332 79.0412 63.269 84.1189 56.7865 87.6627L57.7458 89.4176C64.5801 85.6815 69.8254 80.313 73.467 73.3333L71.6939 72.4082ZM56.7848 87.6636C50.3328 91.2065 42.5751 93 33.4735 93V95C42.8379 95 50.9419 93.1536 57.7475 89.4167L56.7848 87.6636ZM20.4675 78.5316H32.6745V76.5316H20.4675V78.5316ZM32.6745 78.5316C38.4701 78.5316 43.4177 77.5057 47.473 75.4007L46.5515 73.6256C42.8535 75.5452 38.2426 76.5316 32.6745 76.5316V78.5316ZM47.4755 75.3994C51.5913 73.2479 54.6711 69.9242 56.7104 65.4749L54.8923 64.6416C53.0253 68.715 50.2457 71.6945 46.549 73.6269L47.4755 75.3994ZM56.7091 65.4777C58.773 61.0111 59.7754 55.3201 59.7754 48.4567H57.7754C57.7754 55.1468 56.7951 60.5235 54.8935 64.6388L56.7091 65.4777ZM59.7754 48.4567C59.7754 41.6514 58.7727 36.004 56.708 31.5664L54.8946 32.4101C56.7954 36.4953 57.7754 41.8268 57.7754 48.4567H59.7754ZM56.7104 31.5716C54.6717 27.1236 51.6067 23.8129 47.5174 21.6902L46.5959 23.4653C50.2599 25.3672 53.0247 28.3303 54.8923 32.4049L56.7104 31.5716ZM47.5174 21.6902C43.462 19.5852 38.5145 18.5593 32.7189 18.5593V20.5593C38.287 20.5593 42.8979 21.5457 46.5959 23.4653L47.5174 21.6902ZM32.7189 18.5593H20.4675V20.5593H32.7189V18.5593ZM19.4675 19.5593V77.5316H21.4675V19.5593H19.4675ZM92.1894 94H91.1894V95H92.1894V94ZM92.1894 3.09091V2.09091H91.1894V3.09091H92.1894ZM153.446 3.09091H154.446V2.09091H153.446V3.09091ZM153.446 18.9379V19.9379H154.446V18.9379H153.446ZM111.41 18.9379V17.9379H110.41V18.9379H111.41ZM111.41 40.5998H110.41V41.5998H111.41V40.5998ZM150.295 40.5998H151.295V39.5998H150.295V40.5998ZM150.295 56.4467V57.4467H151.295V56.4467H150.295ZM111.41 56.4467V55.4467H110.41V56.4467H111.41ZM111.41 78.1531H110.41V79.1531H111.41V78.1531ZM153.624 78.1531H154.624V77.1531H153.624V78.1531ZM153.624 94V95H154.624V94H153.624ZM93.1894 94V3.09091H91.1894V94H93.1894ZM92.1894 4.09091H153.446V2.09091H92.1894V4.09091ZM152.446 3.09091V18.9379H154.446V3.09091H152.446ZM153.446 17.9379H111.41V19.9379H153.446V17.9379ZM110.41 18.9379V40.5998H112.41V18.9379H110.41ZM111.41 41.5998H150.295V39.5998H111.41V41.5998ZM149.295 40.5998V56.4467H151.295V40.5998H149.295ZM150.295 55.4467H111.41V57.4467H150.295V55.4467ZM110.41 56.4467V78.1531H112.41V56.4467H110.41ZM111.41 79.1531H153.624V77.1531H111.41V79.1531ZM152.624 78.1531V94H154.624V78.1531H152.624ZM153.624 93H92.1894V95H153.624V93ZM218.044 29.2361L217.049 29.3348L217.138 30.2361H218.044V29.2361ZM194.562 19.2486L194.931 20.178L194.942 20.1735L194.562 19.2486ZM189.59 22.8441L188.79 22.2441L188.783 22.2541L189.59 22.8441ZM187.904 28.082L188.903 28.1184L188.904 28.1002V28.082H187.904ZM188.925 32.3434L188.071 32.864L188.075 32.8715L188.08 32.8789L188.925 32.3434ZM192.076 35.495L191.521 36.3271L191.528 36.3314L191.534 36.3356L192.076 35.495ZM196.693 37.7589L196.343 38.6959L196.35 38.6985L196.357 38.701L196.693 37.7589ZM202.286 39.3569L202.518 38.3843L202.511 38.3826L202.504 38.381L202.286 39.3569ZM210.453 41.31L210.221 42.2826L210.228 42.2843L210.235 42.2859L210.453 41.31ZM221.373 44.8611L220.965 45.7743L221.373 44.8611ZM229.985 50.321L230.649 49.5741L229.985 50.321ZM235.622 57.956L234.712 58.3698L234.715 58.3773L235.622 57.956ZM237.708 68.0323L238.708 68.0376L238.708 68.0245L237.708 68.0323ZM233.447 82.5032L232.623 81.9362L232.622 81.9374L233.447 82.5032ZM221.373 91.9581L221.763 92.8789L221.766 92.8778L221.373 91.9581ZM183.243 91.9137L182.859 92.8372L182.861 92.838L183.243 91.9137ZM170.547 81.9261L169.72 82.4885L169.725 82.4948L170.547 81.9261ZM165.798 65.4577V64.4577H164.775L164.798 65.4804L165.798 65.4577ZM184.397 65.4577L185.395 65.3899L185.331 64.4577H184.397V65.4577ZM187.016 73.0927L186.217 73.6945L186.222 73.701L186.227 73.7074L187.016 73.0927ZM193.275 77.6648L192.905 78.5941L192.918 78.5989L193.275 77.6648ZM210.675 77.7535L210.312 76.822L210.308 76.8235L210.675 77.7535ZM216.313 73.8029L217.098 74.4226L216.313 73.8029ZM216.49 62.8388L215.729 63.4869L215.737 63.4961L216.49 62.8388ZM211.252 59.2876L210.858 60.2068L210.863 60.2086L211.252 59.2876ZM202.863 56.6243L202.619 57.5942L202.628 57.5964L202.863 56.6243ZM192.964 54.1385L193.208 53.1686L193.2 53.1668L192.964 54.1385ZM174.809 45.3938L174.143 46.1396L174.809 45.3938ZM168.195 29.3693L169.195 29.3737L169.195 29.3639L168.195 29.3693ZM172.589 14.9428L171.78 14.355L171.778 14.3588L172.589 14.9428ZM220.308 5.31037L219.891 6.21926L219.893 6.22019L220.308 5.31037ZM232.115 14.9428L231.29 15.5071V15.5071L232.115 14.9428ZM236.465 29.2361V30.2361H237.482L237.465 29.2198L236.465 29.2361ZM219.039 29.1375C218.658 25.299 217.005 22.2502 214.065 20.0857L212.879 21.6963C215.325 23.4972 216.719 26.0119 217.049 29.3348L219.039 29.1375ZM214.065 20.0857C211.145 17.9364 207.258 16.9169 202.508 16.9169V18.9169C206.99 18.9169 210.412 19.8802 212.879 21.6963L214.065 20.0857ZM202.508 16.9169C199.283 16.9169 196.496 17.3725 194.182 18.3236L194.942 20.1735C196.948 19.3491 199.459 18.9169 202.508 18.9169V16.9169ZM194.193 18.3192C191.897 19.2312 190.076 20.5298 188.79 22.2441L190.39 23.4441C191.413 22.0807 192.906 20.9823 194.931 20.1779L194.193 18.3192ZM188.783 22.2541C187.53 23.9687 186.904 25.9224 186.904 28.082H188.904C188.904 26.3354 189.402 24.7972 190.398 23.4341L188.783 22.2541ZM186.904 28.0457C186.839 29.8398 187.215 31.4598 188.071 32.864L189.778 31.8228C189.155 30.8003 188.85 29.5795 188.903 28.1184L186.904 28.0457ZM188.08 32.8789C188.932 34.223 190.087 35.3707 191.521 36.3271L192.631 34.663C191.402 33.8438 190.456 32.8904 189.769 31.8079L188.08 32.8789ZM191.534 36.3356C192.936 37.2389 194.541 38.024 196.343 38.6959L197.042 36.8219C195.352 36.1917 193.88 35.4676 192.618 34.6545L191.534 36.3356ZM196.357 38.701C198.145 39.3373 200.049 39.8808 202.067 40.3327L202.504 38.381C200.557 37.9452 198.732 37.4234 197.028 36.8168L196.357 38.701ZM202.053 40.3295L210.221 42.2826L210.686 40.3374L202.518 38.3843L202.053 40.3295ZM210.235 42.2859C214.143 43.1608 217.719 44.3248 220.965 45.7743L221.781 43.948C218.399 42.4382 214.695 41.2348 210.672 40.3342L210.235 42.2859ZM220.965 45.7743C224.197 47.2169 226.978 48.9834 229.32 51.0679L230.649 49.5741C228.138 47.3381 225.178 45.4647 221.781 43.948L220.965 45.7743ZM229.32 51.0679C231.643 53.1364 233.438 55.5683 234.712 58.3698L236.532 57.5422C235.142 54.4843 233.179 51.8262 230.649 49.5741L229.32 51.0679ZM234.715 58.3773C236.007 61.1569 236.68 64.3707 236.708 68.0401L238.708 68.0245C238.678 64.1181 237.96 60.6144 236.529 57.5346L234.715 58.3773ZM236.708 68.027C236.68 73.4152 235.307 78.0374 232.623 81.9362L234.271 83.0702C237.209 78.8013 238.678 73.7763 238.708 68.0376L236.708 68.027ZM232.622 81.9374C229.965 85.8107 226.103 88.8514 220.98 91.0384L221.766 92.8778C227.179 90.5667 231.366 87.3041 234.271 83.069L232.622 81.9374ZM220.983 91.0373C215.899 93.1913 209.721 94.2873 202.419 94.2873V96.2873C209.913 96.2873 216.371 95.1638 221.763 92.8788L220.983 91.0373ZM202.419 94.2873C195.18 94.2873 188.923 93.1778 183.624 90.9894L182.861 92.838C188.453 95.1477 194.98 96.2873 202.419 96.2873V94.2873ZM183.626 90.9902C178.371 88.8076 174.299 85.5941 171.37 81.3575L169.725 82.4948C172.892 87.0769 177.284 90.5217 182.859 92.8372L183.626 90.9902ZM171.374 81.3638C168.486 77.1162 166.942 71.8248 166.798 65.4351L164.798 65.4804C164.949 72.1707 166.572 77.8582 169.72 82.4884L171.374 81.3638ZM165.798 66.4577H184.397V64.4577H165.798V66.4577ZM183.399 65.5255C183.617 68.7289 184.54 71.4697 186.217 73.6945L187.814 72.4908C186.413 70.6319 185.591 68.2827 185.395 65.3899L183.399 65.5255ZM186.227 73.7074C187.915 75.8735 190.152 77.4992 192.905 78.594L193.644 76.7356C191.189 75.7589 189.253 74.3365 187.805 72.4779L186.227 73.7074ZM192.918 78.5989C195.684 79.6555 198.782 80.174 202.197 80.174V78.174C198.983 78.174 196.133 77.6863 193.632 76.7306L192.918 78.5989ZM202.197 80.174C205.546 80.174 208.502 79.6872 211.043 78.6836L210.308 76.8235C208.054 77.7139 205.358 78.174 202.197 78.174V80.174ZM211.039 78.6851C213.596 77.6872 215.634 76.2758 217.098 74.4226L215.528 73.1833C214.328 74.7036 212.608 75.926 210.312 76.822L211.039 78.6851ZM217.098 74.4226C218.571 72.5557 219.31 70.398 219.31 67.9879H217.31C217.31 69.9576 216.717 71.6766 215.528 73.1833L217.098 74.4226ZM219.31 67.9879C219.31 65.7319 218.633 63.7742 217.244 62.1814L215.737 63.4961C216.774 64.6851 217.31 66.1601 217.31 67.9879H219.31ZM217.252 62.1907C215.937 60.6454 214.043 59.3826 211.642 58.3667L210.863 60.2086C213.078 61.1458 214.676 62.2505 215.729 63.4869L217.252 62.1907ZM211.646 58.3685C209.301 57.3633 206.447 56.4598 203.097 55.6521L202.628 57.5964C205.907 58.3868 208.646 59.2588 210.858 60.2068L211.646 58.3685ZM203.106 55.6544L193.208 53.1686L192.72 55.1084L202.619 57.5942L203.106 55.6544ZM193.2 53.1668C185.645 51.3292 179.758 48.4742 175.475 44.6481L174.143 46.1396C178.737 50.2443 184.953 53.2191 192.728 55.1102L193.2 53.1668ZM175.475 44.6481C171.278 40.8991 169.166 35.8459 169.195 29.3737L167.195 29.3649C167.164 36.3278 169.461 41.9577 174.143 46.1396L175.475 44.6481ZM169.195 29.3639C169.166 24.0518 170.576 19.4536 173.401 15.5268L171.778 14.3588C168.684 18.6588 167.164 23.6783 167.195 29.3747L169.195 29.3639ZM173.398 15.5307C176.272 11.5763 180.223 8.47028 185.29 6.22461L184.48 4.39613C179.13 6.76694 174.885 10.0826 171.78 14.355L173.398 15.5307ZM185.29 6.22461C190.352 3.98142 196.129 2.84801 202.641 2.84801V0.848007C195.895 0.848007 189.835 2.02284 184.48 4.39613L185.29 6.22461ZM202.641 2.84801C209.275 2.84801 215.016 3.98271 219.891 6.21926L220.725 4.40147C215.538 2.02154 209.501 0.848007 202.641 0.848007V2.84801ZM219.893 6.22019C224.807 8.46184 228.593 11.5611 231.29 15.5071L232.941 14.3786C230.015 10.0977 225.929 6.77538 220.723 4.40055L219.893 6.22019ZM231.29 15.5071C233.981 19.4448 235.38 24.015 235.466 29.2525L237.465 29.2198C237.374 23.6263 235.872 18.6677 232.941 14.3786L231.29 15.5071ZM236.465 28.2361H218.044V30.2361H236.465V28.2361ZM269.857 3.09091H270.857V2.09091H269.857V3.09091ZM269.857 94V95H270.857V94H269.857ZM250.637 94H249.637V95H250.637V94ZM250.637 3.09091V2.09091H249.637V3.09091H250.637ZM268.857 3.09091V94H270.857V3.09091H268.857ZM269.857 93H250.637V95H269.857V93ZM251.637 94V3.09091H249.637V94H251.637ZM250.637 4.09091H269.857V2.09091H250.637V4.09091ZM345.951 32.4766L344.99 32.753L345.198 33.4766H345.951V32.4766ZM343.332 26.7504L342.5 27.3051L342.505 27.3119L343.332 26.7504ZM339.204 22.489L338.609 23.2925L338.617 23.2987L338.626 23.3047L339.204 22.489ZM333.7 19.7812L333.409 20.7379L333.413 20.7391L333.7 19.7812ZM314.657 22.3114L314.109 21.4751L314.106 21.4772L314.657 22.3114ZM306.489 32.3878L307.403 32.7951L307.404 32.7928L306.489 32.3878ZM314.613 74.7795L314.059 75.6126L314.064 75.6158L314.613 74.7795ZM338.228 75.9336L338.675 76.828L338.678 76.8263L338.228 75.9336ZM345.33 69.3196L344.466 68.8157L344.462 68.8225L345.33 69.3196ZM347.816 59.2432L347.962 58.254L346.816 58.0847V59.2432H347.816ZM351.722 59.8203V60.8203L351.868 58.831L351.722 59.8203ZM328.284 59.8203H327.284V60.8203H328.284V59.8203ZM328.284 45.3494V44.3494H327.284V45.3494H328.284ZM366.326 45.3494H367.326V44.3494H366.326V45.3494ZM361.266 77.3984L362.127 77.907L362.128 77.9051L361.266 77.3984ZM347.327 90.6264L347.789 91.5136L347.792 91.5118L347.327 90.6264ZM304.536 89.6055L304.03 90.4678L304.033 90.4695L304.536 89.6055ZM289.444 73.4922L288.554 73.9484L288.556 73.9529L289.444 73.4922ZM287.269 28.9254L286.332 28.5764L286.331 28.579L287.269 28.9254ZM296.324 14.1882L297.044 14.882L296.324 14.1882ZM309.863 4.99964L309.485 4.07376L309.863 4.99964ZM340.98 4.11186L340.658 5.05865L340.664 5.06054L340.98 4.11186ZM352.787 10.4151L352.166 11.1986L352.169 11.2012L352.787 10.4151ZM361.266 20.1364L360.402 20.6398L360.403 20.6428L361.266 20.1364ZM365.483 32.4766V33.4766H366.63L366.473 32.3397L365.483 32.4766ZM346.912 32.2001C346.265 29.9506 345.35 27.9434 344.16 26.1889L342.505 27.3119C343.563 28.8717 344.395 30.6819 344.99 32.753L346.912 32.2001ZM344.164 26.1957C342.973 24.4087 341.512 22.8993 339.783 21.6733L338.626 23.3047C340.152 24.3869 341.443 25.7184 342.5 27.3051L344.164 26.1957ZM339.799 21.6854C338.101 20.4271 336.16 19.4752 333.987 18.8234L333.413 20.7391C335.383 21.3302 337.112 22.1835 338.609 23.2925L339.799 21.6854ZM333.991 18.8246C331.841 18.1701 329.477 17.8491 326.908 17.8491V19.8491C329.311 19.8491 331.475 20.1495 333.409 20.7379L333.991 18.8246ZM326.908 17.8491C322.088 17.8491 317.81 19.0492 314.109 21.4751L315.205 23.1478C318.547 20.9572 322.436 19.8491 326.908 19.8491V17.8491ZM314.106 21.4772C310.431 23.9062 307.594 27.4258 305.575 31.9828L307.404 32.7928C309.291 28.5311 311.899 25.3332 315.208 23.1456L314.106 21.4772ZM305.576 31.9805C303.551 36.5225 302.56 42.0263 302.56 48.4567H304.56C304.56 42.2213 305.522 37.0126 307.403 32.7951L305.576 31.9805ZM302.56 48.4567C302.56 54.886 303.535 60.4152 305.527 65.012L307.363 64.2167C305.507 59.9357 304.56 54.6931 304.56 48.4567H302.56ZM305.527 65.012C307.516 69.6019 310.355 73.153 314.059 75.6126L315.166 73.9464C311.827 71.7302 309.221 68.5046 307.363 64.2167L305.527 65.012ZM314.064 75.6158C317.771 78.0451 322.125 79.2418 327.086 79.2418V77.2418C322.459 77.2418 318.498 76.1303 315.161 73.9431L314.064 75.6158ZM327.086 79.2418C331.551 79.2418 335.427 78.4522 338.675 76.828L337.78 75.0392C334.873 76.4927 331.321 77.2418 327.086 77.2418V79.2418ZM338.678 76.8263C341.949 75.1755 344.466 72.8384 346.198 69.8167L344.462 68.8225C342.938 71.4826 340.721 73.5548 337.777 75.0409L338.678 76.8263ZM346.194 69.8235C347.955 66.8043 348.816 63.2651 348.816 59.2432H346.816C346.816 62.9747 346.019 66.1531 344.466 68.8157L346.194 69.8235ZM347.67 60.2325L351.576 60.8096L351.868 58.831L347.962 58.254L347.67 60.2325ZM351.722 58.8203H328.284V60.8203H351.722V58.8203ZM329.284 59.8203V45.3494H327.284V59.8203H329.284ZM328.284 46.3494H366.326V44.3494H328.284V46.3494ZM365.326 45.3494V56.8018H367.326V45.3494H365.326ZM365.326 56.8018C365.326 64.6495 363.67 71.3325 360.403 76.8918L362.128 77.9051C365.608 71.9824 367.326 64.9343 367.326 56.8018H365.326ZM360.405 76.8899C357.126 82.44 352.618 86.7194 346.863 89.741L347.792 91.5118C353.874 88.3189 358.658 83.7797 362.127 77.907L360.405 76.8899ZM346.866 89.7392C341.109 92.7327 334.495 94.2429 326.997 94.2429V96.2429C334.769 96.2429 341.708 94.6755 347.789 91.5136L346.866 89.7392ZM326.997 94.2429C318.626 94.2429 311.317 92.3987 305.04 88.7414L304.033 90.4695C310.657 94.3288 318.323 96.2429 326.997 96.2429V94.2429ZM305.043 88.7431C298.762 85.0552 293.859 79.827 290.331 73.0314L288.556 73.9529C292.249 81.066 297.408 86.58 304.03 90.4678L305.043 88.7431ZM290.334 73.0359C286.84 66.2212 285.073 58.0983 285.073 48.6342H283.073C283.073 58.3463 284.887 66.7954 288.554 73.9484L290.334 73.0359ZM285.073 48.6342C285.073 41.3611 286.124 34.912 288.207 29.2718L286.331 28.579C284.152 34.4801 283.073 41.1702 283.073 48.6342H285.073ZM288.206 29.2744C290.323 23.5889 293.273 18.7976 297.044 14.882L295.604 13.4945C291.622 17.628 288.535 22.6615 286.332 28.5764L288.206 29.2744ZM297.044 14.882C300.825 10.9572 305.221 7.97369 310.241 5.92553L309.485 4.07376C304.206 6.22777 299.577 9.36994 295.604 13.4945L297.044 14.882ZM310.241 5.92553C315.261 3.87719 320.709 2.84801 326.598 2.84801V0.848007C320.471 0.848007 314.764 1.91992 309.485 4.07376L310.241 5.92553ZM326.598 2.84801C331.648 2.84801 336.332 3.58793 340.658 5.05863L341.302 3.16509C336.749 1.61732 331.846 0.848007 326.598 0.848007V2.84801ZM340.664 5.06054C344.999 6.50584 348.83 8.5533 352.166 11.1986L353.409 9.63163C349.879 6.83187 345.838 4.67715 341.296 3.16318L340.664 5.06054ZM352.169 11.2012C355.534 13.8469 358.276 16.9918 360.402 20.6398L362.13 19.6329C359.876 15.7644 356.966 12.4285 353.405 9.62904L352.169 11.2012ZM360.403 20.6428C362.523 24.2523 363.888 28.2391 364.492 32.6134L366.473 32.3397C365.835 27.7178 364.388 23.4778 362.128 19.6299L360.403 20.6428ZM365.483 31.4766H345.951V33.4766H365.483V31.4766ZM456.802 3.09091H457.802V2.09091H456.802V3.09091ZM456.802 94V95H457.802V94H456.802ZM440.201 94L439.378 94.5686L439.676 95H440.201V94ZM400.65 36.7823L401.473 36.2137L401.174 35.7823H400.65V36.7823ZM399.984 36.7823V35.7823H398.984V36.7823H399.984ZM399.984 94V95H400.984V94H399.984ZM380.764 94H379.764V95H380.764V94ZM380.764 3.09091V2.09091H379.764V3.09091H380.764ZM397.631 3.09091L398.456 2.52503L398.158 2.09091H397.631V3.09091ZM436.872 60.2642L436.047 60.8301L436.345 61.2642H436.872V60.2642ZM437.671 60.2642V61.2642H438.671V60.2642H437.671ZM437.671 3.09091V2.09091H436.671V3.09091H437.671ZM455.802 3.09091V94H457.802V3.09091H455.802ZM456.802 93H440.201V95H456.802V93ZM441.023 93.4314L401.473 36.2137L399.827 37.3509L439.378 94.5686L441.023 93.4314ZM400.65 35.7823H399.984V37.7823H400.65V35.7823ZM398.984 36.7823V94H400.984V36.7823H398.984ZM399.984 93H380.764V95H399.984V93ZM381.764 94V3.09091H379.764V94H381.764ZM380.764 4.09091H397.631V2.09091H380.764V4.09091ZM396.807 3.65678L436.047 60.8301L437.696 59.6983L398.456 2.52503L396.807 3.65678ZM436.872 61.2642H437.671V59.2642H436.872V61.2642ZM438.671 60.2642V3.09091H436.671V60.2642H438.671ZM437.671 4.09091H456.802V2.09091H437.671V4.09091Z" fill="#3A559E" mask="url(#path-1-outside-1_1020_59)"/>
</svg>
