<svg width="243" height="60" viewBox="0 0 243 60" fill="none" xmlns="http://www.w3.org/2000/svg">
<rect x="3.54477" y="0.53554" width="238.591" height="40.7718" rx="9.5" transform="rotate(4.23266 3.54477 0.53554)" fill="white" stroke="#516ED4"/>
<path d="M50.2204 31.2396L51.165 18.0734L56.5112 18.457C57.2294 18.5085 57.8767 18.6151 58.4533 18.7768C59.0308 18.9252 59.5381 19.122 59.975 19.3672C60.4119 19.6124 60.7718 19.9056 61.0548 20.2467C61.352 20.5755 61.5656 20.9518 61.6957 21.3755C61.8266 21.7859 61.8745 22.2372 61.8391 22.7292C61.8058 23.1947 61.7021 23.615 61.5281 23.9902C61.3551 24.3521 61.1123 24.6622 60.7997 24.9205C60.4871 25.1788 60.1046 25.3852 59.6524 25.5399C59.2011 25.6814 58.6805 25.7643 58.0906 25.7888L58.0691 26.0881C58.7426 26.2032 59.2698 26.4014 59.6506 26.6828C60.0457 26.9517 60.3415 27.3004 60.538 27.7289C60.7478 28.1584 60.9172 28.6852 61.0462 29.3094L61.651 32.0597L58.4791 31.8321L58.0396 29.2942C57.9581 28.7536 57.8148 28.3289 57.6097 28.0201C57.4055 27.698 57.1349 27.4647 56.7977 27.3202C56.4615 27.1624 56.0473 27.0659 55.5552 27.0306L53.4207 26.8774L53.093 31.4457L50.2204 31.2396ZM53.5753 24.723L55.8494 24.8861C56.7538 24.951 57.4644 24.8282 57.9813 24.5177C58.4981 24.2073 58.7828 23.6863 58.8353 22.9548C58.8868 22.2367 58.6918 21.6947 58.2502 21.3288C57.8228 20.9506 57.1503 20.7286 56.2327 20.6627L53.8787 20.4938L53.5753 24.723ZM68.4481 32.8281C67.5837 32.766 66.8209 32.591 66.1598 32.303C65.512 32.0159 64.9716 31.6295 64.5386 31.144C64.1056 30.6584 63.7866 30.0741 63.5816 29.391C63.3899 28.7089 63.3241 27.9489 63.3842 27.111C63.4434 26.2865 63.6108 25.5365 63.8865 24.8612C64.1765 24.1735 64.5657 23.5932 65.0541 23.1203C65.5435 22.6341 66.124 22.2747 66.7957 22.0422C67.4674 21.8096 68.2155 21.7229 69.0401 21.7821C69.838 21.8393 70.54 22.0234 71.146 22.3342C71.7529 22.6317 72.2439 23.0546 72.619 23.6029C73.0073 24.1521 73.2674 24.8124 73.3992 25.5838C73.5453 26.3429 73.5569 27.2059 73.434 28.1729L65.2094 27.6631L65.3225 26.0871L71.8899 26.4981L70.8153 27.2231C70.9589 26.5249 70.9539 25.9431 70.8001 25.4775C70.6464 25.012 70.3976 24.66 70.0538 24.4214C69.7233 24.1838 69.3452 24.0498 68.9197 24.0192C68.4143 23.983 67.9592 24.084 67.5545 24.3223C67.1497 24.5606 66.8223 24.9315 66.5724 25.4349C66.3233 25.925 66.173 26.5291 66.1215 27.2473C66.0404 28.3777 66.2268 29.2265 66.6807 29.7938C67.1479 30.362 67.7871 30.6752 68.5984 30.7334C68.9708 30.7602 69.2866 30.736 69.546 30.6611C69.8196 30.5738 70.0419 30.456 70.213 30.3079C70.3973 30.1607 70.5432 29.9907 70.6506 29.7979C70.7713 29.606 70.872 29.4128 70.9529 29.218L73.4078 29.9356C73.2528 30.419 73.0413 30.8517 72.7733 31.2335C72.5195 31.6029 72.1893 31.9201 71.7827 32.185C71.377 32.4366 70.8962 32.616 70.3405 32.7232C69.797 32.8446 69.1663 32.8796 68.4481 32.8281ZM79.0794 36.9795C77.9356 36.8974 76.9981 36.7366 76.2667 36.497C75.5476 36.2716 75.0276 35.9736 74.7067 35.603C74.3857 35.2325 74.2438 34.7878 74.281 34.2692C74.3249 33.6574 74.6001 33.1759 75.1065 32.8245C75.6263 32.4742 76.3611 32.2929 77.3111 32.2809L77.3397 31.8819C76.6215 31.8304 76.0749 31.7177 75.6997 31.5437C75.3255 31.3564 75.1522 31.07 75.1799 30.6843C75.2066 30.3119 75.4166 29.9928 75.81 29.7269C76.2167 29.462 76.8651 29.2746 77.7552 29.1647L77.7838 28.7657C76.9631 28.6534 76.3372 28.3411 75.9061 27.8289C75.4749 27.3168 75.2866 26.6817 75.341 25.9236C75.3887 25.2587 75.6173 24.6802 76.0269 24.1883C76.4374 23.683 77.0194 23.3037 77.7728 23.0503C78.5405 22.7845 79.4629 22.6903 80.5401 22.7676L85.8465 23.1483L85.6891 25.3426L82.4304 24.6477L82.3975 25.1065C83.2401 25.2872 83.8366 25.5439 84.187 25.8765C84.5507 26.2101 84.713 26.6495 84.6739 27.1947C84.6348 27.74 84.4209 28.2059 84.0323 28.5924C83.6436 28.9789 83.1082 29.268 82.4261 29.4597C81.7582 29.639 80.9654 29.6958 80.0478 29.6299C79.8749 29.6175 79.6892 29.5975 79.4907 29.5699C79.2921 29.5423 78.962 29.4852 78.5004 29.3986C78.2343 29.5667 78.0229 29.7186 77.8661 29.8544C77.7236 29.9778 77.648 30.0994 77.6395 30.2191C77.6328 30.3122 77.6736 30.3953 77.7619 30.4685C77.8635 30.5426 77.9932 30.5987 78.1509 30.6368C78.3219 30.6758 78.4938 30.7015 78.6667 30.7139L81.659 30.9286C81.925 30.9477 82.2693 30.9924 82.692 31.0628C83.1157 31.12 83.5341 31.2502 83.9473 31.4537C84.3605 31.6571 84.6995 31.9621 84.9644 32.3688C85.2303 32.7622 85.3379 33.3113 85.2873 34.0161C85.232 34.7875 84.9668 35.4101 84.4916 35.884C84.0298 36.3588 83.3448 36.684 82.4366 36.8594C81.5417 37.0358 80.4226 37.0759 79.0794 36.9795ZM79.5631 34.7083C80.3744 34.7665 81.0094 34.7653 81.4683 34.7046C81.9262 34.6572 82.2554 34.5405 82.4559 34.3544C82.6687 34.1825 82.7856 33.9503 82.8066 33.6577C82.8257 33.3917 82.7807 33.1813 82.6715 33.0264C82.5756 32.8725 82.4364 32.7622 82.2541 32.6957C82.0859 32.6168 81.9093 32.564 81.724 32.5373C81.5531 32.4983 81.4011 32.4741 81.2681 32.4645L78.7545 32.2842C78.1922 32.2973 77.7756 32.4212 77.5047 32.6557C77.2482 32.8779 77.1085 33.1486 77.0856 33.4678C77.0646 33.7604 77.1419 33.9865 77.3176 34.1461C77.4933 34.3058 77.7654 34.4256 78.134 34.5055C78.5149 34.5997 78.9913 34.6673 79.5631 34.7083ZM79.9955 28.1223C80.6339 28.1681 81.1236 28.0495 81.4648 27.7666C81.8068 27.4703 81.996 27.0695 82.0323 26.5641C82.0704 26.0321 81.9357 25.5813 81.628 25.2117C81.3336 24.843 80.8739 24.6363 80.2489 24.5914C79.6371 24.5475 79.1459 24.6861 78.7753 25.007C78.4057 25.3147 78.2018 25.7345 78.1637 26.2665C78.1398 26.599 78.1915 26.9034 78.3187 27.1799C78.4601 27.4441 78.6719 27.6598 78.954 27.827C79.2361 27.9943 79.5833 28.0928 79.9955 28.1223ZM87.1729 33.8907L87.9243 23.4177L90.7969 23.6238L90.0455 34.0968L87.1729 33.8907ZM89.4936 21.9462C88.935 21.9061 88.5109 21.7621 88.2212 21.514C87.9458 21.2537 87.8244 20.8974 87.8568 20.4452C87.8902 19.9797 88.0618 19.6378 88.3715 19.4194C88.6946 19.202 89.1354 19.1133 89.694 19.1534C90.2658 19.1944 90.6894 19.3451 90.9649 19.6055C91.2536 19.8668 91.3812 20.2302 91.3478 20.6957C91.3163 21.1345 91.1391 21.4627 90.816 21.6801C90.5063 21.8985 90.0654 21.9872 89.4936 21.9462ZM96.8747 34.8675C96.1699 34.8169 95.5363 34.7047 94.974 34.5306C94.4116 34.3566 93.9334 34.1285 93.5393 33.8462C93.1451 33.5639 92.8341 33.2409 92.6062 32.877C92.3793 32.4997 92.2417 32.0888 92.1934 31.6443L94.4521 30.904C94.4843 31.2004 94.6111 31.4835 94.8323 31.7534C95.0536 32.0232 95.358 32.2523 95.7455 32.4405C96.1473 32.6164 96.6341 32.7248 97.206 32.7658C97.8177 32.8097 98.296 32.7571 98.6409 32.6081C98.9868 32.4458 99.1716 32.1984 99.1955 31.8659C99.2136 31.6132 99.1348 31.407 98.9591 31.2474C98.7834 31.0877 98.5199 30.9418 98.1684 30.8097C97.817 30.6775 97.3919 30.5468 96.8932 30.4174C96.4097 30.2624 95.9134 30.0998 95.4043 29.9296C94.9085 29.7604 94.4497 29.5403 94.028 29.2695C93.6196 28.9995 93.2896 28.6617 93.038 28.256C92.8006 27.8379 92.7039 27.323 92.7478 26.7113C92.7936 26.0729 93.0066 25.5268 93.3867 25.0728C93.7668 24.6188 94.2989 24.2827 94.9829 24.0644C95.6679 23.8329 96.4892 23.7514 97.4467 23.8201C98.3112 23.8821 99.0607 24.0562 99.6951 24.3424C100.331 24.6152 100.839 24.9858 101.219 25.4543C101.615 25.9104 101.864 26.4429 101.967 27.0519L99.5772 27.6624C99.547 27.3394 99.434 27.0506 99.2384 26.796C99.0561 26.5423 98.7963 26.3432 98.4591 26.1987C98.1352 26.0551 97.7472 25.9671 97.295 25.9347C96.7232 25.8937 96.271 25.9548 95.9384 26.1181C95.6192 26.2823 95.4486 26.5174 95.4267 26.8233C95.4085 27.076 95.4935 27.2892 95.6815 27.4631C95.8829 27.638 96.1659 27.792 96.5306 27.9251C96.8963 28.0449 97.3281 28.1761 97.8258 28.3188C98.3501 28.4633 98.8597 28.6269 99.3546 28.8094C99.8504 28.9787 100.29 29.1907 100.672 29.4454C101.069 29.701 101.373 30.0237 101.586 30.4132C101.798 30.8028 101.884 31.2901 101.842 31.8753C101.792 32.5668 101.563 33.1519 101.154 33.6306C100.747 34.0959 100.181 34.4363 99.4568 34.6517C98.7328 34.8671 97.8722 34.9391 96.8747 34.8675ZM107.429 35.5847C106.259 35.5007 105.417 35.1328 104.902 34.481C104.401 33.8168 104.2 32.8064 104.297 31.4499L104.625 26.8817L103.109 26.7729L103.31 24.5215L104.368 24.5974C104.78 24.627 105.09 24.5891 105.298 24.4837C105.506 24.3783 105.642 24.1675 105.705 23.8511L106.071 22.3736L107.707 22.491L107.54 24.825L110.193 25.0153L110.025 27.3493L107.372 27.159L107.059 31.5277C107.024 32.0065 107.113 32.3604 107.323 32.5894C107.534 32.8184 107.872 32.9496 108.338 32.983C108.591 33.0011 108.832 32.9917 109.062 32.9547C109.305 32.9187 109.517 32.847 109.699 32.7398L109.507 35.4129C109.085 35.5163 108.7 35.5756 108.351 35.5906C108.003 35.6057 107.695 35.6037 107.429 35.5847ZM116.274 36.2593C115.41 36.1973 114.647 36.0223 113.986 35.7342C113.338 35.4471 112.798 35.0608 112.365 34.5753C111.932 34.0897 111.613 33.5054 111.408 32.8223C111.216 32.1401 111.15 31.3802 111.211 30.5423C111.27 29.7178 111.437 28.9678 111.713 28.2925C112.003 27.6048 112.392 27.0245 112.88 26.5516C113.37 26.0653 113.95 25.706 114.622 25.4734C115.294 25.2409 116.042 25.1542 116.866 25.2134C117.664 25.2706 118.366 25.4547 118.972 25.7655C119.579 26.063 120.07 26.4859 120.445 27.0342C120.834 27.5834 121.094 28.2437 121.225 29.0151C121.372 29.7741 121.383 30.6372 121.26 31.6042L113.036 31.0943L113.149 29.5184L119.716 29.9294L118.642 30.6544C118.785 29.9562 118.78 29.3743 118.626 28.9088C118.473 28.4433 118.224 28.0912 117.88 27.8527C117.55 27.6151 117.172 27.481 116.746 27.4505C116.241 27.4142 115.786 27.5153 115.381 27.7536C114.976 27.9919 114.649 28.3628 114.399 28.8662C114.15 29.3563 113.999 29.9604 113.948 30.6785C113.867 31.809 114.053 32.6578 114.507 33.2251C114.974 33.7933 115.613 34.1065 116.425 34.1647C116.797 34.1914 117.113 34.1673 117.372 34.0923C117.646 34.005 117.868 33.8873 118.039 33.7392C118.224 33.592 118.369 33.422 118.477 33.2292C118.598 33.0373 118.698 32.844 118.779 32.6493L121.234 33.3668C121.079 33.8503 120.868 34.283 120.6 34.6648C120.346 35.0342 120.016 35.3514 119.609 35.6163C119.203 35.8679 118.723 36.0473 118.167 36.1545C117.623 36.2759 116.993 36.3109 116.274 36.2593ZM123.018 36.4625L123.382 31.3955L123.77 25.9894L126.144 26.1597L125.907 29.7319L126.286 29.7591C126.457 28.8757 126.688 28.1638 126.981 27.6234C127.287 27.0839 127.682 26.6978 128.167 26.4653C128.651 26.2327 129.239 26.1412 129.931 26.1908C130.051 26.1994 130.177 26.2151 130.309 26.2379C130.455 26.2484 130.62 26.2803 130.803 26.3336L130.464 29.3771C130.272 29.2697 130.057 29.1875 129.82 29.1304C129.584 29.0733 129.372 29.0381 129.186 29.0248C128.668 28.9876 128.214 29.0753 127.824 29.288C127.434 29.5006 127.104 29.8245 126.832 30.2595C126.574 30.6821 126.383 31.2098 126.257 31.8424L125.911 36.67L123.018 36.4625ZM136.405 37.4229L137.35 24.2567L141.1 24.5258L146.396 34.2698L146.616 34.2855L147.105 24.9566L149.897 25.157L148.953 38.3231L145.562 38.0798L139.958 27.8726L139.738 27.8569L139.218 37.6247L136.405 37.4229ZM156.461 39.1425C155.411 39.0671 154.501 38.7947 153.733 38.3252C152.965 37.8424 152.385 37.1791 151.991 36.3354C151.598 35.4784 151.445 34.4382 151.533 33.2146C151.621 31.9911 151.92 30.99 152.43 30.2112C152.954 29.4333 153.629 28.8735 154.455 28.5318C155.296 28.1777 156.229 28.0374 157.253 28.1109C158.303 28.1863 159.213 28.4587 159.981 28.9282C160.763 29.3987 161.35 30.0624 161.743 30.9194C162.151 31.7641 162.31 32.7982 162.222 34.0217C162.134 35.2585 161.82 36.272 161.282 37.0622C160.759 37.8401 160.077 38.3994 159.237 38.7401C158.411 39.0819 157.485 39.216 156.461 39.1425ZM156.714 37.0152C157.233 37.0524 157.674 36.9637 158.037 36.7491C158.413 36.5355 158.705 36.1955 158.912 35.7291C159.133 35.2504 159.269 34.6653 159.318 33.9737C159.371 33.2423 159.316 32.6167 159.152 32.097C159.003 31.565 158.752 31.1527 158.399 30.86C158.047 30.554 157.584 30.3804 157.013 30.3394C156.521 30.3041 156.086 30.3933 155.71 30.6069C155.335 30.8072 155.036 31.1467 154.815 31.6254C154.594 32.0909 154.459 32.676 154.408 33.3808C154.327 34.5113 154.492 35.3853 154.902 36.0029C155.312 36.6205 155.916 36.9579 156.714 37.0152ZM165.407 39.5036L163.565 28.8445L166.558 29.0592L167.446 37.364L167.825 37.3912L170.168 29.3182L173.619 29.5658L174.847 37.895L175.226 37.9222L177.25 29.8263L180.183 30.0367L176.818 40.3223L172.868 40.0389L171.816 31.7825L171.477 31.7581L169.337 39.7856L165.407 39.5036ZM182.034 36.4456L181.917 27.4542L185.189 27.6889L183.81 36.573L182.034 36.4456ZM182.61 40.9985C181.985 40.9537 181.522 40.7868 181.222 40.4979C180.935 40.21 180.812 39.7867 180.852 39.2282C180.893 38.6563 181.076 38.2484 181.401 38.0043C181.739 37.7612 182.221 37.6621 182.846 37.707C183.471 37.7518 183.934 37.9187 184.234 38.2076C184.534 38.4964 184.664 38.9268 184.622 39.4987C184.544 40.5892 183.873 41.0892 182.61 40.9985Z" fill="#516ED4"/>
</svg>
