<svg width="83" height="103" viewBox="0 0 83 103" fill="none" xmlns="http://www.w3.org/2000/svg">
<path d="M32.8081 96.4947C35.6024 98.813 38.5166 100.932 41.5 103C44.4898 100.959 47.3899 98.7889 50.1919 96.4947C54.863 92.638 59.259 88.4562 63.3475 83.9802C72.7726 73.6171 83 58.5942 83 41.7304C83 36.2503 81.9266 30.8239 79.841 25.7609C77.7554 20.6979 74.6986 16.0976 70.8449 12.2226C66.9913 8.34753 62.4164 5.27369 57.3814 3.17654C52.3464 1.07939 46.9499 0 41.5 0C36.0501 0 30.6537 1.07939 25.6186 3.17654C20.5836 5.27369 16.0087 8.34753 12.1551 12.2226C8.30144 16.0976 5.24457 20.6979 3.159 25.7609C1.07343 30.8239 -8.12092e-08 36.2503 0 41.7304C0 58.5942 10.2274 73.6125 19.6526 83.9802C23.7409 88.4578 28.1368 92.6365 32.8081 96.4947ZM41.5 56.7998C37.5254 56.7998 33.7137 55.2121 30.9032 52.3861C28.0928 49.56 26.5139 45.7271 26.5139 41.7304C26.5139 37.7338 28.0928 33.9009 30.9032 31.0748C33.7137 28.2488 37.5254 26.6611 41.5 26.6611C45.4746 26.6611 49.2863 28.2488 52.0968 31.0748C54.9072 33.9009 56.4861 37.7338 56.4861 41.7304C56.4861 45.7271 54.9072 49.56 52.0968 52.3861C49.2863 55.2121 45.4746 56.7998 41.5 56.7998Z" fill="#243E83"/>
</svg>
