<svg width="380" height="99" viewBox="0 0 380 99" fill="none" xmlns="http://www.w3.org/2000/svg">
<g filter="url(#filter0_d_1043_78)">
<rect x="8.98668" y="1.07881" width="368.26" height="59.71" rx="14" transform="rotate(4.71494 8.98668 1.07881)" fill="#3A559E" stroke="white" stroke-width="2"/>
<path d="M91.4048 48.0561L93.1408 27.0076L101.445 27.6925C103.035 27.8236 104.368 28.2199 105.445 28.8812C106.529 29.5363 107.323 30.4055 107.827 31.4887C108.338 32.5656 108.537 33.7995 108.422 35.1904C108.307 36.5882 107.906 37.7658 107.22 38.7233C106.534 39.6739 105.598 40.3692 104.409 40.8093C103.228 41.2499 101.828 41.4036 100.211 41.2702L94.6513 40.8116L94.9463 37.235L99.787 37.6342C100.637 37.7043 101.352 37.646 101.933 37.4594C102.514 37.2728 102.961 36.9578 103.273 36.5145C103.593 36.0718 103.781 35.5044 103.838 34.8124C103.896 34.1135 103.804 33.5127 103.562 33.0099C103.328 32.5076 102.936 32.1097 102.388 31.8162C101.847 31.5163 101.148 31.3311 100.292 31.2604L97.291 31.0129L95.855 48.4232L91.4048 48.0561ZM103.562 39.4149L108.003 49.4251L103.09 49.0199L98.7622 39.0191L103.562 39.4149ZM117.23 50.4966C115.606 50.3626 114.236 49.9185 113.118 49.1641C112.008 48.4034 111.188 47.3907 110.658 46.1259C110.128 44.8543 109.932 43.386 110.069 41.7211C110.203 40.0972 110.636 38.698 111.367 37.5236C112.099 36.3491 113.065 35.4665 114.266 34.8757C115.473 34.2854 116.851 34.0542 118.4 34.1819C119.441 34.2678 120.397 34.5156 121.267 34.9254C122.144 35.3288 122.891 35.8906 123.508 36.6106C124.131 37.3312 124.59 38.2106 124.884 39.2489C125.178 40.2803 125.27 41.4675 125.159 42.8104L125.06 44.0129L111.73 42.9135L111.954 40.2002L121.162 40.9597C121.214 40.3293 121.123 39.7596 120.889 39.2505C120.655 38.7415 120.307 38.3298 119.843 38.0156C119.386 37.6952 118.839 37.5086 118.202 37.4561C117.538 37.4013 116.936 37.5068 116.396 37.7728C115.864 38.0324 115.433 38.4073 115.103 38.8975C114.774 39.3808 114.58 39.9339 114.521 40.5568L114.309 43.1365C114.244 43.9176 114.332 44.6044 114.573 45.1968C114.821 45.7898 115.199 46.2625 115.708 46.6149C116.217 46.9673 116.838 47.1738 117.572 47.2342C118.058 47.2743 118.509 47.2426 118.925 47.1389C119.34 47.0352 119.703 46.8582 120.014 46.6078C120.324 46.3575 120.571 46.0398 120.754 45.6549L124.782 46.2561C124.496 47.2121 124.004 48.0269 123.307 48.7007C122.618 49.3681 121.756 49.8627 120.722 50.1844C119.696 50.4999 118.532 50.6039 117.23 50.4966ZM133.955 57.8569C132.537 57.7399 131.337 57.4443 130.355 56.9701C129.379 56.5034 128.621 55.9131 128.08 55.1993C127.538 54.4855 127.213 53.7067 127.103 52.863L131.197 52.6523C131.295 52.9776 131.466 53.2883 131.71 53.5845C131.955 53.8806 132.29 54.1289 132.715 54.3295C133.146 54.5376 133.68 54.6678 134.317 54.7204C135.27 54.799 136.073 54.6307 136.729 54.2156C137.39 53.808 137.765 53.0629 137.855 51.9803L138.093 49.0923L137.908 49.0771C137.68 49.4997 137.358 49.8905 136.942 50.2494C136.526 50.6083 136.006 50.8863 135.383 51.0832C134.76 51.2801 134.03 51.3441 133.194 51.2752C132.009 51.1774 130.952 50.8143 130.025 50.1859C129.104 49.5513 128.403 48.6415 127.921 47.4567C127.447 46.2655 127.282 44.7963 127.426 43.0491C127.574 41.2608 127.988 39.7912 128.669 38.6402C129.351 37.4891 130.199 36.6554 131.214 36.139C132.236 35.6232 133.326 35.413 134.484 35.5085C135.368 35.5814 136.096 35.7932 136.667 36.1438C137.239 36.4876 137.688 36.8971 138.014 37.3724C138.348 37.8415 138.597 38.2966 138.76 38.7378L138.925 38.7513L139.144 36.0997L143.491 36.4583L142.176 52.3989C142.066 53.7418 141.644 54.8384 140.912 55.6885C140.179 56.5387 139.212 57.1419 138.01 57.498C136.814 57.8616 135.463 57.9812 133.955 57.8569ZM134.853 48.1008C135.559 48.159 136.169 48.0334 136.684 47.7241C137.207 47.4085 137.626 46.9326 137.94 46.2963C138.262 45.6537 138.462 44.8699 138.538 43.9449C138.614 43.0199 138.55 42.2076 138.346 41.5078C138.142 40.8011 137.809 40.239 137.347 39.8215C136.884 39.4039 136.3 39.1661 135.595 39.1079C134.875 39.0485 134.253 39.1938 133.727 39.5437C133.202 39.8867 132.785 40.3903 132.475 41.0546C132.165 41.7188 131.973 42.4998 131.899 43.3973C131.823 44.3086 131.885 45.107 132.084 45.7925C132.29 46.4718 132.621 47.013 133.078 47.4163C133.542 47.8133 134.134 48.0414 134.853 48.1008ZM145.673 52.532L146.975 36.7457L151.353 37.1068L150.051 52.8932L145.673 52.532ZM149.342 34.8921C148.691 34.8384 148.151 34.5765 147.721 34.1064C147.298 33.6301 147.111 33.087 147.162 32.4772C147.211 31.8742 147.484 31.3758 147.978 30.982C148.48 30.582 149.057 30.4088 149.708 30.4624C150.359 30.5161 150.896 30.7812 151.318 31.2575C151.749 31.7276 151.939 32.2641 151.889 32.8671C151.839 33.4769 151.563 33.9818 151.061 34.3819C150.566 34.7757 149.993 34.9458 149.342 34.8921ZM167.624 42.9809L163.596 42.897C163.555 42.5488 163.433 42.2283 163.23 41.9356C163.027 41.636 162.747 41.3887 162.391 41.1938C162.042 40.9925 161.614 40.871 161.107 40.8292C160.428 40.7732 159.844 40.8699 159.355 41.1193C158.866 41.3618 158.602 41.7194 158.563 42.1922C158.532 42.569 158.656 42.9001 158.936 43.1853C159.216 43.4705 159.716 43.7222 160.436 43.9402L163.246 44.7514C164.755 45.1932 165.857 45.7946 166.553 46.5556C167.249 47.3167 167.55 48.2659 167.457 49.4033C167.371 50.4379 166.991 51.3206 166.317 52.0514C165.65 52.7828 164.771 53.3242 163.679 53.6757C162.595 54.0209 161.368 54.137 159.998 54.0239C157.908 53.8516 156.279 53.2792 155.111 52.3067C153.95 51.328 153.325 50.0761 153.237 48.5512L157.562 48.6803C157.64 49.3283 157.915 49.8407 158.387 50.2177C158.86 50.5879 159.487 50.8051 160.268 50.8696C161.036 50.9329 161.665 50.8364 162.155 50.5802C162.652 50.3177 162.924 49.9504 162.97 49.4782C162.996 49.0802 162.855 48.7409 162.547 48.4603C162.239 48.1728 161.749 47.9323 161.075 47.7387L158.386 46.9685C156.87 46.533 155.766 45.9039 155.075 45.0812C154.391 44.2591 154.098 43.2588 154.195 42.0803C154.279 41.0662 154.625 40.2152 155.233 39.5273C155.849 38.8399 156.673 38.3388 157.706 38.0239C158.746 37.7096 159.941 37.6081 161.291 37.7194C163.285 37.8839 164.819 38.4347 165.894 39.3718C166.975 40.3095 167.552 41.5125 167.624 42.9809ZM179.509 39.429L179.238 42.7178L169.731 41.9337L170.002 38.6449L179.509 39.429ZM172.472 35.0407L176.851 35.4018L175.637 50.1193C175.603 50.5236 175.639 50.8439 175.744 51.0801C175.849 51.3096 176.008 51.4779 176.219 51.585C176.438 51.6927 176.695 51.7588 176.99 51.7831C177.195 51.8 177.402 51.7998 177.61 51.7825C177.819 51.7584 177.98 51.7405 178.091 51.729L178.511 55.0438C178.286 55.0942 177.971 55.1476 177.566 55.2039C177.161 55.2671 176.673 55.2855 176.103 55.2591C175.044 55.2132 174.131 54.9964 173.363 54.6089C172.601 54.2218 172.029 53.6711 171.647 52.9566C171.264 52.2421 171.119 51.3678 171.211 50.3338L172.472 35.0407ZM188.058 56.3383C186.434 56.2044 185.064 55.7602 183.946 55.0058C182.836 54.2451 182.016 53.2324 181.486 51.9676C180.956 50.696 180.76 49.2278 180.897 47.5628C181.031 45.9389 181.464 44.5398 182.195 43.3653C182.927 42.1908 183.893 41.3082 185.094 40.7174C186.301 40.1271 187.679 39.8959 189.228 40.0236C190.269 40.1095 191.225 40.3573 192.095 40.7671C192.972 41.1706 193.719 41.7323 194.336 42.4523C194.959 43.1729 195.418 44.0523 195.712 45.0906C196.006 46.122 196.098 47.3092 195.987 48.6522L195.888 49.8546L182.558 48.7552L182.782 46.0419L191.99 46.8014C192.042 46.1711 191.951 45.6014 191.718 45.0923C191.484 44.5832 191.135 44.1716 190.671 43.8574C190.214 43.5369 189.668 43.3504 189.03 43.2978C188.366 43.243 187.764 43.3486 187.224 43.6145C186.693 43.8742 186.261 44.2491 185.931 44.7392C185.602 45.2225 185.408 45.7756 185.35 46.3986L185.137 48.9782C185.072 49.7593 185.161 50.4461 185.401 51.0385C185.649 51.6315 186.028 52.1042 186.537 52.4566C187.046 52.809 187.667 53.0155 188.4 53.0759C188.886 53.1161 189.337 53.0843 189.753 52.9806C190.168 52.8769 190.531 52.6999 190.842 52.4496C191.152 52.1992 191.399 51.8816 191.582 51.4966L195.61 52.0978C195.324 53.0538 194.833 53.8687 194.135 54.5424C193.446 55.2098 192.584 55.7044 191.55 56.0262C190.524 56.3416 189.36 56.4457 188.058 56.3383ZM198.187 56.8632L199.489 41.0768L203.733 41.4269L203.506 44.1813L203.67 44.1949C204.039 43.2388 204.583 42.5387 205.303 42.0944C206.023 41.6434 206.825 41.4543 207.709 41.5272C207.928 41.5452 208.163 41.5784 208.414 41.6268C208.666 41.6751 208.885 41.7311 209.073 41.7949L208.753 45.6798C208.552 45.6012 208.273 45.523 207.913 45.445C207.554 45.3671 207.224 45.3157 206.922 45.2909C206.278 45.2378 205.691 45.3308 205.161 45.5699C204.638 45.8027 204.209 46.1536 203.874 46.6226C203.545 47.0922 203.355 47.649 203.301 48.2931L202.565 57.2243L198.187 56.8632ZM236.151 38.8027L234.415 59.8513L230.571 59.5342L222.507 45.5311L222.352 45.5184L221.26 58.7662L216.81 58.3992L218.546 37.3507L222.451 37.6728L230.445 51.6597L230.63 51.6749L231.721 38.4374L236.151 38.8027ZM245.117 61.0444C243.52 60.9127 242.168 60.4596 241.059 59.6853C239.958 58.9046 239.142 57.8784 238.612 56.6068C238.083 55.3284 237.885 53.8807 238.018 52.2637C238.153 50.6329 238.586 49.2338 239.317 48.0662C240.048 46.8917 241.021 46.013 242.235 45.4302C243.456 44.8411 244.865 44.6124 246.461 44.7441C248.058 44.8757 249.407 45.3319 250.508 46.1126C251.617 46.887 252.436 47.9134 252.965 49.1919C253.495 50.4635 253.693 51.9146 253.558 53.5453C253.425 55.1623 252.992 56.5581 252.261 57.7325C251.53 58.9002 250.554 59.7785 249.332 60.3676C248.119 60.9505 246.713 61.176 245.117 61.0444ZM245.417 57.6544C246.143 57.7143 246.767 57.5588 247.287 57.1878C247.808 56.81 248.222 56.2715 248.528 55.5724C248.84 54.8739 249.035 54.0656 249.11 53.1475C249.186 52.2293 249.127 51.4001 248.933 50.6597C248.745 49.92 248.426 49.321 247.974 48.863C247.522 48.4049 246.933 48.1459 246.206 48.086C245.473 48.0255 244.839 48.1836 244.305 48.5603C243.777 48.9376 243.357 49.4755 243.044 50.174C242.738 50.8731 242.547 51.6817 242.471 52.5999C242.395 53.518 242.451 54.3469 242.639 55.0867C242.833 55.8271 243.159 56.4266 243.618 56.8852C244.084 57.3376 244.684 57.594 245.417 57.6544ZM258.478 61.8359L255.484 45.6952L259.913 46.0605L261.484 56.8687L261.628 56.8806L265.052 46.4843L269.399 46.8429L271.12 57.6013L271.253 57.6124L274.528 47.2659L278.947 47.6304L273.359 63.0633L268.724 62.681L266.83 52.5291L266.635 52.5129L263.102 62.2173L258.478 61.8359ZM286.948 42.9924L285.332 57.6974L281.57 57.3871L282.375 42.6151L286.948 42.9924ZM282.908 64.1199C282.23 64.064 281.668 63.7761 281.221 63.2564C280.774 62.7298 280.582 62.1276 280.645 61.4499C280.694 60.7778 280.981 60.222 281.507 59.7826C282.033 59.3431 282.635 59.1513 283.314 59.2072C283.965 59.2609 284.517 59.5479 284.971 60.0682C285.424 60.5885 285.627 61.1847 285.579 61.8567C285.534 62.3084 285.38 62.713 285.116 63.0707C284.86 63.422 284.537 63.6955 284.148 63.8911C283.76 64.0798 283.347 64.1561 282.908 64.1199Z" fill="white"/>
</g>
<defs>
<filter id="filter0_d_1043_78" x="0.181152" y="1.1814" width="379.717" height="97.5732" filterUnits="userSpaceOnUse" color-interpolation-filters="sRGB">
<feFlood flood-opacity="0" result="BackgroundImageFix"/>
<feColorMatrix in="SourceAlpha" type="matrix" values="0 0 0 0 0 0 0 0 0 0 0 0 0 0 0 0 0 0 127 0" result="hardAlpha"/>
<feOffset dy="4"/>
<feGaussianBlur stdDeviation="2"/>
<feComposite in2="hardAlpha" operator="out"/>
<feColorMatrix type="matrix" values="0 0 0 0 0 0 0 0 0 0 0 0 0 0 0 0 0 0 0.25 0"/>
<feBlend mode="normal" in2="BackgroundImageFix" result="effect1_dropShadow_1043_78"/>
<feBlend mode="normal" in="SourceGraphic" in2="effect1_dropShadow_1043_78" result="shape"/>
</filter>
</defs>
</svg>
