<svg width="532" height="303" viewBox="0 0 532 303" fill="none" xmlns="http://www.w3.org/2000/svg">
<path d="M445.096 196.372L445.26 197.232L496.102 188.832L495.938 187.972L445.096 196.372Z" fill="black"/>
<path d="M444.77 194.651L444.934 195.511L495.776 187.111L495.612 186.251L444.77 194.651Z" fill="black"/>
<path d="M444.441 192.931L444.604 193.791L495.447 185.391L495.283 184.531L444.441 192.931Z" fill="black"/>
<path d="M444.114 191.211L444.278 192.071L495.12 183.671L494.956 182.811L444.114 191.211Z" fill="black"/>
<path d="M443.458 187.771L443.95 190.352L494.792 181.951L494.3 179.371L443.458 187.771Z" fill="black"/>
<path d="M442.476 182.61L442.967 185.19L493.809 176.79L493.318 174.21L442.476 182.61Z" fill="black"/>
<path d="M441.819 179.17L441.983 180.03L492.825 171.63L492.662 170.77L441.819 179.17Z" fill="black"/>
<path d="M441.49 177.451L441.654 178.311L492.496 169.911L492.332 169.051L441.49 177.451Z" fill="black"/>
<path d="M441.161 175.73L441.325 176.59L492.167 168.19L492.003 167.33L441.161 175.73Z" fill="black"/>
<path d="M440.507 172.29L440.999 174.87L491.841 166.47L491.349 163.89L440.507 172.29Z" fill="black"/>
<path d="M439.525 167.129L440.017 169.709L490.859 161.309L490.367 158.729L439.525 167.129Z" fill="black"/>
<path d="M438.868 163.689L439.032 164.549L489.874 156.149L489.71 155.289L438.868 163.689Z" fill="black"/>
<path d="M438.542 161.97L438.706 162.83L489.548 154.429L489.384 153.569L438.542 161.97Z" fill="black"/>
<path d="M438.213 160.249L438.377 161.109L489.219 152.709L489.055 151.849L438.213 160.249Z" fill="black"/>
<path d="M437.557 156.809L438.048 159.389L488.89 150.989L488.399 148.409L437.557 156.809Z" fill="black"/>
<path d="M436.573 151.649L437.064 154.229L487.906 145.829L487.415 143.249L436.573 151.649Z" fill="black"/>
<path d="M435.918 148.208L436.082 149.068L486.924 140.668L486.76 139.808L435.918 148.208Z" fill="black"/>
<path d="M435.591 146.489L435.755 147.349L486.597 138.948L486.433 138.088L435.591 146.489Z" fill="black"/>
<path d="M435.262 144.768L435.426 145.628L486.268 137.228L486.104 136.368L435.262 144.768Z" fill="black"/>
<path d="M434.608 141.328L435.1 143.908L485.942 135.508L485.45 132.928L434.608 141.328Z" fill="black"/>
<path d="M433.622 136.167L434.114 138.748L484.956 130.347L484.464 127.767L433.622 136.167Z" fill="black"/>
<path d="M432.967 132.727L433.131 133.587L483.973 125.187L483.809 124.327L432.967 132.727Z" fill="black"/>
<path d="M432.639 131.008L432.803 131.868L483.645 123.468L483.481 122.607L432.639 131.008Z" fill="black"/>
<path d="M432.312 129.287L432.476 130.147L483.318 121.747L483.154 120.887L432.312 129.287Z" fill="black"/>
<path d="M431.655 125.846L432.147 128.427L482.989 120.026L482.497 117.446L431.655 125.846Z" fill="black"/>
<path d="M430.673 120.686L431.165 123.266L482.007 114.866L481.515 112.286L430.673 120.686Z" fill="black"/>
<path d="M430.019 117.246L430.183 118.106L481.025 109.706L480.861 108.846L430.019 117.246Z" fill="black"/>
<path d="M429.69 115.526L429.854 116.386L480.696 107.986L480.532 107.126L429.69 115.526Z" fill="black"/>
<path d="M429.361 113.806L429.525 114.666L480.367 106.266L480.203 105.406L429.361 113.806Z" fill="black"/>
<path d="M428.707 110.366L429.199 112.946L480.041 104.546L479.549 101.966L428.707 110.366Z" fill="black"/>
<path d="M427.723 105.205L428.214 107.786L479.056 99.3855L478.565 96.8053L427.723 105.205Z" fill="black"/>
<path d="M427.068 101.765L427.232 102.625L478.074 94.2251L477.91 93.365L427.068 101.765Z" fill="black"/>
<path d="M426.739 100.045L426.903 100.905L477.745 92.5051L477.581 91.645L426.739 100.045Z" fill="black"/>
<path d="M426.411 98.3245L426.575 99.1846L477.417 90.7844L477.253 89.9243L426.411 98.3245Z" fill="black"/>
<path d="M425.756 94.8849L426.248 97.4651L477.09 89.0649L476.598 86.4847L425.756 94.8849Z" fill="black"/>
<path d="M424.772 89.7243L425.264 92.3044L476.106 83.9043L475.614 81.3241L424.772 89.7243Z" fill="black"/>
<path d="M424.116 86.2837L424.28 87.1438L475.122 78.7436L474.958 77.8836L424.116 86.2837Z" fill="black"/>
<path d="M423.461 82.8436L423.953 85.4238L474.795 77.0237L474.303 74.4435L423.461 82.8436Z" fill="black"/>
<path d="M423.133 81.1241L423.297 81.9841L474.139 73.584L473.975 72.7239L423.133 81.1241Z" fill="black"/>
<path d="M10.1685 113.509C11.2141 112.781 12.4513 112.283 13.7646 112.063L368.498 50.2012C370.102 49.9192 371.752 50.0639 373.22 50.6153C374.689 51.1667 375.903 52.0976 376.696 53.2792C378.255 55.6325 380.634 57.5059 383.52 58.6533C386.405 59.8008 389.663 60.1685 392.865 59.7082C393.048 59.6762 393.241 59.6427 393.433 59.6091C396.716 59.0371 399.742 57.6179 402.092 55.5486C404.441 53.4792 405.997 50.8625 406.544 48.0617C406.817 46.6953 407.581 45.4199 408.731 44.412C409.881 43.4041 411.359 42.7133 412.962 42.435L473.301 31.9125C474.316 31.7349 475.356 31.7277 476.361 31.8913C477.365 32.0549 478.315 32.386 479.156 32.8658C479.997 33.3456 480.713 33.9645 481.262 34.6873C481.811 35.4102 482.183 36.2227 482.356 37.0783L517.754 211.109C517.928 211.965 517.901 212.847 517.674 213.705C517.446 214.563 517.023 215.381 516.428 216.111C515.833 216.841 515.078 217.47 514.207 217.96C513.335 218.451 512.364 218.795 511.348 218.971L451.009 229.494C449.407 229.776 447.758 229.631 446.291 229.079C444.824 228.527 443.611 227.596 442.821 226.414C441.211 223.989 438.734 222.076 435.732 220.94C432.731 219.804 429.354 219.501 426.072 220.074C425.879 220.108 425.687 220.141 425.503 220.173C422.34 220.823 419.45 222.263 417.213 224.304C414.975 226.344 413.496 228.891 412.968 231.608C412.694 232.976 411.929 234.252 410.778 235.261C409.626 236.269 408.146 236.959 406.541 237.236L51.7979 299.099C50.7826 299.277 49.7429 299.284 48.7382 299.121C47.7335 298.957 46.7835 298.626 45.9425 298.146C45.1015 297.666 44.386 297.047 43.837 296.325C43.2879 295.602 42.9161 294.789 42.7427 293.934L7.34583 119.907C7.11053 118.743 7.2481 117.537 7.74432 116.412C8.24054 115.288 9.07737 114.286 10.1685 113.509ZM423.041 211.846C423.081 212.054 423.191 212.246 423.359 212.4C423.526 212.553 423.744 212.66 423.985 212.71C424.175 212.761 424.38 212.768 424.578 212.729C424.751 212.699 424.917 212.641 425.066 212.557C425.215 212.474 425.345 212.366 425.446 212.242C425.548 212.117 425.62 211.977 425.659 211.83C425.697 211.684 425.702 211.533 425.671 211.387L423.05 198.502C422.99 198.207 422.794 197.948 422.504 197.783C422.214 197.617 421.854 197.559 421.504 197.62C421.307 197.652 421.12 197.724 420.959 197.83C420.835 197.906 420.728 198 420.641 198.106C420.438 198.36 420.359 198.669 420.421 198.964L423.041 211.846ZM418.552 189.775C418.592 189.984 418.702 190.176 418.87 190.329C419.037 190.482 419.254 190.59 419.496 190.639C419.687 190.689 419.891 190.695 420.089 190.659C420.263 190.63 420.43 190.572 420.579 190.489C420.729 190.405 420.859 190.298 420.96 190.173C421.062 190.048 421.134 189.908 421.172 189.761C421.21 189.614 421.214 189.463 421.182 189.316L418.559 176.419C418.53 176.273 418.467 176.134 418.373 176.01C418.279 175.887 418.157 175.781 418.014 175.699C417.87 175.617 417.707 175.561 417.536 175.533C417.364 175.505 417.186 175.507 417.013 175.537C416.815 175.57 416.628 175.642 416.467 175.747C416.344 175.822 416.236 175.915 416.148 176.02C415.946 176.274 415.868 176.582 415.929 176.878L418.552 189.775ZM414.063 167.705C414.103 167.913 414.214 168.105 414.381 168.258C414.548 168.411 414.766 168.519 415.007 168.569C415.198 168.618 415.402 168.625 415.599 168.588C415.774 168.558 415.942 168.498 416.091 168.413C416.241 168.328 416.37 168.219 416.471 168.092C416.573 167.967 416.645 167.826 416.683 167.679C416.721 167.532 416.723 167.38 416.691 167.234L414.07 154.349C414.041 154.203 413.977 154.064 413.884 153.94C413.79 153.816 413.668 153.71 413.524 153.629C413.381 153.547 413.218 153.49 413.047 153.462C412.875 153.435 412.697 153.436 412.524 153.467C412.326 153.5 412.139 153.571 411.978 153.677C411.853 153.751 411.745 153.843 411.659 153.95C411.457 154.204 411.378 154.512 411.44 154.807L414.063 167.705ZM409.573 145.63C409.613 145.839 409.723 146.032 409.89 146.186C410.058 146.34 410.276 146.448 410.518 146.498C410.709 146.546 410.912 146.552 411.11 146.514C411.283 146.484 411.449 146.426 411.598 146.342C411.747 146.258 411.876 146.151 411.978 146.026C412.08 145.901 412.152 145.762 412.191 145.615C412.229 145.468 412.233 145.318 412.203 145.172L409.581 132.282C409.552 132.136 409.488 131.998 409.394 131.875C409.301 131.752 409.179 131.646 409.035 131.565C408.891 131.483 408.729 131.427 408.558 131.4C408.387 131.372 408.209 131.374 408.036 131.404C407.839 131.438 407.652 131.512 407.491 131.618C407.367 131.692 407.258 131.785 407.172 131.891C407.071 132.017 407 132.157 406.962 132.304C406.924 132.451 406.921 132.603 406.953 132.749L409.573 145.63ZM405.084 123.56C405.123 123.769 405.233 123.961 405.401 124.114C405.568 124.268 405.786 124.375 406.028 124.424C406.218 124.475 406.423 124.482 406.62 124.443C406.972 124.383 407.285 124.209 407.495 123.959C407.695 123.704 407.773 123.397 407.714 123.101L405.093 110.216C405.033 109.921 404.837 109.662 404.547 109.497C404.257 109.331 403.897 109.273 403.547 109.334C403.196 109.396 402.882 109.571 402.674 109.822C402.472 110.077 402.393 110.385 402.455 110.68L405.084 123.56ZM400.595 101.489C400.635 101.698 400.745 101.89 400.912 102.043C401.08 102.197 401.297 102.304 401.539 102.353C401.729 102.405 401.934 102.412 402.131 102.373C402.305 102.343 402.471 102.285 402.62 102.201C402.769 102.117 402.898 102.01 403 101.885C403.102 101.761 403.174 101.621 403.212 101.474C403.251 101.327 403.255 101.177 403.225 101.031L400.604 88.1453C400.544 87.8504 400.347 87.5918 400.058 87.4264C399.768 87.261 399.408 87.2024 399.058 87.2635C398.861 87.296 398.673 87.368 398.512 87.4734C398.389 87.55 398.281 87.6436 398.194 87.7501C397.991 88.0041 397.912 88.3125 397.975 88.6079L400.595 101.489ZM396.106 79.4188C396.146 79.6274 396.256 79.8197 396.423 79.9729C396.591 80.1261 396.808 80.2337 397.05 80.2827C397.24 80.3322 397.444 80.339 397.642 80.3024C397.816 80.2737 397.983 80.2159 398.133 80.1325C398.283 80.0491 398.412 79.9418 398.514 79.8167C398.616 79.6917 398.688 79.5515 398.726 79.4045C398.764 79.2574 398.767 79.1063 398.736 78.9602L396.115 66.0749C396.086 65.9286 396.023 65.7896 395.929 65.666C395.835 65.5424 395.713 65.4365 395.57 65.3545C395.426 65.2726 395.264 65.2161 395.092 65.1884C394.92 65.1606 394.742 65.1622 394.569 65.193C394.371 65.2255 394.184 65.2975 394.023 65.4029C393.9 65.478 393.792 65.5703 393.704 65.6757C393.501 65.9297 393.423 66.2381 393.485 66.5335L396.106 79.4188Z" fill="#E2E2E2"/>
<g filter="url(#filter0_d_1035_482)">
<path d="M21.1201 58.957C22.2317 58.3048 23.5107 57.8969 24.8376 57.7712L383.468 21.5822C385.09 21.4163 386.715 21.68 388.119 22.3371C389.523 22.9941 390.637 24.012 391.306 25.2499C392.621 27.7139 394.797 29.7576 397.55 31.1126C400.303 32.4676 403.503 33.0703 406.73 32.8416C406.915 32.8229 407.11 32.8033 407.305 32.7837C410.623 32.4493 413.772 31.2498 416.313 29.3518C418.854 27.4538 420.661 24.9516 421.483 22.1926C421.891 20.8469 422.778 19.6278 424.021 18.7037C425.263 17.7796 426.801 17.1961 428.421 17.0339L489.424 10.8782C490.45 10.7741 491.484 10.842 492.466 11.078C493.448 11.314 494.358 11.7135 495.146 12.2537C495.934 12.7938 496.583 13.464 497.056 14.2259C497.53 14.9878 497.818 15.8265 497.905 16.694L515.71 193.143C515.799 194.01 515.684 194.89 515.372 195.731C515.06 196.572 514.558 197.358 513.894 198.045C513.23 198.732 512.418 199.305 511.503 199.733C510.588 200.16 509.588 200.433 508.562 200.536L447.559 206.692C445.939 206.858 444.315 206.594 442.913 205.936C441.51 205.279 440.398 204.261 439.731 203.023C438.374 200.484 436.103 198.393 433.234 197.041C430.365 195.689 427.041 195.143 423.722 195.478C423.527 195.498 423.333 195.517 423.147 195.536C419.94 195.957 416.924 197.187 414.498 199.064C412.071 200.942 410.347 203.379 409.551 206.056C409.143 207.403 408.255 208.623 407.011 209.548C405.766 210.472 404.226 211.055 402.604 211.216L43.9638 247.406C42.9373 247.51 41.9036 247.442 40.9216 247.206C39.9397 246.97 39.0289 246.571 38.2411 246.03C37.4534 245.49 36.8043 244.82 36.3308 244.058C35.8574 243.296 35.569 242.458 35.4821 241.59L17.6773 65.1451C17.5596 63.9656 17.8167 62.7702 18.4219 61.6823C19.0272 60.5945 19.9586 59.6536 21.1201 58.957ZM421.532 187.037C421.551 187.249 421.641 187.449 421.792 187.614C421.943 187.779 422.149 187.902 422.384 187.969C422.567 188.034 422.77 188.056 422.97 188.031C423.146 188.014 423.317 187.968 423.473 187.895C423.63 187.822 423.769 187.724 423.882 187.607C423.996 187.49 424.081 187.355 424.134 187.211C424.187 187.068 424.206 186.917 424.191 186.769L422.873 173.705C422.842 173.406 422.673 173.133 422.401 172.947C422.13 172.761 421.778 172.676 421.425 172.712C421.225 172.73 421.032 172.789 420.861 172.882C420.731 172.95 420.615 173.036 420.518 173.136C420.291 173.375 420.182 173.677 420.214 173.977L421.532 187.037ZM419.274 164.66C419.293 164.871 419.383 165.072 419.534 165.237C419.685 165.402 419.89 165.525 420.126 165.592C420.31 165.655 420.512 165.676 420.712 165.654C420.888 165.638 421.06 165.592 421.217 165.52C421.374 165.447 421.513 165.349 421.627 165.232C421.741 165.114 421.826 164.979 421.879 164.835C421.931 164.691 421.95 164.54 421.933 164.392L420.613 151.316C420.599 151.167 420.55 151.024 420.469 150.894C420.389 150.763 420.278 150.649 420.143 150.556C420.009 150.464 419.853 150.396 419.685 150.356C419.517 150.316 419.341 150.304 419.165 150.323C418.966 150.341 418.773 150.399 418.602 150.493C418.472 150.559 418.355 150.644 418.258 150.743C418.032 150.982 417.923 151.284 417.954 151.584L419.274 164.66ZM417.016 142.283C417.035 142.494 417.126 142.694 417.277 142.859C417.428 143.024 417.633 143.148 417.868 143.215C418.052 143.278 418.254 143.299 418.454 143.277C418.631 143.259 418.803 143.212 418.961 143.138C419.118 143.063 419.257 142.963 419.37 142.844C419.484 142.726 419.57 142.591 419.622 142.447C419.674 142.302 419.692 142.151 419.674 142.003L418.355 128.938C418.341 128.79 418.292 128.647 418.211 128.516C418.131 128.386 418.02 128.272 417.885 128.179C417.751 128.087 417.595 128.019 417.427 127.979C417.259 127.939 417.083 127.927 416.907 127.946C416.708 127.964 416.515 128.022 416.344 128.116C416.213 128.181 416.096 128.265 416 128.365C415.774 128.605 415.665 128.907 415.696 129.207L417.016 142.283ZM414.757 119.902C414.776 120.114 414.866 120.315 415.017 120.481C415.168 120.646 415.374 120.77 415.61 120.837C415.794 120.899 415.996 120.919 416.196 120.896C416.371 120.879 416.542 120.832 416.699 120.759C416.855 120.687 416.994 120.589 417.108 120.471C417.221 120.354 417.307 120.22 417.36 120.076C417.413 119.932 417.432 119.782 417.416 119.634L416.098 106.565C416.083 106.417 416.033 106.275 415.952 106.145C415.872 106.015 415.761 105.901 415.626 105.809C415.492 105.717 415.336 105.649 415.169 105.609C415.001 105.569 414.825 105.558 414.65 105.577C414.45 105.596 414.257 105.656 414.087 105.751C413.956 105.816 413.839 105.9 413.743 106C413.63 106.118 413.545 106.254 413.493 106.398C413.441 106.542 413.423 106.693 413.44 106.842L414.757 119.902ZM412.499 97.5249C412.518 97.7363 412.608 97.9367 412.759 98.102C412.91 98.2672 413.116 98.3903 413.351 98.4563C413.535 98.5215 413.737 98.5431 413.938 98.5187C414.293 98.4839 414.622 98.3328 414.855 98.0979C415.079 97.8576 415.188 97.5561 415.158 97.2566L413.84 84.1922C413.81 83.8932 413.64 83.6206 413.369 83.4344C413.097 83.2482 412.746 83.1637 412.392 83.1994C412.037 83.2357 411.708 83.3882 411.476 83.6242C411.25 83.8638 411.141 84.1659 411.172 84.4655L412.499 97.5249ZM410.241 75.1478C410.26 75.359 410.35 75.5592 410.501 75.7244C410.653 75.8895 410.858 76.0127 411.093 76.0792C411.277 76.1444 411.479 76.166 411.68 76.1416C411.855 76.1244 412.026 76.0781 412.183 76.0052C412.339 75.9324 412.478 75.8345 412.591 75.7172C412.705 75.5998 412.791 75.4655 412.844 75.3217C412.897 75.1779 412.916 75.0276 412.9 74.8795L411.582 61.8151C411.552 61.5161 411.382 61.2435 411.111 61.0573C410.839 60.8711 410.488 60.7866 410.134 60.8223C409.934 60.8405 409.741 60.899 409.571 60.9926C409.441 61.0602 409.324 61.146 409.227 61.2461C409 61.4853 408.891 61.7877 408.923 62.0874L410.241 75.1478ZM407.983 52.7706C408.002 52.9819 408.092 53.1821 408.243 53.3472C408.394 53.5124 408.6 53.6356 408.835 53.7021C409.019 53.7653 409.221 53.7868 409.422 53.7645C409.598 53.7484 409.769 53.7027 409.926 53.6302C410.083 53.5576 410.223 53.4598 410.336 53.3422C410.45 53.2246 410.536 53.0898 410.588 52.9456C410.641 52.8013 410.659 52.6507 410.642 52.5023L409.324 39.438C409.31 39.2897 409.261 39.1463 409.18 39.016C409.099 38.8857 408.989 38.7711 408.854 38.6788C408.719 38.5866 408.564 38.5184 408.396 38.4783C408.228 38.4382 408.051 38.4269 407.876 38.4451C407.676 38.4634 407.483 38.5218 407.313 38.6155C407.183 38.6816 407.066 38.7661 406.969 38.865C406.742 39.1042 406.633 39.4066 406.665 39.7063L407.983 52.7706Z" fill="white"/>
</g>
<g filter="url(#filter1_d_1035_482)">
<path d="M120.058 132.477C129.15 131.559 137.151 137.065 137.929 144.775C138.707 152.485 131.967 159.478 122.875 160.395C113.783 161.313 105.782 155.807 105.004 148.097C104.226 140.388 110.966 133.394 120.058 132.477ZM120.621 138.06C120.185 138.105 119.781 138.294 119.498 138.587C119.216 138.88 119.078 139.252 119.116 139.623L119.82 146.602C119.858 146.972 120.067 147.31 120.402 147.54L125.763 151.23C126.1 151.453 126.53 151.552 126.961 151.505C127.392 151.458 127.79 151.27 128.07 150.98C128.349 150.69 128.486 150.323 128.453 149.956C128.42 149.59 128.219 149.254 127.892 149.021L123.054 145.692L122.408 139.29C122.371 138.92 122.162 138.582 121.827 138.352C121.491 138.121 121.058 138.016 120.621 138.06Z" fill="#3A559E"/>
<path d="M106.568 76.6509C106.539 76.3639 106.377 76.1023 106.117 75.9236C105.857 75.7448 105.521 75.6636 105.183 75.6977C104.844 75.7319 104.531 75.8786 104.313 76.1056C104.094 76.3327 103.987 76.6214 104.016 76.9083L104.246 79.1874C101.813 79.6005 100.248 80.1693 99.169 81.291C98.0877 82.4114 97.7455 83.8229 97.7576 85.9185L131.512 82.5125C131.105 80.4552 130.487 79.1419 129.204 78.2602C127.922 77.3768 126.274 77.1322 123.809 77.2119L123.579 74.9343C123.55 74.6473 123.388 74.3857 123.128 74.207C122.869 74.0282 122.533 73.947 122.194 73.9812C121.856 74.0153 121.543 74.162 121.324 74.3891C121.105 74.6161 120.998 74.9048 121.027 75.1917L121.248 77.3742C120.115 77.4696 118.845 77.5977 117.418 77.7417L110.614 78.4283C109.186 78.5723 107.917 78.7004 106.788 78.8333L106.568 76.6509Z" fill="#3A559E"/>
<path fill-rule="evenodd" clip-rule="evenodd" d="M98.1683 91.3415C98.0462 90.1313 97.9376 89.0552 97.8629 88.0937L131.841 84.665C131.96 85.622 132.069 86.6981 132.191 87.9083L132.482 90.7933C133.031 96.2328 133.306 98.9533 131.482 100.844C129.659 102.734 126.452 103.059 120.038 103.706L113.233 104.393C106.818 105.04 103.61 105.364 101.447 103.874C99.2844 102.385 99.0083 99.666 98.4594 94.2264L98.1683 91.3415ZM123.976 91.6515C124.428 91.606 124.845 91.4104 125.137 91.1077C125.428 90.805 125.571 90.42 125.532 90.0374C125.493 89.6549 125.277 89.306 124.931 89.0677C124.585 88.8294 124.136 88.7211 123.685 88.7666C123.234 88.8121 122.817 89.0078 122.525 89.3105C122.233 89.6132 122.091 89.9982 122.13 90.3807C122.168 90.7633 122.385 91.1121 122.731 91.3504C123.077 91.5888 123.525 91.6971 123.976 91.6515ZM124.559 97.4214C125.01 97.3759 125.427 97.1803 125.719 96.8776C126.011 96.5748 126.153 96.1899 126.114 95.8073C126.076 95.4247 125.859 95.0759 125.513 94.8376C125.167 94.5993 124.719 94.491 124.268 94.5365C123.816 94.582 123.399 94.7776 123.107 95.0804C122.816 95.3831 122.673 95.768 122.712 96.1506C122.751 96.5332 122.967 96.882 123.313 97.1203C123.659 97.3586 124.108 97.467 124.559 97.4214ZM117.026 90.8957C117.065 91.2783 116.923 91.6633 116.631 91.966C116.339 92.2687 115.922 92.4643 115.471 92.5098C115.02 92.5554 114.572 92.4471 114.225 92.2087C113.879 91.9704 113.663 91.6216 113.624 91.239C113.585 90.8565 113.728 90.4715 114.019 90.1688C114.311 89.8661 114.728 89.6704 115.18 89.6249C115.631 89.5794 116.079 89.6877 116.425 89.926C116.771 90.1643 116.988 90.5132 117.026 90.8957ZM117.609 96.6656C117.647 97.0482 117.505 97.4331 117.213 97.7358C116.922 98.0386 116.504 98.2342 116.053 98.2797C115.602 98.3252 115.154 98.2169 114.807 97.9786C114.461 97.7403 114.245 97.3915 114.206 97.0089C114.168 96.6263 114.31 96.2414 114.602 95.9387C114.893 95.6359 115.311 95.4403 115.762 95.3948C116.213 95.3493 116.661 95.4576 117.007 95.6959C117.354 95.9342 117.57 96.283 117.609 96.6656ZM106.965 93.3681C107.416 93.3226 107.834 93.127 108.125 92.8243C108.417 92.5216 108.559 92.1366 108.521 91.754C108.482 91.3714 108.266 91.0226 107.92 90.7843C107.573 90.546 107.125 90.4377 106.674 90.4832C106.223 90.5287 105.805 90.7244 105.514 91.0271C105.222 91.3298 105.08 91.7148 105.118 92.0973C105.157 92.4799 105.373 92.8287 105.72 93.067C106.066 93.3054 106.514 93.4137 106.965 93.3681ZM107.547 99.138C107.999 99.0925 108.416 98.8969 108.708 98.5941C108.999 98.2914 109.142 97.9065 109.103 97.5239C109.064 97.1413 108.848 96.7925 108.502 96.5542C108.155 96.3159 107.707 96.2076 107.256 96.2531C106.805 96.2986 106.388 96.4942 106.096 96.7969C105.804 97.0997 105.662 97.4846 105.701 97.8672C105.739 98.2498 105.956 98.5986 106.302 98.8369C106.648 99.0752 107.096 99.1835 107.547 99.138Z" fill="#3A559E"/>
<path d="M126.12 186.946C124.967 187.063 123.841 187.338 122.807 187.757C121.773 188.177 120.852 188.731 120.094 189.389C119.337 190.047 118.759 190.796 118.394 191.593C118.029 192.39 117.883 193.219 117.966 194.033C118.117 195.536 119.037 196.91 120.553 197.899C122.069 198.888 124.078 199.425 126.208 199.411L128.18 218.957C128.202 219.174 128.345 219.369 128.578 219.501C128.81 219.632 129.114 219.689 129.421 219.658C129.728 219.627 130.014 219.511 130.215 219.336C130.417 219.16 130.518 218.94 130.496 218.723L128.524 199.177C130.613 198.766 132.475 197.838 133.763 196.566C135.051 195.294 135.677 193.764 135.526 192.261C135.444 191.447 135.135 190.664 134.618 189.956C134.101 189.248 133.385 188.63 132.512 188.136C131.639 187.643 130.624 187.283 129.528 187.079C128.431 186.875 127.273 186.83 126.12 186.946ZM124.164 189.969C124.526 189.932 124.889 189.946 125.233 190.01C125.577 190.074 125.895 190.187 126.169 190.342C126.443 190.497 126.668 190.691 126.83 190.913C126.992 191.135 127.089 191.381 127.115 191.636C127.141 191.891 127.095 192.152 126.98 192.402C126.866 192.652 126.684 192.887 126.447 193.093C126.209 193.299 125.92 193.473 125.596 193.605C125.271 193.736 124.918 193.823 124.556 193.859C123.826 193.933 123.105 193.799 122.551 193.486C121.998 193.173 121.658 192.708 121.605 192.192C121.553 191.676 121.794 191.152 122.274 190.735C122.753 190.318 123.433 190.042 124.164 189.969Z" fill="#3A559E"/>
<ellipse cx="126.728" cy="192.972" rx="9.92771" ry="7.7868" transform="rotate(-5.76214 126.728 192.972)" fill="#3A559E"/>
<path d="M163.983 76.0211L168.952 75.5197L177.247 91.0925L177.51 91.066L182.526 74.15L187.496 73.6485L189.758 96.0667L185.861 96.4599L184.307 81.0584L184.099 81.0793L179.451 97.0404L176.539 97.3342L168.792 82.5907L168.584 82.6117L170.142 98.0461L166.245 98.4393L163.983 76.0211ZM198.877 95.4892C197.812 95.5967 196.833 95.5038 195.941 95.2105C195.056 94.9092 194.327 94.4077 193.755 93.7061C193.19 93.0038 192.852 92.1017 192.741 90.9997C192.645 90.0511 192.741 89.2489 193.029 88.5932C193.316 87.9376 193.744 87.3931 194.312 86.9598C194.881 86.5265 195.535 86.1767 196.274 85.9104C197.021 85.6361 197.798 85.4139 198.607 85.2438C199.581 85.0422 200.371 84.8704 200.976 84.7282C201.58 84.5788 202.012 84.4025 202.272 84.1994C202.538 83.9883 202.652 83.6929 202.614 83.3135L202.607 83.2478C202.524 82.4232 202.215 81.8093 201.68 81.4062C201.146 81.0031 200.419 80.8479 199.499 80.9407C198.529 81.0386 197.78 81.3279 197.254 81.8086C196.735 82.2886 196.405 82.8268 196.267 83.4232L192.514 83.2711C192.703 82.22 193.098 81.3176 193.7 80.5638C194.302 79.8028 195.07 79.2018 196.006 78.7609C196.942 78.3127 197.997 78.0293 199.171 77.9107C199.982 77.829 200.797 77.8425 201.619 77.9512C202.441 78.06 203.206 78.2998 203.915 78.6706C204.622 79.0342 205.214 79.5679 205.691 80.2717C206.174 80.9748 206.473 81.8846 206.585 83.0012L207.721 94.2541L203.911 94.6385L203.678 92.3288L203.547 92.342C203.353 92.8334 203.058 93.3055 202.662 93.7583C202.271 94.2031 201.761 94.5827 201.129 94.8971C200.504 95.2035 199.753 95.4008 198.877 95.4892ZM199.613 92.4736C200.408 92.3934 201.082 92.1669 201.634 91.7942C202.185 91.4142 202.591 90.9456 202.852 90.3885C203.12 89.8307 203.223 89.2416 203.16 88.6214L202.961 86.6401C202.847 86.7547 202.645 86.871 202.354 86.9887C202.071 87.1058 201.751 87.2155 201.392 87.318C201.034 87.4205 200.679 87.5153 200.326 87.6025C199.974 87.6897 199.668 87.7648 199.409 87.8278C198.826 87.9677 198.31 88.1524 197.862 88.382C197.413 88.6116 197.07 88.9042 196.833 89.2598C196.596 89.6081 196.503 90.0377 196.554 90.5486C196.628 91.2783 196.95 91.8024 197.52 92.1208C198.091 92.4393 198.788 92.5569 199.613 92.4736ZM211.705 93.852L210.009 77.0383L213.851 76.6506L214.134 79.4529L214.309 79.4352C214.517 78.4337 214.967 77.6327 215.659 77.0322C216.356 76.4236 217.187 76.0707 218.15 75.9735C218.369 75.9514 218.615 75.9377 218.887 75.9323C219.166 75.9189 219.398 75.9213 219.584 75.9394L219.952 79.5845C219.778 79.5431 219.507 79.5189 219.138 79.5119C218.775 79.4969 218.426 79.5063 218.09 79.5402C217.368 79.6131 216.734 79.8356 216.189 80.2075C215.651 80.5715 215.245 81.0437 214.972 81.6241C214.699 82.2046 214.598 82.8524 214.67 83.5675L215.668 93.4521L211.705 93.852ZM230.602 92.2769C228.923 92.4463 227.445 92.2232 226.166 91.6076C224.895 90.9913 223.869 90.0665 223.089 88.833C222.315 87.5916 221.842 86.1207 221.67 84.4203C221.498 82.7127 221.674 81.1726 222.199 79.8001C222.724 78.4202 223.547 77.305 224.67 76.4545C225.8 75.596 227.186 75.0838 228.828 74.9181C230.193 74.7804 231.426 74.9103 232.527 75.3078C233.636 75.6973 234.55 76.3165 235.269 77.1653C235.988 78.0069 236.453 79.029 236.662 80.2315L232.875 80.6137C232.64 79.8191 232.207 79.1809 231.576 78.6991C230.951 78.2092 230.161 78.0125 229.205 78.109C228.395 78.1907 227.706 78.4814 227.137 78.9811C226.567 79.4736 226.152 80.1421 225.891 80.9867C225.637 81.8306 225.567 82.8182 225.681 83.9493C225.797 85.095 226.064 86.0632 226.483 86.854C226.901 87.6374 227.435 88.2212 228.086 88.6052C228.743 88.9812 229.484 89.1276 230.309 89.0444C230.893 88.9855 231.403 88.8234 231.841 88.5581C232.285 88.2847 232.643 87.9206 232.914 87.4656C233.185 87.0107 233.348 86.4745 233.404 85.857L237.191 85.4748C237.217 86.6739 236.973 87.7638 236.46 88.7444C235.946 89.7177 235.194 90.5161 234.202 91.1395C233.21 91.7556 232.01 92.1348 230.602 92.2769ZM243.994 80.6417L244.988 90.4935L241.025 90.8934L238.763 68.4752L242.638 68.0841L243.492 76.5457L243.689 76.5258C243.987 75.5374 244.521 74.7279 245.29 74.0973C246.066 73.4588 247.097 73.0747 248.381 72.9451C249.549 72.8273 250.591 72.969 251.509 73.3703C252.427 73.7716 253.17 74.419 253.74 75.3126C254.316 76.2053 254.673 77.3304 254.81 78.6878L255.89 89.3933L251.928 89.7932L250.909 79.7006C250.795 78.5695 250.415 77.7196 249.767 77.1509C249.127 76.5742 248.285 76.3385 247.241 76.4438C246.541 76.5145 245.928 76.7311 245.405 77.0935C244.888 77.448 244.501 77.9256 244.245 78.5265C243.996 79.1266 243.912 79.8317 243.994 80.6417ZM267.532 88.2186L267.236 85.285L274.249 76.87C274.917 76.0432 275.47 75.3129 275.907 74.679C276.345 74.0451 276.66 73.442 276.853 72.8697C277.046 72.2973 277.111 71.701 277.048 71.0807C276.977 70.3728 276.755 69.7833 276.383 69.3122C276.011 68.8338 275.529 68.4842 274.939 68.2636C274.35 68.043 273.697 67.9688 272.982 68.041C272.245 68.1153 271.614 68.3338 271.091 68.6962C270.566 69.0514 270.179 69.5217 269.928 70.1073C269.685 70.6921 269.602 71.3676 269.679 72.1339L265.815 72.5238C265.672 71.1008 265.872 69.8311 266.415 68.7147C266.959 67.5983 267.77 66.6944 268.851 66.003C269.938 65.3109 271.223 64.8901 272.704 64.7406C274.207 64.5889 275.557 64.7366 276.752 65.1836C277.947 65.6306 278.908 66.3114 279.634 67.226C280.367 68.1398 280.798 69.2243 280.924 70.4795C281.009 71.3187 280.932 72.1595 280.692 73.0019C280.453 73.8444 279.978 74.7991 279.267 75.866C278.564 76.9321 277.557 78.2391 276.246 79.7868L272.778 84.1064L272.794 84.2597L282.558 83.2744L282.901 86.6678L267.532 88.2186ZM292.167 62.7766C293.24 62.6757 294.303 62.7601 295.355 63.0299C296.413 63.2917 297.393 63.7973 298.295 64.5468C299.195 65.2889 299.956 66.329 300.578 67.6669C301.199 69.0049 301.613 70.6955 301.819 72.7388C302.021 74.6646 301.99 76.4075 301.728 77.9674C301.471 79.5192 301.013 80.8556 300.352 81.9764C299.691 83.0973 298.848 83.9859 297.823 84.6422C296.798 85.2985 295.611 85.6948 294.261 85.831C292.845 85.9739 291.562 85.8232 290.411 85.3791C289.268 84.9342 288.312 84.264 287.544 83.3684C286.775 82.4729 286.252 81.4126 285.973 80.1874L289.969 79.7843C290.263 80.6539 290.75 81.3198 291.431 81.7819C292.118 82.236 292.943 82.4144 293.906 82.3172C295.461 82.1604 296.589 81.3646 297.292 79.9298C297.995 78.4951 298.226 76.5773 297.984 74.1764L297.83 74.1918C297.537 74.8701 297.13 75.4715 296.608 75.996C296.085 76.5132 295.475 76.9323 294.778 77.2533C294.087 77.5736 293.341 77.7742 292.538 77.8552C291.225 77.9878 290.011 77.7933 288.897 77.2717C287.79 76.7494 286.875 75.9719 286.151 74.9391C285.435 73.9056 285.002 72.685 284.853 71.2773C284.706 69.8178 284.909 68.474 285.463 67.2459C286.024 66.0098 286.876 64.9949 288.02 64.2013C289.163 63.4004 290.545 62.9255 292.167 62.7766ZM292.509 66.0594C291.721 66.139 291.029 66.4042 290.433 66.855C289.844 67.2978 289.4 67.866 289.101 68.5596C288.809 69.2452 288.704 69.9893 288.785 70.7921C288.872 71.5868 289.124 72.2912 289.54 72.9053C289.963 73.5187 290.5 73.9842 291.151 74.3018C291.81 74.6187 292.537 74.737 293.332 74.6568C293.924 74.5971 294.463 74.4284 294.951 74.1506C295.439 73.8729 295.853 73.5141 296.192 73.0745C296.537 72.6268 296.79 72.1332 296.949 71.5937C297.115 71.0535 297.166 70.4955 297.101 69.9197C297.023 69.1535 296.769 68.464 296.339 67.8514C295.916 67.238 295.371 66.7659 294.703 66.4351C294.043 66.1037 293.312 65.9784 292.509 66.0594Z" fill="#3A559E"/>
<path d="M176.919 128.502C177.993 128.401 179.055 128.485 180.107 128.755C181.166 129.017 182.146 129.522 183.047 130.272C183.947 131.014 184.708 132.054 185.33 133.392C185.952 134.73 186.365 136.421 186.572 138.464C186.773 140.39 186.743 142.133 186.48 143.692C186.224 145.244 185.765 146.581 185.104 147.701C184.443 148.822 183.6 149.711 182.576 150.367C181.551 151.024 180.363 151.42 179.013 151.556C177.598 151.699 176.314 151.548 175.164 151.104C174.02 150.659 173.064 149.989 172.296 149.093C171.527 148.198 171.004 147.138 170.725 145.912L174.721 145.509C175.015 146.379 175.502 147.045 176.183 147.507C176.87 147.961 177.695 148.139 178.659 148.042C180.213 147.885 181.342 147.09 182.045 145.655C182.748 144.22 182.978 142.302 182.736 139.901L182.583 139.917C182.29 140.595 181.882 141.197 181.36 141.721C180.837 142.238 180.227 142.657 179.53 142.978C178.84 143.299 178.093 143.499 177.291 143.58C175.977 143.713 174.763 143.518 173.649 142.997C172.542 142.474 171.627 141.697 170.903 140.664C170.187 139.631 169.755 138.41 169.605 137.002C169.458 135.543 169.661 134.199 170.216 132.971C170.776 131.735 171.629 130.72 172.772 129.926C173.915 129.125 175.298 128.651 176.919 128.502ZM177.261 131.784C176.473 131.864 175.781 132.129 175.185 132.58C174.596 133.023 174.152 133.591 173.854 134.285C173.561 134.97 173.456 135.714 173.537 136.517C173.625 137.312 173.876 138.016 174.292 138.63C174.715 139.244 175.252 139.709 175.904 140.027C176.562 140.344 177.289 140.462 178.085 140.382C178.676 140.322 179.215 140.153 179.703 139.876C180.191 139.598 180.605 139.239 180.944 138.8C181.289 138.352 181.542 137.858 181.701 137.319C181.868 136.779 181.918 136.221 181.853 135.645C181.776 134.879 181.522 134.189 181.091 133.576C180.668 132.963 180.123 132.491 179.456 132.16C178.796 131.829 178.064 131.703 177.261 131.784ZM202.161 148.911L197.827 149.348L203.457 126.133L208.47 125.628L218.636 147.248L214.301 147.686L206.515 130.469L206.34 130.487L202.161 148.911ZM201.417 140.106L213.239 138.913L213.568 142.175L201.746 143.368L201.417 140.106ZM219.326 124.532L224.296 124.031L232.59 139.603L232.853 139.577L237.869 122.661L242.839 122.159L245.101 144.578L241.204 144.971L239.65 129.569L239.442 129.59L234.794 145.551L231.882 145.845L224.136 131.102L223.928 131.123L225.485 146.557L221.588 146.95L219.326 124.532ZM265.89 129.509L266.219 132.771L256.126 133.789L255.797 130.527L265.89 129.509ZM286.78 140.681C285.321 140.829 283.987 140.687 282.779 140.256C281.57 139.818 280.577 139.151 279.801 138.256C279.033 137.361 278.564 136.295 278.395 135.059L282.336 134.661C282.502 135.573 282.975 136.285 283.756 136.796C284.537 137.299 285.435 137.5 286.449 137.397C287.244 137.317 287.934 137.063 288.517 136.636C289.101 136.208 289.539 135.652 289.831 134.966C290.123 134.281 290.223 133.522 290.132 132.691C290.054 131.844 289.799 131.11 289.368 130.49C288.937 129.87 288.385 129.406 287.713 129.098C287.039 128.783 286.29 128.667 285.466 128.75C284.794 128.81 284.146 129.001 283.522 129.322C282.898 129.643 282.418 130.031 282.08 130.485L278.352 130.253L278.357 118.575L291.362 117.263L291.704 120.656L282.06 121.63L282.014 127.639L282.146 127.625C282.512 127.094 283.059 126.63 283.785 126.232C284.511 125.827 285.326 125.579 286.231 125.488C287.589 125.351 288.833 125.55 289.963 126.085C291.092 126.612 292.02 127.403 292.746 128.458C293.471 129.512 293.907 130.758 294.052 132.196C294.201 133.678 293.991 135.033 293.423 136.263C292.86 137.484 292.007 138.488 290.862 139.274C289.725 140.053 288.364 140.522 286.78 140.681ZM306.327 138.399L304.065 115.981L312.472 115.133C314.194 114.959 315.671 115.134 316.904 115.659C318.143 116.182 319.119 116.976 319.831 118.039C320.549 119.095 320.98 120.334 321.124 121.757C321.269 123.195 321.095 124.502 320.602 125.68C320.109 126.858 319.304 127.827 318.186 128.589C317.068 129.343 315.644 129.807 313.915 129.982L308.343 130.544L308.006 127.205L313.031 126.698C314.038 126.597 314.845 126.338 315.451 125.923C316.058 125.508 316.484 124.979 316.729 124.335C316.981 123.69 317.066 122.97 316.986 122.175C316.906 121.379 316.678 120.694 316.303 120.12C315.936 119.546 315.41 119.123 314.727 118.853C314.05 118.575 313.205 118.487 312.19 118.589L308.468 118.965L310.388 137.99L306.327 138.399ZM323.902 113.979L328.872 113.478L337.167 129.051L337.429 129.024L342.446 112.108L347.415 111.607L349.677 134.025L345.781 134.418L344.226 119.017L344.018 119.038L339.37 134.999L336.459 135.292L328.712 120.549L328.504 120.57L330.062 136.004L326.165 136.398L323.902 113.979Z" fill="#3A559E"/>
<path d="M187.403 189.297C187.204 188.351 186.698 187.65 185.886 187.194C185.08 186.737 184.076 186.57 182.871 186.691C182.025 186.777 181.312 186.978 180.732 187.294C180.152 187.611 179.723 188.004 179.446 188.474C179.17 188.945 179.056 189.461 179.105 190.024C179.152 190.491 179.299 190.885 179.545 191.207C179.799 191.528 180.124 191.79 180.52 191.993C180.916 192.189 181.348 192.344 181.817 192.459C182.286 192.574 182.755 192.663 183.226 192.726L185.381 193.04C186.247 193.151 187.088 193.335 187.902 193.592C188.724 193.849 189.471 194.201 190.143 194.649C190.822 195.096 191.381 195.663 191.819 196.349C192.256 197.034 192.524 197.862 192.622 198.833C192.755 200.147 192.536 201.337 191.965 202.405C191.394 203.465 190.502 204.34 189.289 205.03C188.082 205.712 186.581 206.144 184.786 206.325C183.042 206.501 181.501 206.384 180.162 205.973C178.83 205.562 177.751 204.875 176.924 203.911C176.104 202.947 175.59 201.724 175.381 200.241L179.377 199.838C179.514 200.613 179.82 201.238 180.296 201.713C180.771 202.189 181.361 202.52 182.066 202.707C182.778 202.893 183.557 202.944 184.403 202.858C185.286 202.769 186.047 202.56 186.684 202.23C187.328 201.892 187.816 201.467 188.148 200.954C188.479 200.434 188.615 199.853 188.558 199.21C188.492 198.627 188.271 198.163 187.898 197.817C187.523 197.464 187.02 197.19 186.388 196.996C185.763 196.794 185.039 196.631 184.216 196.508L181.599 196.108C179.705 195.82 178.173 195.249 177.003 194.394C175.839 193.531 175.177 192.296 175.015 190.691C174.882 189.37 175.122 188.177 175.737 187.113C176.36 186.047 177.264 185.178 178.449 184.506C179.634 183.826 181.01 183.407 182.579 183.249C184.17 183.088 185.592 183.225 186.845 183.659C188.104 184.084 189.126 184.752 189.911 185.66C190.695 186.562 191.161 187.642 191.311 188.903L187.403 189.297ZM214.568 187.971L210.474 188.384C210.289 187.725 210.014 187.152 209.648 186.665C209.281 186.172 208.846 185.766 208.342 185.448C207.838 185.13 207.278 184.91 206.661 184.788C206.051 184.658 205.403 184.628 204.717 184.697C203.498 184.82 202.449 185.235 201.569 185.943C200.689 186.644 200.042 187.609 199.628 188.838C199.213 190.059 199.09 191.512 199.261 193.198C199.434 194.913 199.846 196.331 200.497 197.452C201.155 198.565 201.981 199.374 202.976 199.878C203.977 200.374 205.083 200.561 206.294 200.439C206.966 200.371 207.584 200.22 208.15 199.986C208.723 199.744 209.225 199.424 209.657 199.027C210.096 198.629 210.45 198.158 210.72 197.615C210.997 197.071 211.164 196.464 211.222 195.795L215.318 195.404C215.272 196.485 215.041 197.518 214.624 198.504C214.215 199.489 213.638 200.38 212.893 201.178C212.147 201.968 211.247 202.619 210.193 203.131C209.138 203.635 207.943 203.955 206.607 204.09C204.637 204.289 202.832 204.01 201.193 203.254C199.554 202.498 198.202 201.303 197.138 199.671C196.074 198.039 195.421 196.018 195.178 193.61C194.934 191.195 195.174 189.084 195.899 187.279C196.623 185.466 197.712 184.025 199.167 182.957C200.622 181.889 202.327 181.256 204.283 181.058C205.531 180.933 206.709 180.991 207.817 181.233C208.925 181.475 209.933 181.893 210.841 182.487C211.748 183.073 212.521 183.828 213.159 184.752C213.805 185.667 214.274 186.74 214.568 187.971ZM221.585 179.622L223.847 202.04L219.786 202.45L217.524 180.032L221.585 179.622ZM238.77 200.535L234.435 200.972L240.065 177.757L245.078 177.252L255.244 198.872L250.909 199.31L243.123 182.093L242.948 182.111L238.77 200.535ZM238.025 191.73L249.847 190.537L250.176 193.799L238.354 194.992L238.025 191.73ZM263.667 181.037L263.977 184.102L254.311 185.078L254.002 182.013L263.667 181.037ZM255.981 177.744L259.944 177.344L261.537 193.128C261.591 193.661 261.712 194.062 261.901 194.33C262.097 194.591 262.335 194.758 262.616 194.833C262.896 194.908 263.2 194.929 263.529 194.896C263.777 194.871 264.001 194.83 264.202 194.773C264.41 194.715 264.567 194.666 264.673 194.625L265.654 197.656C265.45 197.75 265.155 197.861 264.77 197.988C264.392 198.115 263.922 198.214 263.362 198.285C262.372 198.415 261.463 198.355 260.635 198.107C259.806 197.852 259.122 197.397 258.584 196.744C258.054 196.09 257.739 195.237 257.641 194.185L255.981 177.744ZM268.678 197.517L266.981 180.703L270.823 180.315L271.106 183.118L271.281 183.1C271.49 182.098 271.94 181.297 272.631 180.697C273.329 180.088 274.16 179.735 275.123 179.638C275.342 179.616 275.587 179.602 275.86 179.597C276.138 179.584 276.371 179.586 276.557 179.604L276.925 183.249C276.751 183.208 276.48 183.183 276.11 183.177C275.748 183.162 275.398 183.171 275.063 183.205C274.34 183.278 273.707 183.5 273.162 183.872C272.623 184.236 272.218 184.708 271.945 185.289C271.671 185.869 271.571 186.517 271.643 187.232L272.641 197.117L268.678 197.517ZM280.9 196.283L279.203 179.47L283.165 179.07L284.862 195.883L280.9 196.283ZM280.954 176.882C280.327 176.946 279.766 176.792 279.271 176.422C278.776 176.044 278.499 175.56 278.439 174.969C278.379 174.37 278.554 173.84 278.964 173.379C279.374 172.91 279.893 172.644 280.52 172.58C281.155 172.516 281.717 172.673 282.204 173.052C282.699 173.422 282.976 173.906 283.037 174.505C283.096 175.096 282.921 175.626 282.511 176.095C282.108 176.556 281.589 176.818 280.954 176.882ZM298.94 187.32L297.957 177.577L301.919 177.177L303.616 193.991L299.774 194.379L299.472 191.39L299.297 191.408C299.013 192.388 298.466 193.221 297.658 193.907C296.858 194.592 295.826 194.998 294.564 195.126C293.462 195.237 292.463 195.091 291.567 194.687C290.678 194.276 289.948 193.623 289.379 192.73C288.809 191.829 288.456 190.707 288.321 189.364L287.24 178.659L291.203 178.259L292.221 188.351C292.329 189.417 292.706 190.234 293.353 190.803C294 191.371 294.798 191.608 295.747 191.512C296.331 191.453 296.882 191.254 297.401 190.914C297.919 190.574 298.325 190.105 298.619 189.508C298.919 188.903 299.026 188.173 298.94 187.32ZM307.691 193.58L305.994 176.766L309.782 176.384L310.07 179.241L310.267 179.221C310.52 178.223 311.024 177.412 311.78 176.791C312.535 176.162 313.474 175.79 314.598 175.677C315.736 175.562 316.724 175.742 317.561 176.218C318.404 176.686 319.034 177.378 319.451 178.294L319.626 178.277C319.904 177.305 320.457 176.497 321.284 175.854C322.117 175.202 323.143 174.815 324.362 174.692C325.909 174.535 327.221 174.897 328.297 175.776C329.374 176.655 330.007 178.033 330.196 179.908L331.335 191.194L327.361 191.595L326.285 180.922C326.179 179.879 325.825 179.144 325.222 178.718C324.618 178.285 323.914 178.109 323.112 178.19C322.156 178.287 321.438 178.662 320.958 179.314C320.485 179.959 320.297 180.756 320.392 181.705L321.45 192.191L317.564 192.584L316.471 181.747C316.383 180.878 316.051 180.211 315.473 179.746C314.902 179.28 314.198 179.09 313.358 179.175C312.789 179.232 312.286 179.43 311.848 179.769C311.41 180.101 311.079 180.544 310.854 181.097C310.629 181.643 310.552 182.263 310.622 182.956L311.653 193.18L307.691 193.58Z" fill="#3A559E"/>
</g>
<path d="M454.393 170.647L454.48 171.517L505.791 166.339L505.703 165.469L454.393 170.647Z" fill="black"/>
<path d="M454.218 168.906L454.306 169.776L505.616 164.598L505.529 163.728L454.218 168.906Z" fill="black"/>
<path d="M454.043 167.166L454.131 168.036L505.442 162.859L505.354 161.988L454.043 167.166Z" fill="black"/>
<path d="M453.867 165.425L453.955 166.296L505.265 161.118L505.178 160.248L453.867 165.425Z" fill="black"/>
<path d="M453.516 161.945L453.78 164.556L505.091 159.378L504.827 156.768L453.516 161.945Z" fill="black"/>
<path d="M452.989 156.724L453.252 159.334L504.563 154.157L504.3 151.546L452.989 156.724Z" fill="black"/>
<path d="M452.636 153.244L452.724 154.114L504.035 148.936L503.947 148.066L452.636 153.244Z" fill="black"/>
<path d="M452.462 151.503L452.549 152.373L503.86 147.196L503.772 146.325L452.462 151.503Z" fill="black"/>
<path d="M452.285 149.764L452.373 150.634L503.684 145.456L503.596 144.586L452.285 149.764Z" fill="black"/>
<path d="M451.935 146.282L452.198 148.892L503.509 143.715L503.246 141.104L451.935 146.282Z" fill="black"/>
<path d="M451.409 141.061L451.673 143.671L502.984 138.494L502.72 135.883L451.409 141.061Z" fill="black"/>
<path d="M451.057 137.58L451.145 138.45L502.455 133.272L502.368 132.402L451.057 137.58Z" fill="black"/>
<path d="M450.882 135.84L450.97 136.71L502.281 131.532L502.193 130.662L450.882 135.84Z" fill="black"/>
<path d="M450.704 134.1L450.792 134.97L502.102 129.792L502.015 128.922L450.704 134.1Z" fill="black"/>
<path d="M450.354 130.619L450.617 133.229L501.928 128.052L501.665 125.441L450.354 130.619Z" fill="black"/>
<path d="M449.826 125.398L450.089 128.008L501.4 122.831L501.137 120.22L449.826 125.398Z" fill="black"/>
<path d="M449.476 121.917L449.563 122.787L500.874 117.61L500.786 116.739L449.476 121.917Z" fill="black"/>
<path d="M449.301 120.177L449.389 121.047L500.7 115.869L500.612 114.999L449.301 120.177Z" fill="black"/>
<path d="M449.125 118.437L449.212 119.307L500.523 114.129L500.435 113.259L449.125 118.437Z" fill="black"/>
<path d="M448.775 114.956L449.038 117.566L500.349 112.388L500.085 109.778L448.775 114.956Z" fill="black"/>
<path d="M448.247 109.734L448.51 112.345L499.821 107.167L499.558 104.557L448.247 109.734Z" fill="black"/>
<path d="M447.895 106.254L447.982 107.124L499.293 101.946L499.205 101.076L447.895 106.254Z" fill="black"/>
<path d="M447.72 104.513L447.808 105.384L499.119 100.206L499.031 99.3357L447.72 104.513Z" fill="black"/>
<path d="M447.544 102.774L447.631 103.644L498.942 98.4661L498.854 97.5959L447.544 102.774Z" fill="black"/>
<path d="M447.194 99.2918L447.457 101.902L498.768 96.7246L498.504 94.1141L447.194 99.2918Z" fill="black"/>
<path d="M446.665 94.0721L446.929 96.6826L498.24 91.5049L497.976 88.8944L446.665 94.0721Z" fill="black"/>
<path d="M446.316 90.5912L446.403 91.4614L497.714 86.2837L497.626 85.4135L446.316 90.5912Z" fill="black"/>
<path d="M446.139 88.8503L446.227 89.7205L497.537 84.5427L497.45 83.6726L446.139 88.8503Z" fill="black"/>
<path d="M445.964 87.1096L446.052 87.9797L497.363 82.802L497.275 81.9318L445.964 87.1096Z" fill="black"/>
<path d="M445.612 83.63L445.875 86.2405L497.186 81.0628L496.922 78.4522L445.612 83.63Z" fill="black"/>
<path d="M445.086 78.408L445.35 81.0186L496.66 75.8408L496.397 73.2303L445.086 78.408Z" fill="black"/>
<path d="M444.736 74.9282L444.824 75.7983L496.135 70.6206L496.047 69.7505L444.736 74.9282Z" fill="black"/>
<path d="M444.559 73.1872L444.647 74.0574L495.958 68.8797L495.87 68.0095L444.559 73.1872Z" fill="black"/>
<path d="M444.385 71.4475L444.473 72.3176L495.783 67.1399L495.696 66.2697L444.385 71.4475Z" fill="black"/>
<path d="M444.031 67.9664L444.294 70.5769L495.605 65.3992L495.341 62.7887L444.031 67.9664Z" fill="black"/>
<path d="M443.505 62.7449L443.768 65.3555L495.079 60.1778L494.815 57.5672L443.505 62.7449Z" fill="black"/>
<path d="M443.153 59.2639L443.241 60.134L494.552 54.9563L494.464 54.0861L443.153 59.2639Z" fill="black"/>
<path d="M442.802 55.7833L443.066 58.3938L494.377 53.2161L494.113 50.6056L442.802 55.7833Z" fill="black"/>
<path d="M442.627 54.0432L442.715 54.9133L494.026 49.7356L493.938 48.8654L442.627 54.0432Z" fill="black"/>
<defs>
<filter id="filter0_d_1035_482" x="1.77137" y="0.116358" width="529.846" height="268.379" filterUnits="userSpaceOnUse" color-interpolation-filters="sRGB">
<feFlood flood-opacity="0" result="BackgroundImageFix"/>
<feColorMatrix in="SourceAlpha" type="matrix" values="0 0 0 0 0 0 0 0 0 0 0 0 0 0 0 0 0 0 127 0" result="hardAlpha"/>
<feOffset dy="5.16359"/>
<feGaussianBlur stdDeviation="7.93902"/>
<feComposite in2="hardAlpha" operator="out"/>
<feColorMatrix type="matrix" values="0 0 0 0 0 0 0 0 0 0 0 0 0 0 0 0 0 0 0.03 0"/>
<feBlend mode="normal" in2="BackgroundImageFix" result="effect1_dropShadow_1035_482"/>
<feBlend mode="normal" in="SourceGraphic" in2="effect1_dropShadow_1035_482" result="shape"/>
</filter>
<filter id="filter1_d_1035_482" x="92.7573" y="60.8899" width="261.951" height="167.776" filterUnits="userSpaceOnUse" color-interpolation-filters="sRGB">
<feFlood flood-opacity="0" result="BackgroundImageFix"/>
<feColorMatrix in="SourceAlpha" type="matrix" values="0 0 0 0 0 0 0 0 0 0 0 0 0 0 0 0 0 0 127 0" result="hardAlpha"/>
<feOffset dy="4"/>
<feGaussianBlur stdDeviation="2.5"/>
<feComposite in2="hardAlpha" operator="out"/>
<feColorMatrix type="matrix" values="0 0 0 0 0 0 0 0 0 0 0 0 0 0 0 0 0 0 0.09 0"/>
<feBlend mode="normal" in2="BackgroundImageFix" result="effect1_dropShadow_1035_482"/>
<feBlend mode="normal" in="SourceGraphic" in2="effect1_dropShadow_1035_482" result="shape"/>
</filter>
</defs>
</svg>
