<svg width="689" height="254" viewBox="0 0 689 254" fill="none" xmlns="http://www.w3.org/2000/svg">
<path d="M602.572 62.6663H646.132C674.655 62.6663 688.654 75.8983 688.654 100.195V176.983C688.654 201.279 674.655 214.511 646.132 214.511H602.572V62.6663ZM645.618 192.819C654.693 192.819 660.141 188.912 660.141 178.066V99.1109C660.141 88.2648 654.693 84.3584 645.618 84.3584H631.095V192.819H645.618Z" fill="#3A559E"/>
<path d="M508.855 41.6635H474.888V16.8713H575.317V41.6635H541.349V190.408H508.855V41.6635Z" fill="#3A559E"/>
<path d="M600.327 141.877C611.078 141.877 628.371 142.073 639.122 142.073C642.162 142.073 642.402 141.932 642.866 139.42C643.07 138.306 643.255 137.207 643.635 136.116C644.145 134.679 644.895 134.797 645.767 135.77C647.249 137.426 648.658 139.13 650.057 140.849C652.291 143.581 654.488 146.336 656.684 149.091C657.296 149.852 657.221 150.59 656.434 151.226C652.893 154.099 649.585 157.168 645.933 159.963C644.061 161.391 642.115 162.812 640.401 164.406C639.965 164.806 639.511 165.363 638.723 164.963C638.009 164.602 638.111 163.966 638.288 163.432C638.667 162.318 638.473 161.187 638.575 160.065C638.723 158.511 637.834 157.969 636.073 157.977C628.464 158.008 614.303 157.741 606.694 157.812C603.821 157.836 600.976 157.451 598.112 157.506C590.309 157.655 582.515 157.796 574.711 157.812C565.842 157.828 556.982 157.286 548.104 157.49C546.065 157.537 544.026 158.04 541.959 157.506C541.107 157.286 540.81 157.106 540.893 156.258C541.348 151.776 542.543 147.403 543.442 142.984C544.044 140.048 544.48 137.097 545.036 134.153C545.75 130.393 546.519 126.649 547.242 122.889C547.863 119.686 548.196 116.421 549.132 113.281C550.309 109.356 550.328 105.29 551.625 101.373C552.599 98.4136 552.608 95.2345 553.507 92.2516C554.396 89.3002 554.017 86.2388 555.221 83.2952C556.148 81.0188 556.13 78.4677 556.584 76.05C557.177 72.9023 557.826 69.7624 558.456 66.6147C558.465 66.5597 558.493 66.5048 558.511 66.4498C559.521 61.5987 559.522 61.5673 565.425 61.4967C570.356 61.4417 574.489 61.5203 579.419 61.7243C586.407 62.0148 594.21 61.1356 601.208 61.5987C603.728 61.7636 606.24 61.9127 608.77 61.5202C609.465 61.4182 610.216 61.6537 610.939 61.6537C612.913 61.6537 613.042 62.6663 612.681 63.9144C611.773 67.0778 611.115 70.2804 610.8 73.5145C610.512 76.4189 609.363 77.3922 605.971 77.3922C597.223 77.3922 588.474 77.4237 579.725 77.3609C578.103 77.3452 577.427 77.8789 577.195 79.127C576.639 82.1178 575.935 85.1006 575.471 88.0992C574.943 91.5059 574.22 94.8656 573.256 98.2017C572.839 99.646 573.84 99.8187 575.156 99.8109C581.634 99.7952 588.112 99.7952 594.59 99.803C597.426 99.803 597.473 99.9757 597.25 102.284C596.954 105.306 596.083 108.249 595.916 111.287C595.851 112.472 595.221 113.658 594.748 114.812C594.322 115.848 593.182 115.714 592.199 115.714C585.592 115.73 578.974 115.793 572.367 115.691C570.457 115.659 569.623 116.272 569.512 117.747C569.132 123.093 566.889 128.187 566.62 133.564C566.528 135.448 565.749 137.301 565.267 139.169C564.684 141.453 565.036 141.846 567.844 141.846C578.659 141.854 589.475 141.846 600.299 141.846L600.327 141.877Z" fill="#29A6FF"/>
<path d="M522.126 177.509C521.911 177.174 521.554 177.174 521.104 177.166C517.809 177.143 514.525 177.073 511.221 177.034C510.301 177.018 509.597 176.714 509.391 175.965C508.396 172.231 507.382 168.496 506.472 164.745C505.881 162.281 505.712 159.708 504.942 157.338C503.788 153.79 503.225 150.165 502.089 146.625C501.038 143.303 500.625 139.849 499.818 136.473C498.532 131.14 497.265 125.799 495.792 120.497C494.975 117.573 494.759 114.555 493.614 111.678C493.061 110.29 493.089 108.762 495.36 108.107C496.101 107.889 496.711 107.366 497.378 106.992C503.366 103.725 506.96 98.9376 509.55 93.5732C511.249 90.0489 512.225 86.3452 513.07 82.6026C514.13 77.9711 514.149 73.3319 513.276 68.7472C512.178 62.9773 508.443 58.5407 501.92 56.0378C496.599 53.995 490.893 53.1451 485.064 53.0671C478.579 52.9891 472.085 53.0437 465.59 53.0437C462.071 53.0437 458.561 53.0203 455.041 53.0437C453.868 53.0437 452.61 53.1919 452.498 54.4628C452.197 57.8156 451.212 61.0747 450.593 64.3729C449.56 69.8777 448.293 75.3435 447.345 80.8561C447.045 82.5948 446.003 84.2166 446.059 85.9242C446.21 90.6181 444.042 95.0001 443.638 99.6316C443.404 102.329 442.315 104.965 441.742 107.647C441.48 108.91 441.864 110.298 441.414 111.491C440.053 115.179 439.462 119 438.805 122.766C437.754 128.762 435.877 134.641 435.267 140.683C434.938 144.036 433.39 147.186 433.286 150.562C433.221 152.691 433.455 153.073 435.961 153.081C438.279 153.081 440.588 153.081 442.906 153.073C445.731 153.073 448.556 153.065 451.381 153.089C455.135 153.12 455.858 152.364 455.998 149.471C456.271 144.013 458.608 138.874 458.87 133.448C458.992 130.914 460.025 128.403 460.447 125.9C461.057 122.243 461.958 118.641 462.718 115.015C462.906 114.142 463.525 113.659 464.689 113.682C466.585 113.713 468.49 113.76 470.367 113.635C472.798 113.479 473.464 113.861 473.539 115.889C473.586 117.136 473.952 118.298 474.384 119.483C474.938 121.019 475.492 122.625 475.529 124.2C475.576 126.82 476.58 129.268 477.162 131.771C478.054 135.607 479.095 139.436 479.893 143.272C480.841 147.888 481.92 152.465 483.047 157.042C483.431 158.57 483.976 160.098 484.069 161.642C484.323 165.86 486.097 169.837 486.838 173.993C487.261 176.402 487.045 177.01 484.069 177.041C481.291 177.065 478.523 177.041 475.745 177.057C475.06 177.057 474.3 177.151 474.084 177.782C473.877 178.359 474.506 178.694 475.013 178.96C476.815 179.95 478.438 181.135 480.147 182.227C485.778 185.837 491.484 189.353 497.256 192.815C498.832 193.751 500.006 195.388 502.371 195.216C503.619 194.133 504.773 192.955 506.125 191.981C507.223 191.193 507.645 189.821 509.241 189.493C509.269 188.916 509.776 188.605 510.198 188.254C512.488 186.336 514.787 184.433 517.077 182.531C518.607 181.26 520.127 179.981 521.648 178.71C522.033 178.383 522.445 178.047 522.098 177.54L522.126 177.509ZM489.494 88.3257C488.546 90.7428 487.664 93.1911 485.29 95.0468C482.202 97.464 478.56 98.3606 474.431 98.1891C473.887 98.1657 473.352 98.1891 472.807 98.1891C471.39 98.1891 469.964 98.2047 468.556 98.1891C466.435 98.1579 465.815 97.6901 466.36 96.0839C467.467 92.8949 467.233 89.5421 468.312 86.3764C469.485 82.9691 469.241 79.3668 470.424 75.9985C471.109 74.0336 471.203 72.0375 471.587 70.0649C471.85 68.7238 472.582 68.0064 474.44 68.139C478.044 68.3963 481.742 67.6633 485.28 68.7783C489.654 70.1662 491.137 71.6165 491.446 75.2967C491.822 79.7333 491.155 84.1075 489.494 88.3413V88.3257Z" fill="#29A6FF"/>
<path d="M429.71 127.647C429.267 117.421 429.597 107.18 429.597 96.9383C428.966 92.06 429.088 87.1661 428.862 82.28C428.419 72.5546 428.485 62.8215 428.372 53.0883C428.325 49.3201 428.306 45.5519 428.372 41.7759C428.4 40.4781 427.684 39.8136 426.242 39.8371C418.248 39.9465 410.227 39.4696 402.243 40.1107C401.696 40.1576 401.083 40.1263 400.819 40.6111C400.065 42.0417 399.038 43.4411 398.708 44.9421C397.831 49.0621 395.474 52.7521 393.919 56.6688C392.147 61.1484 389.969 65.5577 388.207 70.0295C385.944 75.8068 383.315 81.4591 380.958 87.1896C379.092 91.7239 377.244 96.2738 375.312 100.793C372.965 106.273 370.335 111.683 368.336 117.272C367.318 120.134 365.895 122.893 364.651 125.7C364.01 127.139 364.679 127.655 366.432 127.639C372.267 127.615 378.111 127.615 383.956 127.639C385.162 127.639 385.794 127.311 386.161 126.333C387.274 123.409 388.518 120.525 389.63 117.601C390.045 116.522 390.714 116.076 392.128 116.092C396.747 116.155 401.366 116.17 405.975 116.076C407.889 116.045 408.416 116.631 408.407 118.148C408.332 127.045 408.388 135.941 408.294 144.83C408.275 146.284 408.266 147.723 408.322 149.169C408.351 150.146 408.794 150.615 410.019 150.615C415.967 150.615 421.934 150.592 427.882 150.639C429.88 150.654 430.427 149.881 430.408 148.34C430.314 141.437 430.012 134.534 429.71 127.631V127.647ZM408.907 96.5005C409.02 98.7286 408.228 99.2524 405.579 99.2524C403.477 99.2524 401.375 99.2055 399.273 99.2524C397.548 99.2915 397.011 98.6036 397.52 97.3605C399.085 93.5298 400.951 89.7616 402.271 85.8683C403.392 82.5458 404.835 79.3092 405.947 75.9866C406.362 74.7592 406.984 73.5787 407.314 72.3201C407.436 71.8823 407.71 71.2334 408.492 71.3741C409.246 71.5148 409.133 72.1481 409.133 72.6484C409.133 74.9547 409.133 77.2609 409.133 80.5288C409.463 85.2116 408.596 90.8404 408.878 96.4927L408.907 96.5005Z" fill="#3A559E"/>
<path d="M376.722 161.736V152.942H348.307V214.511H320.867V152.95H291.429V214.511H263.989V62.6663H291.429V129.495H320.867V62.6663H348.307V129.495H376.722V120.701L394.547 143.293L376.722 161.736Z" fill="#29A6FF"/>
<path d="M251.705 63.8727C256.406 63.8412 261.107 64.2105 265.426 65.7345C269.867 67.2979 273.407 70.0318 275.785 73.6299C278.683 78.0215 279.371 82.7665 278.34 87.6844C277.838 90.0726 277.662 92.4923 276.974 94.857C276.417 96.7503 276.937 97.1274 279.287 97.1431C280.356 97.1509 281.433 97.1273 282.502 97.1588C283.059 97.1745 283.793 96.9152 284.034 97.6066C284.22 98.1408 283.635 98.3922 283.273 98.7064C280.532 101.032 277.792 103.357 275.06 105.683C271.335 108.849 267.61 112.022 263.875 115.181C261.831 116.917 261.311 116.901 259.834 114.866C255.913 109.454 252.077 104.001 248.129 98.6043C247.153 97.2688 247.971 97.1588 249.206 97.151C250.813 97.1352 252.42 97.1352 254.028 97.1352C254.799 97.1352 255.709 97.0331 255.784 96.3025C256.239 92.0288 258.385 87.8808 257.121 83.4735C256.601 81.6745 254.799 80.1111 252.653 79.8283C244.961 78.807 241.746 81.7374 239.99 88.2029C238.393 94.0635 237.603 100.066 236.052 105.942C235.02 109.838 234.528 113.829 233.58 117.742C232.586 121.866 231.843 126.038 230.877 130.17C230.236 132.904 229.818 135.74 229.214 138.49C228.341 142.52 227.477 146.558 226.539 150.58C225.229 156.15 224.253 161.775 223.045 167.368C221.41 174.949 219.655 182.523 218.057 190.112C217.676 191.934 217.174 193.796 217.546 195.658C218.14 198.651 220.472 200.065 224.29 199.924C230.329 199.704 233.534 197.245 235.011 192.201C236.163 188.266 236.776 184.251 237.91 180.315C238.142 179.514 238.671 179.341 239.479 179.341C245.304 179.341 251.129 179.341 256.945 179.357C257.762 179.357 258.422 179.53 258.264 180.433C257.158 186.836 256.508 193.364 253.545 199.39C250.395 205.777 245.211 210.663 237.343 213.287C231.444 215.251 225.322 216.06 219.107 215.581C211.256 214.976 204.168 212.855 199.709 206.727C196.857 202.799 196.244 198.526 196.68 194.063C197.423 186.474 199.709 179.097 201.102 171.603C202.171 165.884 203.536 160.211 204.688 154.508C205.59 150.085 206.537 145.654 207.494 141.231C208.404 137.028 209.668 132.865 210.318 128.638C210.708 126.077 211.582 123.61 211.879 121.025C212.269 117.624 213.31 114.277 214.062 110.899C214.666 108.189 215.233 105.47 215.836 102.76C216.533 99.602 217.351 96.4674 217.927 93.2936C218.54 89.9076 219.097 86.4824 220.268 83.2221C222.785 76.2538 227.124 70.2911 235.132 66.858C240.316 64.6347 245.955 63.9434 251.714 63.8884L251.705 63.8727Z" fill="#3A559E"/>
<path d="M206.591 83.1526L188.928 214.645H164.563L135.537 117.023H135.106L134.975 230.88H151.253L126.139 253.074L97.5532 230.88H113.84L113.971 83.1526H143.736L174.616 174.551L185.455 83.1526H206.591Z" fill="#29A6FF"/>
<path d="M100.429 62.3436V176.791C100.429 200.798 86.0002 214.511 58.1592 214.511C30.3182 214.511 15.88 200.79 15.88 176.791L16.3792 25.8256L0 25.9505L16.4253 12.9089L19.0967 10.786L32.6844 0L44.4882 10.786L44.7841 11.0592L60.5531 25.4822L44.7285 25.6071L44.2294 178.5C44.2294 189.224 49.6461 193.079 58.6676 193.079C67.6891 193.079 73.0964 189.224 73.0964 178.5V62.3436H100.411H100.429Z" fill="#3A559E"/>
</svg>
