<svg width="145" height="145" viewBox="0 0 145 145" fill="none" xmlns="http://www.w3.org/2000/svg">
<path fill-rule="evenodd" clip-rule="evenodd" d="M0.124544 9.37785C0 10.2079 0 11.1992 0 13.1818V71.119C0 111.922 32.4594 145 72.5 145C112.541 145 145 111.922 145 71.119V13.1818C145 11.1992 145 10.2079 144.875 9.37785C144.159 4.60357 140.482 0.856902 135.797 0.126916C134.983 0 134.01 0 132.065 0H122.761L93.4608 47.6226C92.4145 49.3232 92.4172 51.4845 93.4679 53.1824L122.94 100.81H90.145L75.2266 76.6755C74.6389 75.7248 73.6134 75.148 72.5107 75.148C71.3964 75.148 70.3618 75.7369 69.7775 76.7038L55.2115 100.81H22.0603L51.3708 53.171C52.412 51.4786 52.4148 49.3292 51.3778 47.6341L22.2386 0H12.9354C10.9899 0 10.0171 0 9.20256 0.126916C4.51752 0.856902 0.840885 4.60357 0.124544 9.37785ZM55.2115 0L69.773 23.7395C70.3607 24.6976 71.3912 25.2797 72.5 25.2797C73.6088 25.2797 74.6393 24.6976 75.227 23.7395L89.7885 0H55.2115Z" fill="#335BFF"/>
</svg>
