<svg width="144" height="144" viewBox="0 0 144 144" fill="none" xmlns="http://www.w3.org/2000/svg">
<path d="M100.594 107.984H103.062L101.836 104.881L100.594 107.984Z" fill="white"/>
<path d="M68.272 107.984H70.7401L69.514 104.881L68.272 107.984Z" fill="white"/>
<path d="M82.7704 0H62.0054L72.3882 16.6261L82.7704 0Z" fill="white"/>
<path d="M57.4754 103.562H56.2334V109.113H57.4754C59.2986 109.113 60.5087 108.114 60.5087 106.353V106.322C60.5087 104.575 59.2986 103.562 57.4754 103.562Z" fill="white"/>
<path d="M117.868 108.518C117.868 110.748 116.093 112.073 113.42 112.073C111.472 112.073 109.617 111.465 108.265 110.264L109.962 108.253C111.047 109.11 112.257 109.563 113.53 109.563C114.348 109.563 114.788 109.282 114.788 108.814V108.783C114.788 108.331 114.426 108.082 112.933 107.739C110.591 107.208 108.784 106.553 108.784 104.308V104.277C108.784 102.25 110.403 100.785 113.043 100.785C114.913 100.785 116.375 101.284 117.569 102.235L116.045 104.371C115.039 103.669 113.939 103.295 112.964 103.295C112.226 103.295 111.864 103.607 111.864 103.997V104.028C111.864 104.527 112.241 104.746 113.766 105.088C116.296 105.634 117.868 106.445 117.868 108.487V108.518ZM104.764 111.885L103.962 109.937H99.7186L98.9324 111.885H95.7259L100.41 100.894H103.349L108.033 111.885H104.764ZM94.849 111.885H86.4722V100.972H89.5207V109.235H94.849V111.885ZM85.1699 111.885H76.7931V100.972H79.8424V109.235H85.1699V111.885ZM72.4582 111.885L71.6568 109.937H67.4133L66.6271 111.885H63.4206L68.1046 100.894H71.0437L75.7278 111.885H72.4582ZM57.3886 111.885H53.2082V100.972H57.4516C61.3806 100.972 63.6596 103.217 63.6596 106.366V106.398C63.6596 109.547 61.3494 111.885 57.3886 111.885ZM47.5225 103.623H44.2225V111.885H41.1732V103.623H37.8725V100.972H47.5225V103.623ZM36.6818 107.021C36.6818 110.545 34.6543 112.088 31.5267 112.088C28.3992 112.088 26.434 110.514 26.434 107.099V100.972H29.5311V107.036C29.5311 108.611 30.3325 109.36 31.5579 109.36C32.784 109.36 33.5854 108.643 33.5854 107.115V100.972H36.6818V107.021ZM144.001 0H115.716L89.2845 43.6919L118.223 90.0326H83.5158L72.3827 71.6304L61.2504 90.0326H26.5435L55.4816 43.6919L29.0497 0H0V71.7697H0.00346687C0.00277417 71.8473 0 71.9228 0 71.9996C0 111.765 32.2361 144 72.001 144C111.766 144 144.001 111.765 144.001 71.9996C144.001 71.9228 143.999 71.8473 143.999 71.7697H144.001V0Z" fill="white"/>
</svg>
